<?xml version="1.0" encoding="UTF-8"?>
<svg xmlns="http://www.w3.org/2000/svg" viewBox="0 0 72.5 64">
  <defs>
    <style>
      .uuid-faec1efc-a09f-4226-924c-9467d4fcb474 {
        fill: #fff;
      }
    </style>
  </defs>
  <g id="uuid-832e6bfa-587b-4dd6-ab21-4faaa4259577" data-name="Calque 1"/>
  <g id="uuid-cab119a5-102f-442c-851d-a651504d7fae" data-name="Calque 2">
    <g id="uuid-2b675ff5-788a-4790-b8a2-37caaf2d625e" data-name="Layer 1">
      <g>
        <path class="uuid-faec1efc-a09f-4226-924c-9467d4fcb474" d="M27.7,9.4l-.9-1.3c-.2-.3-.5-.5-.9-.4-.3,0-.7,.2-.8,.5l-.2,.4c-2.3,3.9-5.8,6.9-9.9,8.3-.5,.2-.8,.8-.6,1.3,.2,.5,.8,.8,1.3,.6,4.1-1.5,7.8-4.4,10.3-8.2h0c2.7,4.1,6.6,7,11,8.4,0,0,.2,0,.3,0,.4,0,.8-.3,1-.7,.2-.5-.1-1.1-.7-1.2-3.9-1.2-7.4-3.9-9.9-7.5Z"/>
        <path class="uuid-faec1efc-a09f-4226-924c-9467d4fcb474" d="M10.7,34c.1,.4,.5,.7,.9,.7s.2,0,.3,0c.5-.2,.8-.8,.6-1.3-.3-1-.6-2-.7-3,0-.5,0-1,0-1.5v-10.3c0-3.6,1-7,2.9-9.9,0,0,0,0,0,0,2.8-4.2,7.1-6.6,11.7-6.6s9.3,2.6,12,7.1c1.7,2.8,2.6,6.1,2.6,9.5v10.3c0,.2,0,.3,0,.5,0,1.5-.4,3-.9,4.4-.2,.5,0,1.1,.5,1.3,.1,0,.3,0,.4,0,.4,0,.8-.2,.9-.6,.7-1.6,1-3.3,1.1-5.1,0-.2,0-.4,0-.6v-10.3c0-3.8-1-7.4-3-10.5C37,3,31.9,0,26.4,0s-10.3,2.8-13.4,7.5h0c-2.1,3.2-3.2,7-3.2,11v10.3c0,.6,0,1.2,0,1.7,.1,1.2,.4,2.4,.8,3.5Z"/>
        <path class="uuid-faec1efc-a09f-4226-924c-9467d4fcb474" d="M71.6,62.1h-9.9v-11.4c.7,0,4.3-.1,6.5-2.1,2.6-2.2,2.5-5.8,2.5-6,0-.5-.4-.9-.9-.9,0,0-4.1-.1-6.7,2.1-.6,.5-1,1.1-1.4,1.7v-5.2c.7,0,4.3-.1,6.5-2.1,2.6-2.2,2.5-5.8,2.5-6,0-.5-.4-.9-.9-.9,0,0-4.1-.1-6.7,2.1-.6,.5-1,1.1-1.4,1.7v-5.3h0c.7,0,4.3-.1,6.6-2.1,2.6-2.2,2.5-5.8,2.5-6,0-.5-.4-.9-.9-.9-.2,0-4.2,0-6.7,2.1-.6,.5-1.1,1.1-1.4,1.8v-2.8c.9-.9,3.5-3.6,3.5-7s-3.7-7.2-3.8-7.3c-.4-.3-.9-.3-1.2,0-.2,.1-3.8,3.3-3.8,7.3s2.6,6.2,3.5,7v2.8c-.4-.7-.9-1.3-1.4-1.8-2.5-2.2-6.5-2.1-6.7-2.1-.5,0-.9,.4-.9,.9,0,.2,0,3.8,2.5,6,2.3,2,5.9,2.1,6.6,2.1h0v5.3h0c-.4-.7-.9-1.3-1.4-1.8-2.5-2.2-6.5-2.1-6.7-2.1-.5,0-.9,.4-.9,.9,0,.2-.1,3.8,2.5,6,2.3,2,5.9,2.1,6.6,2.1h0v5.3h0c-.4-.7-.9-1.3-1.4-1.8-2.5-2.2-6.5-2.1-6.7-2.1-.5,0-.9,.4-.9,.9,0,.2-.1,3.8,2.5,6,2.3,2,5.9,2.1,6.6,2.1h0v11.4h-7l-1.8-11.5c-.6-3.6-2.9-6.6-6.1-8.1l-6.6-3h0l-2.9-1.3c-1.1-.5-1.8-1.6-1.8-2.8v-1.8s0,0,0,0c1-.8,1.8-1.8,2.5-3,1-1.9,1.6-4.1,1.6-6.3v-2.9c0-.6-.4-1-1-1s-1,.4-1,1v2.9c0,1.9-.5,3.7-1.3,5.3-1.5,2.8-4.6,4.6-8,4.6h-.9c-1.8,0-3.6-.7-4.8-2-2.1-2.1-3.3-4.9-3.3-7.9v-2.8c0-.6-.4-1-1-1s-1,.4-1,1v2.8c0,3.5,1.4,6.9,3.9,9.4,0,0,.1,.1,.2,.2v1.6c0,1.2-.7,2.3-1.8,2.8l-9.5,4.3c-3.3,1.5-5.6,4.5-6.1,8.1L0,62.8s0,0,0,.1c0,0,0,0,0,0,0,0,0,0,0,.1,0,0,0,0,0,0,0,.4,.4,.6,.8,.7,0,0,0,0,0,0,0,0,0,0,0,0,0,0,0,0,0,0H71.6c.5,0,.9-.4,.9-.9s-.4-.9-.9-.9Zm-7.3-16.9h0c1.3-1.1,3.2-1.5,4.4-1.6-.1,1-.5,2.5-1.7,3.5-1.3,1.1-3.2,1.5-4.4,1.6,.1-1,.5-2.5,1.7-3.5Zm0-10.4h0c1.3-1.1,3.2-1.5,4.4-1.6-.1,1-.5,2.5-1.7,3.5-1.3,1.1-3.2,1.5-4.4,1.6,.1-1,.5-2.5,1.7-3.5Zm0-10.4h0c1.3-1.1,3.2-1.5,4.4-1.6-.1,1-.5,2.5-1.7,3.5-1.3,1.1-3.2,1.5-4.4,1.6,.1-1,.5-2.5,1.7-3.5Zm-9.9,1.9c-1.2-1-1.6-2.6-1.7-3.5,1.2,.1,3.1,.5,4.4,1.6,1.2,1,1.6,2.6,1.7,3.5-1.2-.1-3.1-.5-4.4-1.6Zm0,10.4c-1.2-1-1.6-2.6-1.7-3.5,1.2,.1,3.1,.5,4.4,1.6,1.2,1,1.6,2.6,1.7,3.5-1.2-.1-3.1-.5-4.4-1.6Zm0,10.4c-1.2-1-1.6-2.6-1.7-3.5,1.2,.1,3.1,.5,4.4,1.6,1.2,1,1.6,2.6,1.7,3.5-1.2-.1-3.1-.5-4.4-1.6Zm-5.3,3.8l1.8,11.2h-6.7v-17.7c2.7,1.2,4.5,3.7,5,6.6Zm-30.7-10.9c1.8-.8,3-2.6,3-4.6v-.2c1.2,.6,2.6,1,4.1,1h.9c1.9,0,3.7-.5,5.3-1.3v.5c0,2,1.2,3.8,3,4.6l1.8,.8c-1.8,2.4-5.6,4-9.7,4s-8-1.6-9.8-4.1l1.6-.7Zm17,4.4v9H17.8v-9c2.3,1.6,5.5,2.5,8.8,2.5s6.4-.9,8.8-2.4Zm-20.4-2.8c.3,.4,.5,.7,.9,1.1v11.7c0,.6,.4,1,1,1h19.6c.6,0,1-.4,1-1v-11.7c.3-.3,.6-.7,.8-1.1l3.9,1.8v18.6h-4.7v-2.7c0-.6-.4-1-1-1H16.8c-.6,0-1,.4-1,1v2.7h-4.7v-18.7l3.8-1.7Zm20.4,20.5H17.8v-1.7h17.6v1.7ZM8.9,44.3h.2v17.7H2.2l1.8-11.2c.5-2.9,2.3-5.4,5-6.6ZM58.2,14.9c0-2.3,1.7-4.4,2.5-5.3,.9,.9,2.5,3,2.5,5.3s-1.7,4.4-2.5,5.3c-.9-.9-2.5-3-2.5-5.3Z"/>
      </g>
    </g>
  </g>
</svg>