<?xml version="1.0" encoding="UTF-8"?>
<svg xmlns="http://www.w3.org/2000/svg" viewBox="0 0 61.3 57.6">
  <defs>
    <style>
      .uuid-690ead88-5b58-48d4-a3d9-df24747c21d0 {
        fill: #fff;
      }
    </style>
  </defs>
  <g id="uuid-51789cba-92f4-4672-8f31-cd368d1ff1a5" data-name="Calque 1"/>
  <g id="uuid-2ab207d3-c1f3-4654-a681-888d5ec59bbb" data-name="Calque 2">
    <g id="uuid-775d3a37-34a4-41f5-84d8-41741fe0e62a" data-name="Layer 1">
      <g>
        <path class="uuid-690ead88-5b58-48d4-a3d9-df24747c21d0" d="M24.2,42.8v6.7c0,1,.4,1.9,1,2.5,.6,.6,1.5,1,2.5,1h5.9c1,0,1.9-.4,2.5-1,.6-.6,1-1.5,1-2.5v-6.7c.8-.2,1.4-.6,2-1.1,.7-.8,1.2-1.8,1.2-2.9V22.1c0-1-.4-2.2-1.2-3.1-.7-.9-1.7-1.6-3-2.2-.3-.2-.7-.1-1,.1-.6,.5-1.3,.9-2.1,1.1-.7,.2-1.5,.4-2.3,.4s-1.6-.1-2.3-.4c-.8-.3-1.4-.6-2.1-1.1h0c-.3-.2-.6-.3-1-.1-1.3,.6-2.3,1.3-3,2.2-.8,1-1.2,2.1-1.2,3.1v16.6c0,1.1,.5,2.2,1.2,2.9,.5,.5,1.2,1,2,1.1Zm-1.2-14v-6.7c0-.6,.3-1.3,.8-1.9,.4-.5,1.1-1,1.8-1.4,.6,.4,1.4,.8,2.2,1.1,.9,.3,1.9,.5,2.9,.5s2-.2,2.9-.5c.8-.3,1.5-.6,2.2-1.1,.8,.4,1.4,.9,1.8,1.4,.5,.6,.8,1.3,.8,1.9v16.6c0,.6-.2,1.2-.6,1.6-.4,.4-1,.7-1.6,.7-.5,0-.9,.5-.9,1v7.5c0,.4-.2,.8-.5,1.1-.3,.3-.7,.5-1.1,.5h-5.9c-.4,0-.8-.2-1.1-.5h0c-.3-.3-.5-.7-.5-1.1v-7.5c0-.5-.4-1-1-1h0c-.6,0-1.1-.3-1.5-.7-.4-.4-.6-1-.6-1.6v-9.9Z"/>
        <path class="uuid-690ead88-5b58-48d4-a3d9-df24747c21d0" d="M41.1,48.7c-.4-.4-1-.4-1.4,0-.4,.4-.4,1,0,1.4,.2,.2,.4,.5,.5,.8,.1,.2,.2,.5,.2,.7,0,1-1,2-2.6,2.8-1.8,.9-4.3,1.4-7.1,1.4s-5.3-.5-7.1-1.4c-1.6-.8-2.6-1.8-2.6-2.8s0-.5,.2-.7c.1-.3,.3-.5,.5-.8,.4-.4,.4-1,0-1.4-.4-.4-1-.3-1.4,0-.4,.4-.7,.9-.9,1.3-.2,.5-.3,1-.3,1.5,0,1.8,1.4,3.4,3.7,4.5,2.1,1,4.9,1.6,8,1.6s5.9-.6,8-1.6c2.3-1.1,3.7-2.7,3.7-4.5s-.1-1-.3-1.5c-.2-.5-.5-.9-.9-1.3Z"/>
        <path class="uuid-690ead88-5b58-48d4-a3d9-df24747c21d0" d="M4.4,37.9v5c0,.9,.3,1.7,.9,2.2,.6,.6,1.4,.9,2.2,.9h5c.9,0,1.7-.4,2.2-.9,.6-.6,.9-1.4,.9-2.2v-5c.6-.2,1.2-.5,1.6-1,.7-.7,1.1-1.6,1.1-2.6v-14.6c0-.9-.4-1.9-1.1-2.8-.6-.7-1.5-1.4-2.6-1.9-.3-.1-.7-.1-1,.1-.5,.4-1.1,.7-1.7,.9-.6,.2-1.3,.3-1.9,.3s-1.3-.1-1.9-.3c-.6-.2-1.2-.5-1.7-.9h0c-.3-.2-.6-.3-1-.1-1.1,.5-2,1.2-2.6,1.9-.7,.9-1.1,1.8-1.1,2.8v14.6c0,1,.4,1.9,1.1,2.6,.5,.5,1,.8,1.6,1Zm-.7-12.5v-5.7c0-.5,.2-1,.6-1.5,.3-.4,.8-.8,1.4-1.1,.6,.4,1.1,.7,1.8,.9,.8,.3,1.7,.4,2.5,.4s1.8-.1,2.6-.4c.6-.2,1.2-.5,1.8-.9,.6,.3,1.1,.7,1.4,1.1,.4,.5,.6,1,.6,1.5v14.6c0,.5-.2,.9-.5,1.3-.3,.3-.8,.5-1.2,.6-.5,0-.9,.4-.9,1v5.8c0,.3-.1,.6-.4,.9-.2,.2-.5,.4-.9,.4H7.5c-.3,0-.6-.1-.9-.4-.2-.2-.4-.5-.4-.9v-5.8c0-.5-.4-1-1-1h0c-.5,0-.9-.2-1.2-.6-.3-.3-.5-.8-.5-1.3v-8.9Z"/>
        <path class="uuid-690ead88-5b58-48d4-a3d9-df24747c21d0" d="M19.8,43.4c-.2-.4-.5-.8-.8-1.2-.4-.4-1-.4-1.4,0-.4,.4-.4,1,0,1.4,.2,.2,.3,.4,.4,.6,0,.2,.1,.4,.1,.5,0,.8-.8,1.6-2.1,2.2-1.5,.7-3.6,1.2-6,1.2s-4.5-.5-6-1.2c-1.3-.6-2.1-1.4-2.1-2.2s0-.4,.1-.5c0-.2,.2-.4,.4-.6,.4-.4,.3-1,0-1.4-.4-.4-1-.4-1.4,0-.3,.4-.6,.7-.8,1.2-.2,.4-.3,.9-.3,1.3,0,1.6,1.2,3,3.2,4,1.8,.9,4.2,1.4,6.8,1.4s5.1-.5,6.8-1.4c2-1,3.2-2.4,3.2-4s-.1-.9-.3-1.3Z"/>
        <path class="uuid-690ead88-5b58-48d4-a3d9-df24747c21d0" d="M45.6,37.9v5c0,.9,.4,1.7,.9,2.2,.6,.6,1.4,.9,2.2,.9h5c.9,0,1.7-.4,2.2-.9,.6-.6,.9-1.4,.9-2.2v-5c.6-.2,1.2-.5,1.6-1,.7-.7,1.1-1.6,1.1-2.6v-14.6c0-.9-.4-1.9-1.1-2.8-.6-.7-1.5-1.4-2.6-1.9-.3-.1-.7-.1-1,.1-.5,.4-1.1,.7-1.7,.9-.6,.2-1.3,.3-1.9,.3s-1.3-.1-1.9-.3c-.6-.2-1.2-.5-1.7-.9-.3-.2-.6-.3-1-.1-1.1,.5-2,1.2-2.6,1.9-.7,.9-1.1,1.8-1.1,2.8v14.6c0,1,.4,1.9,1.1,2.6,.4,.5,1,.8,1.6,1Zm-.7-12.5v-5.7c0-.5,.2-1,.6-1.5,.4-.4,.8-.8,1.4-1.1,.6,.4,1.2,.7,1.8,.9,.8,.3,1.7,.4,2.6,.4s1.8-.1,2.6-.4c.6-.2,1.2-.5,1.8-.9,.6,.3,1.1,.7,1.4,1.1,.4,.5,.6,1,.6,1.5v14.6c0,.5-.2,.9-.5,1.3-.3,.3-.8,.5-1.2,.6-.5,0-.9,.4-.9,1h0v5.8c0,.3-.1,.6-.4,.9-.2,.2-.5,.4-.9,.4h-5c-.3,0-.6-.1-.9-.4-.2-.2-.4-.5-.4-.9v-5.8c0-.5-.4-1-1-1h0c-.5,0-.9-.2-1.2-.6-.3-.3-.5-.8-.5-1.3v-8.9Z"/>
        <path class="uuid-690ead88-5b58-48d4-a3d9-df24747c21d0" d="M61,43.4c-.2-.4-.5-.8-.8-1.2-.4-.4-1-.4-1.4,0-.4,.4-.4,1,0,1.4,.2,.2,.3,.4,.4,.6,0,.2,.1,.4,.1,.5,0,.8-.8,1.6-2.1,2.2-1.5,.7-3.6,1.2-6,1.2s-4.5-.5-6-1.2c-1.3-.6-2.1-1.4-2.1-2.2s0-.4,.1-.5c0-.2,.2-.4,.4-.6,.4-.4,.3-1,0-1.4-.4-.4-1-.4-1.4,0-.3,.4-.6,.7-.8,1.2-.2,.4-.3,.9-.3,1.3,0,1.6,1.2,3,3.2,4,1.8,.9,4.2,1.4,6.8,1.4s5.1-.5,6.8-1.4c2-1,3.2-2.4,3.2-4s0-.9-.3-1.3Z"/>
        <path class="uuid-690ead88-5b58-48d4-a3d9-df24747c21d0" d="M35.7,9.4c0-.2,0-.4,0-.6s-.3-.3-.5-.4c-1.4-.4-2.7-1.4-3.6-2.8l-.4-.5c-.2-.2-.4-.4-.7-.3-.3,0-.5,.2-.7,.4v.2c-1,1.4-2.2,2.5-3.7,3-.2,0-.4,.2-.5,.4,0,.2-.1,.4,0,.6,0,.2,.2,.4,.4,.5s.4,.1,.6,0c1.4-.5,2.7-1.4,3.7-2.7l.2-.2,.2,.2c1.1,1.3,2.4,2.2,4,2.7,.4,.1,.9-.1,1-.5Z"/>
        <path class="uuid-690ead88-5b58-48d4-a3d9-df24747c21d0" d="M24.4,4.8h0c-1,1.3-1.6,2.8-1.6,4.5v3.1c0,.2,0,.5,0,.7,0,.5,.2,1,.4,1.4,0,.2,.2,.3,.4,.4,.2,0,.4,0,.6,0,.4-.2,.6-.6,.4-1-.1-.3-.2-.6-.3-1,0-.2,0-.3,0-.5v-3.1c0-1.3,.4-2.4,1.2-3.5,1.2-1.5,3-2.3,5-2.3s3.9,.9,5.1,2.5c.7,1,1.1,2.1,1.1,3.3v3.3c0,.5-.1,1-.4,1.4-.2,.4,0,.9,.4,1.1,.4,.2,.9,0,1.1-.4,.3-.7,.5-1.4,.5-2.1,0,0,0-.2,0-.2v-3.1c0-1.5-.5-3-1.4-4.3-1.5-2-3.9-3.1-6.4-3.1s-4.7,1.1-6.2,2.9Z"/>
        <path class="uuid-690ead88-5b58-48d4-a3d9-df24747c21d0" d="M26.7,10.9c-.4,0-.8,.4-.8,.8v.2c0,2.6,2.1,4.8,4.8,4.8s4.8-2.1,4.8-4.8v-.2c0-.4-.4-.8-.8-.8s-.8,.4-.8,.8v.2c0,1.8-1.4,3.2-3.2,3.2s-3.2-1.4-3.2-3.2v-.2c0-.4-.4-.8-.8-.8Z"/>
        <path class="uuid-690ead88-5b58-48d4-a3d9-df24747c21d0" d="M15,7.5c0-.2,0-.4,0-.6s-.3-.3-.5-.4c-1.4-.4-2.7-1.4-3.6-2.8l-.4-.5c-.2-.2-.4-.4-.7-.3-.3,0-.5,.2-.7,.4v.2c-1,1.4-2.2,2.5-3.7,3-.2,0-.4,.2-.5,.4,0,.2-.1,.4,0,.6,0,.2,.2,.4,.4,.5s.4,.1,.6,0c1.4-.5,2.7-1.4,3.7-2.7l.2-.2,.2,.2c1.1,1.3,2.4,2.2,4,2.7,.4,.1,.9-.1,1-.5Z"/>
        <path class="uuid-690ead88-5b58-48d4-a3d9-df24747c21d0" d="M3.8,2.9h0c-1,1.3-1.6,2.8-1.6,4.5v3.1c0,.2,0,.5,0,.7,0,.5,.2,1,.4,1.4,0,.2,.2,.3,.4,.4,.2,0,.4,0,.6,0,.4-.2,.6-.6,.4-1-.1-.3-.2-.6-.3-1,0-.2,0-.3,0-.5v-3.1c0-1.3,.4-2.4,1.2-3.5,1.2-1.5,3-2.3,5-2.3s3.9,.9,5.1,2.5c.7,1,1.1,2.1,1.1,3.3v3.3c0,.5-.1,1-.4,1.4-.2,.4,0,.9,.4,1.1,.4,.2,.9,0,1.1-.4,.3-.7,.5-1.4,.5-2.1,0,0,0-.2,0-.2v-3.1c0-1.5-.5-3-1.4-4.3-1.5-2-3.9-3.1-6.4-3.1S5.3,1.1,3.8,2.9Z"/>
        <path class="uuid-690ead88-5b58-48d4-a3d9-df24747c21d0" d="M6,9c-.4,0-.8,.4-.8,.8v.2c0,2.6,2.1,4.8,4.8,4.8s4.8-2.1,4.8-4.8v-.2c0-.4-.4-.8-.8-.8s-.8,.4-.8,.8v.2c0,1.8-1.4,3.2-3.2,3.2s-3.2-1.4-3.2-3.2v-.2c0-.4-.4-.8-.8-.8Z"/>
        <path class="uuid-690ead88-5b58-48d4-a3d9-df24747c21d0" d="M56.3,7.5c0-.2,0-.4,0-.6s-.3-.3-.5-.4c-1.4-.4-2.7-1.4-3.6-2.8l-.4-.5c-.2-.2-.4-.4-.7-.3-.3,0-.5,.2-.7,.4v.2c-1,1.4-2.2,2.5-3.7,3-.2,0-.4,.2-.5,.4,0,.2-.1,.4,0,.6,0,.2,.2,.4,.4,.5s.4,.1,.6,0c1.4-.5,2.7-1.4,3.7-2.7l.2-.2,.2,.2c1.1,1.3,2.4,2.2,4,2.7,.4,.1,.9-.1,1-.5Z"/>
        <path class="uuid-690ead88-5b58-48d4-a3d9-df24747c21d0" d="M45.1,2.9h0c-1,1.3-1.6,2.8-1.6,4.5v3.1c0,.2,0,.5,0,.7,0,.5,.2,1,.4,1.4,0,.2,.2,.3,.4,.4,.2,0,.4,0,.6,0,.4-.2,.6-.6,.4-1-.1-.3-.2-.6-.3-1,0-.2,0-.3,0-.5v-3.1c0-1.3,.4-2.4,1.2-3.5,1.2-1.5,3-2.3,5-2.3s3.9,.9,5.1,2.5c.7,1,1.1,2.1,1.1,3.3v3.3c0,.5-.1,1-.4,1.4-.2,.4,0,.9,.4,1.1,.4,.2,.9,0,1.1-.4,.3-.7,.5-1.4,.5-2.1,0,0,0-.2,0-.2v-3.1c0-1.5-.5-3-1.4-4.3-1.5-2-3.9-3.1-6.4-3.1s-4.7,1.1-6.2,2.9Z"/>
        <path class="uuid-690ead88-5b58-48d4-a3d9-df24747c21d0" d="M47.3,9c-.4,0-.8,.4-.8,.8v.2c0,2.6,2.1,4.8,4.8,4.8s4.8-2.1,4.8-4.8v-.2c0-.4-.4-.8-.8-.8s-.8,.4-.8,.8v.2c0,1.8-1.4,3.2-3.2,3.2s-3.2-1.4-3.2-3.2v-.2c0-.4-.4-.8-.8-.8Z"/>
      </g>
    </g>
  </g>
</svg>