<?xml version="1.0" encoding="UTF-8"?>
<svg xmlns="http://www.w3.org/2000/svg" viewBox="0 0 44.1 61.7">
  <defs>
    <style>
      .uuid-50fd57be-a500-4837-a84d-970d7238bb98 {
        fill: #fff;
      }
    </style>
  </defs>
  <g id="uuid-ae71b00a-0269-4435-a126-f3086154b9a9" data-name="Calque 1"/>
  <g id="uuid-e0bb8a60-467f-46cd-b4c1-e40f56d1962b" data-name="Calque 2">
    <g id="uuid-ce2127ef-531c-48cc-8181-0d06035a1051" data-name="Layer 1">
      <g>
        <path class="uuid-50fd57be-a500-4837-a84d-970d7238bb98" d="M43.5,38.4c-.2-3.6-2.9-6.6-6.4-7.4l-.9-.2V13.1c0-7.2-5.9-13.1-13.1-13.1h-2.2C13.7,0,7.8,5.9,7.8,13.1V30.8l-.8,.2c-3.5,.7-6.2,3.8-6.4,7.4L0,52.7c0,2.3,.8,4.6,2.4,6.3,1.6,1.7,3.8,2.6,6.2,2.6s.4,0,.6-.2c.5,.2,1,.3,1.5,.3H30.4c1.7,0,3.1-1.1,3.5-2.7h2.7c.6,0,1-.4,1-1v-20c0-.6-.4-1-1-1H17c-.6,0-1,.4-1,1v2.6h-2.6c-.6,0-1,.4-1,1v14.6h-4.3c-.6,0-1,.4-1,1v.9c0,.5,.1,1,.3,1.5-1.3-.3-2.5-.9-3.5-1.9-1.3-1.3-1.9-3-1.9-4.8l.6-14.3c.2-2.7,2.2-5,4.8-5.6l2.9-.6s0,0,0,0l2.9-.6c.9,2.1,4.4,3.6,8.8,3.6s7.9-1.5,8.8-3.5l2.9,.6,2.9,.6c2.7,.6,4.7,2.8,4.8,5.5l.6,14.3c0,1.8-.6,3.5-1.9,4.8-1.3,1.3-2.9,2-4.8,2s-1,.4-1,1,.4,1,1,1c2.4,0,4.5-.9,6.2-2.6,1.6-1.7,2.5-3.9,2.4-6.3l-.6-14.3Zm-25.5,.6h17.7v18h-1.6v-15.5c0-.6-.4-1-1-1h-15.1v-1.6Zm-3.6,3.6h17.7v15.5c0,.9-.7,1.7-1.7,1.7s-1.7-.7-1.7-1.7v-.9c0-.6-.4-1-1-1H14.4v-13.6Zm12.4,15.6c0,.6,.2,1.1,.4,1.6H10.7c-.9,0-1.6-.7-1.7-1.6H26.8Zm7.4-27.7l-5.5-1.1c-.5-.1-.9-.6-.9-1.2v-1.5h0c.2-.3,.4-.5,.7-.7,1.8-1.6,2.9-4,3-6.5v-4.3c1,.6,2,.9,2.7,1.1v14.3h0Zm-24.3,0s0,0,0,0v-13.6c.9,.3,1.9,.5,2.8,.6v2.1c0,2.5,1.2,4.9,3,6.5,.2,.2,.4,.4,.7,.6h0v1.6c0,.6-.4,1-.9,1.2l-5.5,1.1Zm7.8-5.4c-.2-.2-.5-.4-.7-.6-1.4-1.2-2.3-3.1-2.3-5v-1.9c6.1-.1,11.7-3.6,14-5.2,.2,.4,.5,.8,.8,1.1v6c0,2-.9,3.8-2.3,5-.2,.2-.5,.4-.7,.6-1.2,1.1-2.7,2.5-4.4,2.5-1.7,0-3.2-1.4-4.4-2.5Zm-7.8-12c0-6.1,5-11.1,11.1-11.1h2.2c6.1,0,11.1,5,11.1,11.1v1c-1.3-.4-3.3-1.3-4.2-3.7-.1-.3-.4-.5-.7-.6-.3,0-.6,0-.9,.2-.1,0-10.2,8-18.6,4.7v-1.6Zm12.2,20.2c-3.5,0-5.9-1-6.7-2h.5c1.4-.4,2.5-1.7,2.5-3.1,1.1,.7,2.3,1.3,3.7,1.3,1.4,0,2.6-.6,3.6-1.3,0,1.4,1.1,2.7,2.5,3h.5c-.8,1.1-3.3,2.1-6.7,2.1Z"/>
        <path class="uuid-50fd57be-a500-4837-a84d-970d7238bb98" d="M28.7,49c-.4-.4-1-.4-1.4,0l-2.9,2.9-1.2-1.2c-.4-.4-1-.4-1.4,0s-.4,1,0,1.4l1.9,1.9c.2,.2,.5,.3,.7,.3s.5,0,.7-.3l3.6-3.6c.4-.4,.4-1,0-1.4Z"/>
        <path class="uuid-50fd57be-a500-4837-a84d-970d7238bb98" d="M17.8,47.4h10.8c.6,0,1-.4,1-1s-.4-1-1-1h-10.8c-.6,0-1,.4-1,1s.4,1,1,1Z"/>
        <path class="uuid-50fd57be-a500-4837-a84d-970d7238bb98" d="M19.6,48.9h-1.8c-.6,0-1,.4-1,1s.4,1,1,1h1.8c.6,0,1-.4,1-1s-.4-1-1-1Z"/>
        <path class="uuid-50fd57be-a500-4837-a84d-970d7238bb98" d="M19.6,52.5h-1.8c-.6,0-1,.4-1,1s.4,1,1,1h1.8c.6,0,1-.4,1-1s-.4-1-1-1Z"/>
      </g>
    </g>
  </g>
</svg>