<?xml version="1.0" encoding="UTF-8"?>
<svg xmlns="http://www.w3.org/2000/svg" viewBox="0 0 92.6 61.4">
  <defs>
    <style>
      .uuid-9db872f8-dc44-43e5-adba-6c0421ebcb78 {
        fill: #fff;
      }
    </style>
  </defs>
  <g id="uuid-519a0dbd-ba33-43fa-89df-6810b1002e59" data-name="Calque 1"/>
  <g id="uuid-dc03b537-9669-48e5-8324-43f0a426e4d5" data-name="Calque 2">
    <g id="uuid-b7315562-b748-46fc-931f-185780d8a2e5" data-name="Layer 1">
      <g>
        <path class="uuid-9db872f8-dc44-43e5-adba-6c0421ebcb78" d="M49.9,29.8h-3.7c-.5,0-.9,.4-.9,.9s.4,.9,.9,.9h3.7c1.5,0,2.8,1.2,2.8,2.8s-1.2,2.8-2.8,2.8h-5.2c-2.8,0-5-2.3-5-5v-3c0-4.4,3.6-8,8-8h1.5c.5,0,.9-.4,.9-.9s-.4-.9-.9-.9h-1.5c-5.4,0-9.9,4.4-9.9,9.9v3c0,3.8,3.1,6.9,6.9,6.9h.5l-1.7,21.2c0,.3,0,.7,.3,.9,.2,.1,.4,.2,.6,.2s.2,0,.3,0c.3-.1,.5-.4,.6-.7l1.7-21.5h2.8c2.6,0,4.7-2.1,4.7-4.7s-2.1-4.7-4.7-4.7Z"/>
        <path class="uuid-9db872f8-dc44-43e5-adba-6c0421ebcb78" d="M58.1,8.7c0-.5-.4-.9-.9-.9-.6,0-1.1-.3-1.4-.8,0,0,0-.1-.1-.2,.2-.2,.3-.4,.4-.6,.1-.2,.2-.5,.1-.7,0-.2-.2-.4-.4-.6-.2-.1-.5-.2-.7-.1-.2,0-.5,.2-.6,.4-1.3,2.1-3.6,3.4-6.1,3.3h-.3c-.2,0-.5,0-.6,.3-.2,.2-.3,.4-.3,.7v2c0,3,2.5,5.5,5.5,5.5s5.5-2.5,5.5-5.5v-2.8Zm-1.9,.8v2c0,2-1.6,3.6-3.6,3.6s-3.6-1.6-3.6-3.6v-1c2,0,3.9-.9,5.4-2.2,.5,.6,1.1,1,1.8,1.3Z"/>
        <path class="uuid-9db872f8-dc44-43e5-adba-6c0421ebcb78" d="M45.9,17.4c.5,0,.9-.4,.9-.9V7.9c0-3.2,2.6-5.7,5.7-5.7s5.7,2.6,5.7,5.7v8.5c0,.5,.4,.9,.9,.9s.9-.4,.9-.9V7.9c0-4.2-3.4-7.6-7.6-7.6s-7.6,3.4-7.6,7.6v8.5c0,.5,.4,.9,.9,.9Z"/>
        <path class="uuid-9db872f8-dc44-43e5-adba-6c0421ebcb78" d="M31.5,32.8h-3.7c-.5,0-.9,.4-.9,.9s.4,.9,.9,.9h3.7c1.5,0,2.8,1.2,2.8,2.8s-1.2,2.8-2.8,2.8h-5.2c-2.8,0-5-2.3-5-5v-3c0-4.4,3.6-8,8-8h1.5c.5,0,.9-.4,.9-.9s-.4-.9-.9-.9h-1.5c-5.4,0-9.9,4.4-9.9,9.9v3c0,3.8,3.1,6.9,6.9,6.9h.5l-1.7,18.2c0,.3,0,.7,.3,.9,.2,.1,.4,.2,.6,.2s.2,0,.3,0c.3-.1,.5-.4,.6-.7l1.7-18.5h2.8c2.6,0,4.7-2.1,4.7-4.7s-2.1-4.7-4.7-4.7Z"/>
        <path class="uuid-9db872f8-dc44-43e5-adba-6c0421ebcb78" d="M37.8,8.5c0-.2-.2-.5-.4-.6-.2-.1-.5-.2-.7-.1-.2,0-.4,.2-.6,.4-1.3,2.1-3.6,3.4-6.1,3.3h-.3c-.2,0-.5,0-.6,.3-.2,.2-.3,.4-.3,.7v2c0,3,2.5,5.5,5.5,5.5s5.5-2.5,5.5-5.5v-2.8c0-.5-.4-.9-.9-.9-.6,0-1.1-.3-1.4-.8,0,0,0-.1-.1-.2,.2-.2,.3-.4,.4-.6,.1-.2,.2-.5,.1-.7Zm0,4v2c0,2-1.6,3.6-3.6,3.6s-3.6-1.6-3.6-3.6v-1c2,0,3.9-.9,5.4-2.2,.5,.6,1.1,1,1.8,1.3Z"/>
        <path class="uuid-9db872f8-dc44-43e5-adba-6c0421ebcb78" d="M27.5,20.4c.5,0,.9-.4,.9-.9V10.9c0-3.2,2.6-5.7,5.7-5.7s5.7,2.6,5.7,5.7v8.5c0,.5,.4,.9,.9,.9s.9-.4,.9-.9V10.9c0-4.2-3.4-7.6-7.6-7.6s-7.6,3.4-7.6,7.6v8.5c0,.5,.4,.9,.9,.9Z"/>
        <path class="uuid-9db872f8-dc44-43e5-adba-6c0421ebcb78" d="M12.1,34.8h-3.7c-.5,0-.9,.4-.9,.9s.4,.9,.9,.9h3.7c1.5,0,2.8,1.2,2.8,2.8s-1.2,2.8-2.8,2.8H6.9c-2.8,0-5-2.3-5-5v-3c0-4.4,3.6-8,8-8h1.5c.5,0,.9-.4,.9-.9s-.4-.9-.9-.9h-1.5c-5.4,0-9.9,4.4-9.9,9.9v3c0,3.8,3.1,6.9,6.9,6.9h.5l-1.7,16.2c0,.3,0,.7,.3,.9,.2,.1,.4,.2,.6,.2s.2,0,.3,0c.3-.1,.5-.4,.6-.7l1.7-16.5h2.8c2.6,0,4.7-2.1,4.7-4.7s-2.1-4.7-4.7-4.7Z"/>
        <path class="uuid-9db872f8-dc44-43e5-adba-6c0421ebcb78" d="M19.5,10.5c0-.2-.2-.5-.4-.6-.2-.1-.5-.2-.7-.1-.2,0-.4,.2-.6,.4-1.3,2.1-3.6,3.4-6.1,3.3h-.3c-.2,0-.5,0-.6,.3-.2,.2-.3,.4-.3,.7v2c0,3,2.5,5.5,5.5,5.5s5.5-2.5,5.5-5.5v-2.8c0-.5-.4-.9-.9-.9-.6,0-1.1-.3-1.4-.8,0,0,0-.1-.1-.2,.2-.2,.3-.4,.4-.6,.1-.2,.2-.5,.1-.7Zm-3.6,9.5c-2,0-3.6-1.6-3.6-3.6v-1c2,0,3.9-.9,5.4-2.2,.5,.6,1.1,1,1.8,1.3v2c0,2-1.6,3.6-3.6,3.6Z"/>
        <path class="uuid-9db872f8-dc44-43e5-adba-6c0421ebcb78" d="M9.1,22.4c.5,0,.9-.4,.9-.9V12.9c0-3.2,2.6-5.7,5.7-5.7s5.7,2.6,5.7,5.7v8.5c0,.5,.4,.9,.9,.9s.9-.4,.9-.9V12.9c0-4.2-3.4-7.6-7.6-7.6s-7.6,3.4-7.6,7.6v8.5c0,.5,.4,.9,.9,.9Z"/>
        <path class="uuid-9db872f8-dc44-43e5-adba-6c0421ebcb78" d="M88.7,14.6l3.7-5.6c.2-.3,.2-.7,0-1-.2-.3-.5-.5-.8-.5h-7.7v-3.1c0-.5-.4-.9-.9-.9h-7.7V.9c0-.5-.4-.9-.9-.9s-.9,.4-.9,.9V23.7l-2.4,.9c-.6,.2-1.3,.2-1.8-.2l-5.1-3.3c-.9-.7-2.4-1.8-5.1-1.8h-1c-.5,0-.9,.4-.9,.9s.4,.9,.9,.9h1c2.1,0,3.2,.8,4.1,1.4l5.1,3.3c1,.7,2.4,.8,3.5,.4l2.8-1.1c1.8-.7,3,.3,3.4,1.5,.6,1.4-.3,2.9-1.6,3.5l-5,2.3c-1,.4-2,.3-2.9-.1l-5.6-2.8c-.3-.2-.7-.1-1,0-.3,.2-.4,.6-.4,.9l3,30.1c0,.3,.3,.6,.6,.7,.3,.1,.7,0,.9-.2,.3-.2,.4-.5,.3-.9l-2.8-28.3,4,2c1.4,.7,3,.8,4.5,.2l1.3-.6v26.9c0,.5,.4,.9,.9,.9s.9-.4,.9-.9v-27.7l1.8-.8c2.3-1,3.5-3.7,2.5-5.9-.6-1.4-2.1-3-4.4-2.8v-5.6h6.7v3.1c0,.5,.4,.9,.9,.9h8.6c.3,0,.7-.2,.8-.5,.2-.3,.1-.7,0-1l-3.7-5.6Zm-1.9,.5l3.1,4.7h-5.9V9.5h5.9l-3.1,4.7c-.2,.3-.2,.7,0,1Zm-4.7-9.8V15.7h-6.7V5.4h6.7Z"/>
      </g>
    </g>
  </g>
</svg>