<?xml version="1.0" encoding="UTF-8"?>
<svg xmlns="http://www.w3.org/2000/svg" viewBox="0 0 63.4 63.4">
  <defs>
    <style>
      .uuid-9c81042d-c205-44df-b5bb-98900e60a9b2 {
        fill: #fff;
      }
    </style>
  </defs>
  <g id="uuid-2ecd2396-5181-42d8-b17f-8cdee6e08b14" data-name="Calque 1"/>
  <g id="uuid-dd47766e-8b5c-4612-900d-56e236b430e9" data-name="Calque 2">
    <g id="uuid-8e011de8-b58b-4387-a533-e9cf3d34c3dd" data-name="Layer 1">
      <path class="uuid-9c81042d-c205-44df-b5bb-98900e60a9b2" d="M62.4,47.7c-.4-.4-.8-.6-1.3-.7,.1-.4,.2-.7,.2-1.1,0-.8-.4-1.6-.9-2.1-.2-.2-.5-.4-.8-.6v-2.2c.4-.2,.8-.4,1.1-.7,.5-.6,.9-1.3,.9-2.1v-3.4c0-.8-.4-1.6-1-2.1-.3-.3-.7-.5-1-.7,.1-.7,.4-1.4,.7-2.1,.5-1.4,1.1-2.9,1.1-4.9v-6.4c-.1,0,0,0,0,0l-.2-9.4h0c0-.9-.4-1.6-.9-2.1-.5-.5-1.3-.9-2.1-.8h0s0,0-.1,0c-.3,0-.6,0-.9,.2v-.2c0-.8-.4-1.6-.9-2.1-.5-.5-1.2-.8-2-.8h0c-.4,0-.7,0-1,.2v-.3h0s0,0,0-.1c0-.8-.4-1.5-.9-2-.5-.5-1.3-.9-2.1-.8h0s0,0-.1,0c-.8,0-1.5,.4-2,.9-.3,.4-.6,.8-.7,1.3-.4-.1-.7-.2-1.1-.2-.8,0-1.6,.4-2.1,.9-.2,.2-.4,.5-.5,.8h-2.2c-.2-.4-.4-.8-.7-1.1-.6-.5-1.3-.9-2.1-.8h-3.4c-.8,0-1.6,.4-2.1,1-.3,.3-.5,.7-.6,1-.7-.1-1.4-.4-2.1-.7-1.4-.6-2.9-1.1-4.9-1.1h-7.4l-8.4,.3c-.8,0-1.6,.4-2.1,.9s-.9,1.3-.8,2.1c0,.4,0,.7,.2,1h-.2c-.8,0-1.6,.4-2.1,.9-.5,.6-.9,1.3-.9,2.1,0,.4,0,.7,.2,1h-.3c-.8,0-1.6,.4-2.1,.9-.5,.6-.9,1.3-.8,2.1h0s0,0,0,.1c0,.8,.4,1.5,.9,2,.4,.4,.8,.6,1.3,.7-.1,.3-.2,.7-.2,1h0c0,.9,.4,1.7,.9,2.2,.2,.2,.5,.4,.8,.6v2.2c-.4,.2-.8,.4-1.1,.7-.5,.5-.9,1.3-.8,2.1h0v3.4c0,.8,.4,1.6,1,2.1,.3,.3,.6,.5,1,.7-.1,.7-.4,1.4-.7,2.1-.6,1.4-1.1,2.9-1.1,4.9v7.4h.1v8.4c.2,.8,.5,1.6,1.1,2.1,.6,.5,1.3,.9,2.1,.8,.4,0,.7,0,1-.2v.2c0,.8,.4,1.6,.9,2.1,.6,.5,1.3,.9,2.1,.8,.4,0,.7,0,1-.2v.4c0,.8,.4,1.6,.9,2.1,.6,.5,1.3,.9,2.1,.8,.8,0,1.6-.4,2.1-.9,.3-.4,.6-.8,.7-1.3,.3,.1,.7,.2,1,.2h0c.8,0,1.6-.4,2.1-.9,.2-.2,.4-.5,.6-.8h2.2c.2,.4,.4,.8,.7,1.1,.5,.5,1.3,.9,2.1,.8h3.4c.8,0,1.6-.4,2.1-1,.3-.3,.5-.7,.6-1,.7,.1,1.4,.4,2.1,.7,1.4,.5,2.9,1.1,4.9,1.1h7.4c0-.1,0-.1,0-.1l8.4-.2c.8,0,1.6-.4,2.1-.9,.5-.5,.9-1.3,.8-2.1,0-.4,0-.7-.2-1h.2c.8,0,1.6-.4,2.1-.9,.5-.5,.8-1.2,.8-2h0c0-.5,0-.8-.2-1.1h.4c.8,0,1.6-.4,2.1-.9,.5-.6,.9-1.3,.8-2.1h0c0-.9-.4-1.6-.9-2.1Zm-15.5-6.4l10.6-.2v1.7l-12.9,.2,.4-.3c.7-.5,1.4-.9,1.9-1.5Zm12.2-2.5c-.2,.2-.4,.3-.7,.3l-10.1,.2c.1-.3,.2-.6,.3-.9,.2-.9,.1-1.8-.3-2.5-.4-.8-1.2-1-2-.9-.6,0-1.1,.3-1.6,.6-.8,.5-1.8,.9-2.8,1.3v-2.1c0-.3,0-.5,.3-.7,.2-.2,.4-.3,.7-.3l15.4-.3c.3,0,.5,0,.7,.3,.2,.2,.3,.4,.3,.7v3.4c0,.3,0,.5-.2,.7Zm-28,3.1c-.2-.4-.4-.8-.7-1-.6-.5-1.3-.9-2.1-.9h-2.9c-.2-.5-.4-1-.6-1.5-.5-1.3-.9-2.3-1.2-3-.3-.5-.5-1-.8-1.5-.6-1-1.1-1.9-1.3-3,.4-.2,.8-.4,1-.7,.5-.6,.9-1.3,.8-2.1v-2.9c.5-.2,1-.4,1.5-.6,1.3-.5,2.3-.9,3-1.2,.5-.2,1-.5,1.4-.8,1-.6,1.9-1.1,3-1.3,.2,.4,.4,.7,.7,1,.5,.5,1.3,.9,2.1,.8h2.9c.2,.5,.4,1,.6,1.5,.5,1.3,.9,2.3,1.3,3,.2,.5,.5,1,.8,1.4,.6,1,1.1,1.9,1.3,3-.4,.2-.8,.4-1,.7-.5,.6-.9,1.3-.8,2.1v2.9c-.5,.2-1,.4-1.5,.6-1.3,.5-2.3,.9-3,1.3-.5,.2-1,.5-1.4,.8-1,.6-1.9,1.1-3,1.3ZM44.9,5.1c0-.3,0-.5,.3-.7,.2-.2,.4-.3,.7-.3,.3,0,.5,0,.7,.3,.2,.2,.3,.4,.3,.7V13h.1v5.6c.1,.6,.6,1,1.1,1,.6,0,1-.5,1-1l-.3-15.6c0-.3,0-.5,.3-.7,.2-.2,.4-.3,.6-.3h0c.3,0,.5,0,.7,.3,.2,.2,.3,.4,.3,.6h0l.3,15.7h0v.7c0,.6,.5,1,1,1,.6,0,1-.5,1-1l-.2-13.2c0-.3,.1-.5,.3-.7,.2-.2,.4-.3,.7-.3h0c.3,0,.5,.1,.7,.3,.2,.2,.3,.4,.3,.7v7.6l.2,4.8h0v1.4c0,.6,.5,1,1,1,.5,0,1-.5,1-1l-.2-10.8c0-.3,.1-.5,.3-.7,.2-.2,.4-.3,.6-.3h0c.3,0,.5,0,.7,.3,.2,.2,.3,.4,.3,.6h0l.2,9.4h0v6.4c.1,1.6-.4,2.9-.9,4.2-.3,.9-.7,1.8-.8,2.7l-13.6,.2c-.2-1.5-.9-2.6-1.6-3.8-.2-.4-.5-.8-.8-1.3-.3-.6-.7-1.6-1.2-2.8-.8-2-1.8-4.6-2.9-6.5-.2-.3-.4-.7-.4-1,.2,0,.5,0,.9,0,.5,.1,1,.4,1.5,.8,.6,.5,1.1,1.3,1.7,2.1,.3,.5,.6,.9,.9,1.3h0c.7,.8,1.1,1.4,1.8,1.4,.9,0,1.3-.8,1.2-2.7l-.2-14.4Zm-7.8,11.5c0,0-.2,0,0,0,0,0,0,0,0,0,0,0,0,0,0,0Zm6.1,2.2l-.3-.4c-.5-.7-.9-1.4-1.5-2l-.2-10.5h1.7l.2,12.9Zm-9.1-14.5c.2-.2,.4-.3,.7-.3h3.4c.3,0,.5,0,.7,.2,.2,.2,.3,.4,.3,.7l.2,10.1c-.3-.1-.6-.2-.9-.3-.9-.2-1.8-.1-2.5,.3-.8,.5-1,1.2-.9,2,0,.6,.4,1.1,.6,1.6,.5,.8,.9,1.8,1.4,2.8h-2.1c-.3,0-.5,0-.7-.2-.2-.2-.3-.4-.3-.7h0l-.3-15.4c0-.3,0-.5,.3-.7ZM2,13.5h0c0-.3,.1-.5,.3-.7,.2-.2,.4-.3,.7-.3l15.6-.3h.7c.5,0,1-.5,1-1,0-.5-.5-1-1-1l-13.1,.2c-.3,0-.5,0-.7-.3-.2-.2-.3-.4-.3-.7s0-.5,.3-.7c.2-.2,.4-.3,.7-.3h3c0,0,0,0,.1,0l9.4-.2s0,0,0,0h1.4c.6,0,1-.5,1-1,0-.6-.5-1-1-1h-6l-4.8,.2c-.3,0-.5,0-.7-.3-.2-.2-.3-.4-.3-.7s.1-.5,.3-.7c.2-.2,.4-.3,.7-.3l9.4-.2h6.4c1.6-.1,2.9,.4,4.2,.9,.9,.4,1.8,.7,2.7,.8l.2,13.6c-1.5,.2-2.6,.9-3.8,1.6-.4,.3-.8,.5-1.3,.8-.6,.3-1.6,.7-2.8,1.2-2,.8-4.6,1.8-6.5,2.9-.3,.2-.7,.3-1,.4,0-.2,0-.5,0-.9,.1-.5,.4-1,.8-1.5,.5-.6,1.3-1.1,2.1-1.7,.5-.3,.9-.6,1.3-1h0c.8-.7,1.4-1.1,1.4-1.8,0-.9-.8-1.3-2.7-1.2l-14.4,.3c-.3,0-.5,0-.7-.3-.2-.2-.3-.4-.3-.7h0c0-.3,.1-.6,.3-.7,.2-.2,.4-.3,.7-.3h8l5.6-.2c.6,0,1-.5,1-1,0-.6-.5-1-1-1h-6.6l-7,.2s0,0,0,0h-1.9c-.3,0-.5,0-.7-.3-.2-.2-.3-.4-.3-.6h0Zm14.6,12.8s0,0,0,0c0,0,0,.1,0,0Zm-.3-4.4l-10.5,.2v-1.7l12.9-.2-.4,.3c-.7,.5-1.4,.9-2,1.5Zm-12.5,3.2c0-.3,.1-.5,.3-.7,.2-.2,.4-.3,.7-.3h0l10.1-.2c-.1,.3-.2,.6-.3,.9-.2,.9-.1,1.8,.3,2.4,.5,.8,1.2,1,2,.9,.6,0,1.1-.3,1.6-.6,.8-.5,1.8-.9,2.8-1.3v2.1c0,.3,0,.5-.3,.7-.2,.2-.4,.3-.7,.3l-15.4,.3c-.3,0-.5-.1-.7-.3-.2-.2-.3-.4-.3-.7v-3.4h0Zm14.6,33c0,.3-.1,.5-.3,.7-.2,.2-.4,.3-.7,.3h0c-.3,0-.5-.1-.7-.3-.2-.2-.3-.4-.3-.7v-8h-.1v-5.6c-.1-.5-.6-1-1.1-1-.6,0-1,.5-1,1v5.6h0v8c.1,0,.1,0,.1,0v1.9c0,.3,0,.5-.3,.7-.2,.2-.4,.3-.7,.3-.3,0-.5-.1-.7-.3-.2-.2-.3-.4-.3-.7l-.3-15.6h0v-.7c0-.6-.5-1-1-1-.6,0-1,.5-1,1l.2,13.1c0,.3,0,.5-.3,.7-.2,.2-.4,.3-.7,.3-.3,0-.5-.1-.7-.3-.2-.2-.3-.4-.3-.7v-7.9l-.2-4.6h0v-1.4c0-.5-.5-1-1-1-.6,0-1,.5-1,1v1.4s0,0,0,0l.2,9.4c0,.3,0,.5-.3,.7-.2,.2-.4,.3-.7,.3-.3,0-.5-.1-.7-.3-.2-.2-.3-.4-.3-.7l-.2-8.3s0,0,0,0v-7.4c-.2-1.6,.4-2.9,.8-4.2,.4-.9,.7-1.8,.8-2.7l13.6-.2c.2,1.5,.9,2.6,1.6,3.8,.3,.4,.5,.8,.8,1.3,.3,.6,.7,1.6,1.2,2.8,.8,2,1.8,4.6,2.9,6.5,.2,.3,.3,.7,.4,1-.2,0-.5,0-.9,0-.5-.1-1.1-.4-1.5-.8-.6-.5-1.1-1.3-1.7-2.1-.3-.5-.6-.9-.9-1.3h0c-.7-.8-1.1-1.4-1.8-1.4-1,0-1.3,.8-1.2,2.7l.3,14.4Zm1.8-13.7l.3,.4c.5,.7,.9,1.4,1.5,2l.2,10.6h-1.7l-.2-12.9Zm9.1,14.5c-.2,.2-.4,.3-.7,.3h-3.4c-.3,0-.5,0-.7-.2-.2-.2-.3-.4-.3-.6l-.2-10.1c.3,.1,.6,.2,.9,.3,.9,.2,1.7,.1,2.4-.3,.8-.5,1-1.2,.9-2,0-.6-.3-1.1-.6-1.6-.5-.8-.9-1.8-1.3-2.8h2.1c.3,0,.5,0,.7,.2,.2,.2,.3,.4,.3,.7l.3,15.4h0c0,.3-.1,.5-.3,.7Zm-3.1-12.3s0,0,0,0c0,0,.2,0,0,0,0,0,0,0,0,0,0,0,0,0,0,0Zm35.1,3h0c0,.3,0,.6-.3,.7-.2,.2-.4,.3-.7,.3l-15.6,.3h-.7c-.6,0-1,.5-1,1,0,.6,.5,1,1,1h6.5l6.6-.2h0c.2,0,.5,.1,.7,.3,.2,.2,.3,.4,.3,.7h0c0,.3-.1,.6-.3,.7-.2,.2-.4,.3-.7,.3h0l-13.8,.2c-.6,0-1,.5-1,1s.5,1,1,1h5.3l5.5-.2c.3,0,.5,0,.7,.3,.2,.2,.3,.4,.3,.7,0,.3,0,.5-.3,.7-.2,.2-.4,.3-.7,.3l-9.4,.2h-6.4c-1.6,.1-2.9-.4-4.2-.9-.9-.4-1.8-.7-2.7-.8l-.2-13.6c1.5-.2,2.6-.9,3.8-1.6,.4-.2,.9-.5,1.3-.8,.6-.3,1.6-.7,2.8-1.2,2-.8,4.6-1.8,6.5-2.9,.3-.2,.7-.3,1-.4,0,0,0,0,0,0,0,0,0-.2,0-.1h0c0,.3,0,.7,0,1-.1,.5-.4,1-.8,1.5-.5,.6-1.3,1.1-2.1,1.7-.5,.3-.9,.6-1.3,1-.8,.7-1.4,1.1-1.4,1.8,0,.9,.8,1.3,2.7,1.2l14.4-.3c.3,0,.5,0,.7,.3,.2,.2,.3,.4,.3,.7s0,.5-.3,.7c-.2,.2-.4,.3-.7,.3l-13.7,.2c-.6,0-1,.5-1,1,0,.6,.5,1,1,1l15.6-.3c.3,0,.5,0,.7,.3,.2,.2,.3,.4,.3,.6h0Z"/>
    </g>
  </g>
</svg>