<?xml version="1.0" encoding="UTF-8"?>
<svg xmlns="http://www.w3.org/2000/svg" viewBox="0 0 65 65.8">
  <defs>
    <style>
      .uuid-99641cb1-e6eb-455e-988e-f3f030105bd6 {
        fill: #fff;
      }
    </style>
  </defs>
  <g id="uuid-c1a42a15-30e8-4c1a-b992-e340fa0fa6cb" data-name="Calque 1"/>
  <g id="uuid-41c6d061-5762-4610-95fe-ba95d4bfc553" data-name="Calque 2">
    <g id="uuid-8168ec22-1e66-4a7d-8bc2-78be59144dbf" data-name="Layer 1">
      <g>
        <path class="uuid-99641cb1-e6eb-455e-988e-f3f030105bd6" d="M32.4,9.1c.5,0,.9-.4,.9-.9V.9c0-.5-.4-.9-.9-.9s-.9,.4-.9,.9v7.3c0,.5,.4,.9,.9,.9Z"/>
        <path class="uuid-99641cb1-e6eb-455e-988e-f3f030105bd6" d="M64.1,64h-10.8c.3-.5,.4-1,.5-1.7h0l3.4-9.8h0c.1,0,.3-.1,.4-.2h0s0,0,.1,0c0,0,0,0,0,0,0,0,.1-.1,.2-.2,0,0,0-.1,.1-.2,0,0,0,0,0,0,0,0,0,0,0,0,0,0,0,0,0-.1h0c.2-.3,.3-.6,.3-1h0c0-.2,0-.2,0-.3s0-.2,0-.2l-3-13.1,3.8,3.8c1,1,2.2,1.3,3.4,.9,.4-.2,.8-.4,1.1-.7,.3-.3,.6-.7,.7-1.1,.4-1.2,0-2.4-.9-3.5l-7.5-7.5c-.4-.4-.9-.8-1.3-1-.6-.3-1.3-.5-2-.5h-7l-5-4.9-2-7.4c-.2-.8-.7-1.4-1.4-1.8h0c-.7-.4-1.5-.5-2.2-.3-.8,.2-1.4,.7-1.8,1.4h0c-.4,.8-.5,1.6-.3,2.3l2.2,8.3c0,.4,.3,.7,.5,1h0c.2,.3,.4,.5,.7,.7h0l5.3,5.3,.3,19.1c0,.6,.4,1.2,.8,1.6,.2,.2,.5,.4,.7,.5h0l3.5,9.2h0c0,.6,.3,1.2,.5,1.7H17.1c.3-.5,.5-1.1,.5-1.7h0l3.5-9.1h0c.2-.2,.5-.4,.7-.6,.4-.4,.7-1,.8-1.6l.3-19.1,5.3-5.3h0c.3-.2,.5-.4,.7-.7h0c.2-.3,.4-.6,.5-1l2.2-8.3c.2-.7,.1-1.5-.3-2.2h0c-.4-.8-1-1.3-1.8-1.5-.7-.2-1.5-.1-2.2,.3h0c-.7,.4-1.2,1.1-1.4,1.9l-2,7.4-5,4.9h-7c-.7,0-1.4,.2-2,.5-.4,.2-.9,.6-1.3,1l-7.5,7.5c-1,1-1.4,2.3-.9,3.5,.1,.4,.4,.8,.7,1.1,.3,.3,.7,.5,1.1,.7,1.2,.4,2.4,.1,3.4-.9l3.8-3.8-3,13.1c0,0,0,.2,0,.2s0,.1,0,.2h0c0,.4,.1,.7,.3,1h0c0,0,0,.1,0,.2,0,0,0,0,0,0,0,0,0,0,0,0,0,0,0,.1,.1,.2,0,0,.1,.1,.2,.2,0,0,0,0,0,0,0,0,0,0,.1,0h0c.1,0,.3,.2,.4,.2h0l3.4,9.8h0c0,.7,.3,1.2,.5,1.7H1.8c-.5,0-.9,.4-.9,.9s.4,.9,.9,.9h62.3c.5,0,.9-.4,.9-.9s-.4-.9-.9-.9Zm-14.2-.2c-.5-.3-.8-.9-.9-1.7l-3.5-9.8h0c0-.5-.4-.8-.9-.8s-.3,0-.4-.2c-.1-.1-.2-.4-.3-.6h0l-.3-19.4c0-.2,0-.4-.2-.5l-5.6-5.6h-.2c-.1-.2-.2-.3-.3-.4,0-.1-.2-.3-.2-.4l-2.2-8.3c0-.3,0-.6,.1-1,.2-.3,.5-.5,.8-.6,.3,0,.6,0,.9,0h0c.3,.2,.5,.5,.6,.8l2,7.6c0,.2,.1,.3,.2,.4l5.3,5.3h0c.2,.2,.4,.3,.7,.3h0c1.6,0,3.2,0,4.8,0,.8,0,1.6,0,2.4,0s.8,0,1.2,.3c.3,.1,.6,.4,.9,.7l7.5,7.5c.5,.5,.7,1.1,.5,1.6,0,.1-.1,.3-.3,.4,0,.1-.2,.2-.4,.3-.5,.2-1.1,0-1.5-.5l-5.8-5.8c-.2-.2-.5-.3-.8-.3-.2,0-.4,.2-.6,.4-.1,.2-.2,.4-.1,.7l3.5,15.8h0c0,.2,0,.3-.2,.4-.1,.1-.3,.2-.5,.2-.5,0-.8,.3-.9,.8h0l-3.4,10.4c0,.8-.4,1.4-.9,1.7-.2,.1-.4,.2-.6,.2s-.4,0-.6-.2Zm-36.2,0c-.5-.3-.8-.9-.9-1.7l-3.4-10.4h0c0-.5-.4-.8-.9-.8s-.3,0-.5-.2c0,0-.2-.2-.2-.4h0l3.5-15.9c0-.2,0-.5-.1-.7-.1-.2-.3-.3-.6-.4-.3,0-.6,0-.8,.3l-5.8,5.8c-.5,.5-1,.7-1.5,.5-.2,0-.3-.2-.4-.3-.1-.1-.2-.3-.3-.4-.2-.5,0-1.1,.5-1.6l7.5-7.5c.3-.3,.6-.6,.9-.7,.3-.2,.7-.3,1.2-.3,.8,0,1.6,0,2.4,0,1.6,0,3.2,0,4.8,0h0c.3,0,.5,0,.7-.2h0l5.3-5.4c.1-.1,.2-.3,.2-.4l2-7.6c0-.3,.3-.6,.6-.7h0c.3-.2,.6-.2,.9-.1,.3,0,.6,.3,.8,.6,.2,.3,.2,.6,.1,1l-2.2,8.3c0,.1,0,.3-.2,.4-.1,.1-.2,.2-.3,.3h-.2l-5.6,5.7c-.2,.2-.2,.3-.2,.5l-.3,19.4h0c0,.3-.1,.5-.3,.6-.1,.1-.2,.2-.4,.2-.5,0-.9,.3-.9,.8h0l-3.5,9.8c-.1,.8-.4,1.4-.9,1.7-.2,.1-.4,.2-.6,.2s-.4,0-.6-.2Z"/>
        <path class="uuid-99641cb1-e6eb-455e-988e-f3f030105bd6" d="M36.9,10.3c.2,.1,.4,.2,.7,0,.2,0,.4-.2,.5-.4h0l3.7-6.4c.1-.2,.1-.4,0-.7,0-.2-.2-.4-.4-.5-.1,0-.3-.1-.4-.1-.3,0-.6,.2-.8,.4l-3.7,6.4c-.2,.4,0,1,.3,1.2Z"/>
        <path class="uuid-99641cb1-e6eb-455e-988e-f3f030105bd6" d="M40.1,13.5c.2,.4,.8,.6,1.2,.3l6.4-3.7c.2-.1,.4-.3,.4-.5,0-.2,0-.5,0-.7-.1-.2-.3-.3-.5-.4,0,0-.1,0-.2,0-.2,0-.3,0-.4,.1l-6.4,3.7c-.4,.3-.6,.8-.3,1.2Z"/>
        <path class="uuid-99641cb1-e6eb-455e-988e-f3f030105bd6" d="M26.8,10c.1,.2,.3,.4,.6,.4,.2,0,.4,0,.6,0,.4-.2,.6-.8,.3-1.2l-3.7-6.4c-.1-.2-.3-.3-.5-.4,0,0-.2,0-.2,0-.2,0-.3,0-.4,.1-.2,.1-.4,.3-.4,.5,0,.2,0,.5,0,.6l3.7,6.4Z"/>
        <path class="uuid-99641cb1-e6eb-455e-988e-f3f030105bd6" d="M17.2,10.2l6.4,3.7c.2,.1,.4,.1,.7,0,.2,0,.4-.2,.5-.4,.1-.2,.2-.4,0-.6,0-.2-.2-.4-.4-.6l-6.4-3.7c-.1,0-.3-.1-.4-.1s-.1,0-.2,0c-.2,0-.4,.2-.5,.4-.1,.2-.2,.4,0,.7,0,.2,.2,.4,.4,.5Z"/>
        <path class="uuid-99641cb1-e6eb-455e-988e-f3f030105bd6" d="M62.6,59.9c-.1,.1-.3,.2-.5,.3-.5,.2-1.2,0-1.7-.6l-4-4-.6,1.9,3.4,3.4c1,1,2.3,1.4,3.5,1.1,.4-.1,.8-.4,1.2-.7,.3-.3,.6-.7,.8-1.2,.4-1.2,0-2.6-.9-3.7l-4.7-5.3h0c0,.2-.1,.4-.2,.5h0c0,0,0,.1,0,.2h0c0,0,0,.2-.1,.2,0,0,0,0,0,.1,0,0,0,0,0,0,0,0-.1,.1-.2,.2,0,0-.1,.1-.2,.2h0c0,0,0,0,0,0l4.4,5c.6,.7,.8,1.4,.6,2,0,.2-.2,.4-.3,.5Z"/>
        <path class="uuid-99641cb1-e6eb-455e-988e-f3f030105bd6" d="M54.2,18.1c-1.2-.4-2.3-1.2-3.1-2.3l-.3-.5c-.2-.3-.5-.4-.8-.4-.3,0-.6,.2-.7,.4h0c-.7,1.4-1.8,2.3-3.1,2.7-.2,0-.4,.2-.5,.5-.1,.2-.1,.5,0,.7,0,.2,.2,.4,.5,.5,.2,.1,.5,.1,.7,0,1.3-.4,2.4-1.3,3.3-2.4,1,1.2,2.2,2,3.6,2.4,0,0,.2,0,.3,0,.4,0,.7-.3,.9-.6,.1-.5-.1-1-.6-1.1Z"/>
        <path class="uuid-99641cb1-e6eb-455e-988e-f3f030105bd6" d="M44.6,15h0c-.9,1.2-1.4,2.6-1.4,4v2.7c0,.2,0,.4,0,.6,0,.4,.2,.9,.4,1.3,0,.2,.3,.4,.5,.5,.2,0,.5,0,.7,0,.5-.2,.7-.7,.5-1.2-.1-.3-.2-.5-.2-.8,0-.1,0-.3,0-.4v-2.7c0-1.1,.4-2.1,1-2.9h0c1-1.3,2.5-2,4.2-2s3.3,.8,4.3,2.1c.6,.8,.9,1.8,.9,2.8v2.7s0,0,0,.1c0,.4-.1,.8-.3,1.2-.2,.4,0,1,.4,1.2,.1,0,.3,0,.4,0,.3,0,.6-.2,.8-.5,.3-.6,.5-1.2,.5-1.9,0,0,0-.1,0-.2v-2.7c0-1.4-.4-2.7-1.3-3.8-1.3-1.8-3.5-2.8-5.7-2.8s-4.3,1-5.6,2.6Z"/>
        <path class="uuid-99641cb1-e6eb-455e-988e-f3f030105bd6" d="M46.7,20.3c-.5,0-.9,.4-.9,.9v.2c0,2.4,2,4.4,4.4,4.4s4.4-2,4.4-4.4v-.2c0-.5-.4-.9-.9-.9s-.9,.4-.9,.9v.2c0,1.4-1.2,2.6-2.6,2.6s-2.6-1.2-2.6-2.6v-.2c0-.5-.4-.9-.9-.9Z"/>
        <path class="uuid-99641cb1-e6eb-455e-988e-f3f030105bd6" d="M2.2,61.9c1.2,.3,2.5,0,3.5-1.1l3.4-3.4-.6-1.9-4,4c-.5,.6-1.2,.8-1.7,.6-.2,0-.4-.2-.5-.3-.2-.1-.3-.3-.3-.5-.2-.6,0-1.3,.6-2l4.4-5s0,0,0,0h0c0,0-.1-.1-.2-.2,0,0-.1-.1-.2-.2,0,0,0,0,0,0,0,0,0,0,0-.1,0,0-.1-.2-.1-.2h0c0,0,0-.1,0-.2h0c0-.2-.1-.3-.2-.5h0l-4.7,5.3c-1,1.2-1.3,2.5-.9,3.7,.2,.5,.4,.9,.8,1.2,.4,.3,.8,.6,1.2,.7Z"/>
        <path class="uuid-99641cb1-e6eb-455e-988e-f3f030105bd6" d="M19.3,19.2c0-.2,0-.5,0-.7-.1-.2-.3-.4-.5-.5-1.2-.4-2.3-1.4-3.1-2.6h0c-.2-.4-.4-.6-.7-.6-.3,0-.6,.1-.8,.4l-.3,.5c-.8,1.1-1.8,2-3.1,2.3-.5,.1-.7,.6-.6,1.1,.1,.4,.5,.6,.9,.6s.2,0,.3,0c1.4-.4,2.6-1.3,3.6-2.4,.9,1.1,2.1,1.9,3.3,2.4,.2,0,.5,0,.7,0,.2-.1,.4-.3,.5-.5Z"/>
        <path class="uuid-99641cb1-e6eb-455e-988e-f3f030105bd6" d="M8.1,23.9c.2,.3,.5,.5,.8,.5s.3,0,.4,0c.4-.2,.6-.8,.4-1.2-.2-.4-.3-.8-.3-1.2,0,0,0,0,0-.1v-2.7c0-1,.3-2,.9-2.8,1-1.3,2.6-2.1,4.3-2.1s3.2,.7,4.2,2h0c.7,.9,1,1.9,1,2.9v2.7c0,.1,0,.3,0,.4,0,.3-.1,.5-.2,.8-.2,.5,0,1,.5,1.2,.2,0,.5,0,.7,0,.2,0,.4-.3,.5-.5,.2-.4,.3-.9,.4-1.3,0-.2,0-.4,0-.6v-2.7c0-1.5-.5-2.8-1.4-4h0c-1.3-1.7-3.4-2.6-5.6-2.6s-4.4,1.1-5.7,2.8c-.8,1.1-1.3,2.5-1.3,3.8v2.7c0,0,0,.1,0,.2,0,.7,.2,1.3,.5,1.9Z"/>
        <path class="uuid-99641cb1-e6eb-455e-988e-f3f030105bd6" d="M11.2,20.3c-.5,0-.9,.4-.9,.9v.2c0,2.4,2,4.4,4.4,4.4s4.4-2,4.4-4.4v-.2c0-.5-.4-.9-.9-.9s-.9,.4-.9,.9v.2c0,1.4-1.2,2.6-2.6,2.6s-2.6-1.2-2.6-2.6v-.2c0-.5-.4-.9-.9-.9Z"/>
      </g>
    </g>
  </g>
</svg>