<?xml version="1.0" encoding="UTF-8"?>
<svg xmlns="http://www.w3.org/2000/svg" viewBox="0 0 66 60.1">
  <defs>
    <style>
      .uuid-1a056e49-d2c8-485c-843b-9ee66824d3b9 {
        fill: #fff;
      }
    </style>
  </defs>
  <g id="uuid-ad03aba5-f366-42a8-9919-9df42f869d13" data-name="Calque 1"/>
  <g id="uuid-64eb309a-d829-46d7-8ee4-53ee838b85e7" data-name="Calque 2">
    <g id="uuid-01838083-3ea4-4f46-9804-3c4da30216a5" data-name="Layer 1">
      <g>
        <path class="uuid-1a056e49-d2c8-485c-843b-9ee66824d3b9" d="M42.9,23c.5,0,.9-.4,.9-.9,0-2.9-1.1-5.5-3.1-7.6-2-2-4.7-3.1-7.6-3.1s-5.6,1.1-7.6,3.1c-2,2-3.1,4.7-3.1,7.6s.4,.9,.9,.9,.9-.4,.9-.9c0-2.4,.9-4.7,2.6-6.4,1.7-1.7,3.9-2.6,6.3-2.6s4.7,.9,6.4,2.6,2.6,4,2.6,6.4,.4,.9,.9,.9Z"/>
        <path class="uuid-1a056e49-d2c8-485c-843b-9ee66824d3b9" d="M11.8,23c.5,0,.9-.4,.9-.9v-2.5c0-.1,0-.3,.2-.4,.1-.1,.2-.2,.4-.2h3c.4,0,.8-.3,.8-.7,.2-.8,.5-1.7,.8-2.5,.3-.8,.8-1.6,1.2-2.4,.2-.3,.2-.8-.1-1.1l-2.1-2.1c0,0-.1-.2-.1-.4s0-.3,.2-.4l3.5-3.5c.1-.2,.4-.2,.6,0h0l2.2,2.2c.3,.3,.8,.3,1.1,0,.8-.5,1.5-.9,2.4-1.2,.8-.3,1.7-.6,2.6-.8,.4,0,.7-.4,.7-.8V2.3c0-.1,0-.3,.2-.4,.1-.1,.2-.2,.4-.2h5c.1,0,.3,0,.4,.1h0c0,.2,.1,.3,.1,.4v3c0,.4,.3,.8,.7,.8,.9,.2,1.7,.5,2.5,.8,.8,.4,1.6,.8,2.4,1.2,.3,.2,.8,.2,1.1-.1l2.1-2.1c.1-.1,.2-.2,.4-.2s.3,0,.4,.2l3.5,3.5c.1,.1,.2,.2,.2,.4s0,.3-.2,.4l-2.1,2.1c-.3,.3-.3,.8-.1,1.1,.5,.7,.9,1.5,1.2,2.4,.3,.8,.6,1.7,.8,2.6,0,.4,.4,.7,.8,.7h3c.2,0,.3,0,.4,.2s.2,.2,.2,.4v2.5c0,.5,.4,.9,.9,.9s.9-.4,.9-.9v-2.5c0-.6-.2-1.2-.7-1.6-.4-.4-1-.7-1.6-.7h-2.3v-.2c-.2-.7-.5-1.3-.7-2-.3-.6-.6-1.2-.9-1.9v-.2l1.6-1.7c.4-.4,.7-1,.7-1.6s-.2-1.2-.7-1.6l-3.5-3.5c-.9-.9-2.3-.9-3.2,0l-1.7,1.7h-.2c-.6-.4-1.3-.8-1.9-1-.7-.3-1.3-.5-2-.7h-.2V2.3c0-.6-.2-1.1-.6-1.6h0c-.4-.5-1-.7-1.6-.7h-5c-.6,0-1.2,.2-1.6,.7l-.2,.2-.2,.3c-.2,.3-.3,.7-.3,1.1v2.4h-.2c-.7,.2-1.4,.5-2,.7-.6,.3-1.3,.6-1.9,.9h-.2l-1.7-1.6c-.8-.8-2.4-.9-3.2,0l-3.5,3.5c-.4,.4-.7,1-.7,1.6s.2,1.2,.7,1.6l1.7,1.7v.2c-.4,.6-.7,1.3-1,1.9-.3,.7-.5,1.3-.7,2v.2h-2.4c-.6,0-1.1,.2-1.5,.6h0c-.4,.5-.7,1.1-.7,1.7v2.5c0,.5,.4,.9,.9,.9Z"/>
        <path class="uuid-1a056e49-d2c8-485c-843b-9ee66824d3b9" d="M46.3,48.2c-1.7-1.6-4-2.9-6.7-3.6h-.2c-.2,0-.5,0-.7,.1-.8,.7-1.7,1.2-2.7,1.5-2,.7-4.1,.7-6,0-1-.4-1.8-.9-2.6-1.5-.2-.2-.4-.2-.6-.2s-.1,0-.2,0c-2.8,.7-5.1,1.9-6.8,3.6-1.8,1.7-2.8,3.8-2.8,5.9v.9c0,.3,.1,.5,.3,.6,3.4,2.8,9.3,4.5,15.8,4.5s12.3-1.7,15.7-4.5c.2-.2,.3-.4,.3-.7v-.9c0-2-1-4.1-2.8-5.9h0Zm1.2,6.4h0c-3.1,2.5-8.5,3.9-14.3,3.9s-11.2-1.4-14.4-3.9h0v-.6c0-1.6,.8-3.2,2.3-4.7,1.4-1.4,3.4-2.4,5.6-3h.2c.9,.7,1.8,1.2,2.7,1.5,2.3,.8,4.8,.8,7.1,0,.9-.3,1.9-.8,2.7-1.5h.2c2.2,.6,4.1,1.6,5.6,3,1.5,1.4,2.3,3.1,2.3,4.7v.5Z"/>
        <path class="uuid-1a056e49-d2c8-485c-843b-9ee66824d3b9" d="M63.6,45.3c-1.5-1.5-3.6-2.5-5.9-3.1-.3,0-.5,0-.7,.2-.7,.6-1.4,1-2.3,1.3-1.5,.6-3.5,.6-5.1,0-.8-.3-1.5-.7-2.2-1.3-.2-.2-.5-.3-.8-.2-.2,0-.3,0-.5,.1-.1,0-.3,0-.4,.1h-.1c-.2,.1-.3,.2-.4,.4-.1,.2-.1,.4,0,.6s.2,.4,.4,.5c2.1,1.3,3.8,2.8,4.9,4.6,1.1,1.7,1.7,3.6,1.7,5.5v.9c0,.2,0,.4,.3,.6,.2,.2,.4,.2,.6,.2,2.6,0,5.1-.4,7.4-1.1,2.2-.7,4.1-1.6,5.5-2.8,.1-.1,.3-.3,.3-.7v-.8c0-1.7-.9-3.6-2.5-5.1Zm.8,5.5h0c-1.2,1-2.7,1.7-4.5,2.2-1.8,.5-3.8,.9-5.8,1h-.3v-.2c0-2.2-.7-4.3-1.9-6.2-.4-.6-.8-1.1-1.2-1.6l-.4-.5h.7c.5,.2,1,.2,1.3,.2,1.1,0,2.1-.2,3.1-.5,.9-.3,1.6-.7,2.3-1.2h.2c1.9,.5,3.5,1.4,4.7,2.5,1.3,1.2,2,2.6,2,3.9v.4Z"/>
        <path class="uuid-1a056e49-d2c8-485c-843b-9ee66824d3b9" d="M20.5,44h0c.2-.1,.3-.3,.4-.5,.1-.4-.1-.9-.5-1-.1,0-.3,0-.5-.1-.1,0-.3,0-.5-.1-.3,0-.5,0-.7,.2-.7,.6-1.4,1-2.3,1.3-.8,.3-1.6,.4-2.5,.4s-1.8-.1-2.6-.4c-.8-.3-1.5-.7-2.2-1.2-.2-.1-.4-.2-.6-.2s-.1,0-.2,0c-2.3,.6-4.4,1.6-5.9,3.1-1.6,1.5-2.5,3.4-2.5,5.1v.8c0,.2,.1,.5,.3,.6,1.4,1.2,3.3,2.1,5.5,2.8,2.2,.7,4.7,1,7.2,1.1h.1c.5,0,.8-.4,.8-.8v-.9c0-2,.6-3.8,1.7-5.5,1.1-1.7,2.8-3.3,4.8-4.6Zm-5,2.1c-.5,.6-.9,1.1-1.2,1.6h0c-1.3,1.9-1.9,4-1.9,6.2v.3h-.3c-2.1-.1-4-.5-5.8-1-1.8-.5-3.4-1.3-4.5-2.2h0v-.5c0-1.3,.7-2.7,2-3.9,1.2-1.1,2.8-2,4.7-2.6h.2c.7,.5,1.5,1,2.3,1.3,1,.4,2,.5,3.1,.5s.8,0,1.3-.1h.7l-.4,.4Z"/>
        <path class="uuid-1a056e49-d2c8-485c-843b-9ee66824d3b9" d="M38.5,35.7c.1-.5-.1-1-.6-1.1-1.6-.5-3-1.6-4-3l-.4-.6c-.2-.3-.5-.4-.8-.4-.3,0-.6,.2-.7,.4v.2c-1.1,1.6-2.5,2.8-4.1,3.4-.2,0-.4,.2-.5,.4-.1,.2-.1,.5,0,.7,0,.2,.2,.4,.4,.5,.2,.1,.4,.1,.7,0,1.6-.6,3-1.6,4.1-2.9l.2-.2,.2,.2c1.2,1.4,2.7,2.5,4.4,3,.5,.1,1-.1,1.1-.6Z"/>
        <path class="uuid-1a056e49-d2c8-485c-843b-9ee66824d3b9" d="M39.9,39.2c0,.6-.2,1.1-.4,1.6-.2,.4,0,1,.4,1.2,.4,.2,1,0,1.2-.4,.4-.7,.6-1.5,.6-2.3,0,0,0-.2,0-.3v-3.4c0-1.7-.5-3.3-1.6-4.7-1.6-2.2-4.3-3.5-7.1-3.5s-5.2,1.2-6.9,3.2c-1.2,1.4-1.8,3.1-1.8,4.9v3.4c0,.3,0,.5,0,.8,0,.5,.2,1.1,.4,1.6,0,.2,.3,.4,.5,.5,.2,0,.5,0,.7,0,.4-.2,.6-.7,.5-1.2-.2-.3-.3-.7-.3-1.1,0-.2,0-.3,0-.5v-3.4c0-1.4,.5-2.7,1.4-3.8,1.3-1.7,3.3-2.6,5.5-2.6s4.4,1,5.7,2.8c.8,1.1,1.2,2.3,1.2,3.7v3.4c0,0,0,.1,0,.2Z"/>
        <path class="uuid-1a056e49-d2c8-485c-843b-9ee66824d3b9" d="M28.6,37.3c-.5,0-.9,.4-.9,.9v.2c0,2.9,2.4,5.3,5.3,5.3s5.3-2.4,5.3-5.3v-.2c0-.5-.4-.9-.9-.9s-.9,.4-.9,.9v.2c0,2-1.6,3.5-3.5,3.5s-3.5-1.6-3.5-3.5v-.2c0-.5-.4-.9-.9-.9Z"/>
        <path class="uuid-1a056e49-d2c8-485c-843b-9ee66824d3b9" d="M19.4,33.1c.1-.5-.1-1-.6-1.1-1.6-.5-3-1.6-4-3l-.4-.6c-.2-.3-.4-.4-.8-.4-.3,0-.6,.2-.7,.4v.2c-1.1,1.6-2.5,2.8-4.1,3.4-.2,0-.4,.2-.5,.4-.1,.2-.1,.4,0,.7,0,.2,.2,.4,.4,.5,.2,.1,.4,.1,.7,0,1.6-.6,3-1.6,4.1-2.9l.2-.2,.2,.2c1.2,1.4,2.7,2.5,4.4,3,.5,.1,1-.1,1.1-.6Z"/>
        <path class="uuid-1a056e49-d2c8-485c-843b-9ee66824d3b9" d="M5.8,38.7c0,.2,.3,.4,.5,.5,.2,0,.5,0,.7,0,.4-.2,.6-.7,.5-1.2-.2-.4-.3-.7-.3-1.1,0-.2,0-.3,0-.5v-3.4c0-1.4,.5-2.7,1.4-3.8,1.3-1.7,3.3-2.6,5.5-2.6s4.4,1,5.7,2.8c.8,1.1,1.2,2.3,1.2,3.7v3.4c0,0,0,.1,0,.2,0,.5-.2,1.1-.4,1.6-.2,.4,0,1,.4,1.2,.4,.2,1,0,1.2-.4,.4-.7,.6-1.5,.6-2.3,0,0,0-.2,0-.3v-3.4c0-1.7-.5-3.3-1.6-4.7-1.6-2.2-4.3-3.5-7.1-3.5s-5.2,1.2-6.9,3.2c-1.2,1.4-1.8,3.1-1.8,4.9v3.4c0,.3,0,.5,0,.8,0,.5,.2,1.1,.4,1.6Z"/>
        <path class="uuid-1a056e49-d2c8-485c-843b-9ee66824d3b9" d="M9.5,34.8c-.5,0-.9,.4-.9,.9v.2c0,2.9,2.4,5.3,5.3,5.3s5.3-2.4,5.3-5.3v-.2c0-.5-.4-.9-.9-.9s-.9,.4-.9,.9v.2c0,2-1.6,3.5-3.5,3.5s-3.5-1.6-3.5-3.5v-.2c0-.5-.4-.9-.9-.9Z"/>
        <path class="uuid-1a056e49-d2c8-485c-843b-9ee66824d3b9" d="M57.6,33.1c0-.2,0-.5,0-.7s-.3-.4-.5-.4c-1.6-.5-3-1.6-4-3l-.4-.6c-.2-.3-.5-.4-.8-.4-.3,0-.6,.2-.7,.4v.2c-1.1,1.6-2.5,2.8-4.1,3.4-.2,0-.4,.2-.5,.4-.1,.2-.1,.4,0,.7,0,.2,.2,.4,.4,.5s.4,.1,.7,0c1.6-.6,3-1.6,4.1-2.9l.2-.2,.2,.2c1.2,1.4,2.7,2.5,4.4,3,.5,.1,1-.1,1.1-.6Z"/>
        <path class="uuid-1a056e49-d2c8-485c-843b-9ee66824d3b9" d="M45.2,28h0c-1.1,1.4-1.7,3.1-1.7,4.9v3.4c0,.3,0,.5,0,.8,0,.5,.2,1.1,.4,1.6,0,.2,.3,.4,.5,.5,.2,0,.5,0,.7,0,.4-.2,.6-.7,.5-1.2-.2-.4-.3-.7-.3-1.1,0-.2,0-.3,0-.5v-3.4c0-1.4,.5-2.7,1.4-3.8,1.3-1.7,3.3-2.6,5.5-2.6s4.4,1,5.7,2.8c.8,1.1,1.2,2.3,1.2,3.7v3.6c0,.6-.2,1.1-.4,1.6-.2,.4,0,1,.4,1.2,.4,.2,1,0,1.2-.4,.4-.7,.6-1.5,.6-2.3,0,0,0-.2,0-.3v-3.4c0-1.7-.5-3.3-1.6-4.7-1.6-2.2-4.3-3.5-7.1-3.5s-5.2,1.2-6.9,3.2Z"/>
        <path class="uuid-1a056e49-d2c8-485c-843b-9ee66824d3b9" d="M47.7,34.8c-.5,0-.9,.4-.9,.9v.2c0,2.9,2.4,5.3,5.3,5.3s5.3-2.4,5.3-5.3v-.2c0-.5-.4-.9-.9-.9s-.9,.4-.9,.9v.2c0,2-1.6,3.5-3.5,3.5s-3.5-1.6-3.5-3.5v-.2c0-.5-.4-.9-.9-.9Z"/>
      </g>
    </g>
  </g>
</svg>