<svg xmlns="http://www.w3.org/2000/svg" viewBox="0 0 76.94 63.61">
  <defs>
    <style>
      .cls-1 {
        fill: #6dbcaa;
      }
    </style>
  </defs>
  <g id="Layer_2" data-name="Layer 2">
    <g id="Layer_1-2" data-name="Layer 1">
      <g>
        <path class="cls-1" d="M63,19.25a1,1,0,0,0-1-1h-.13c-10.76-.16-17.84,1.61-22.26,5.55-3.85,3.43-5.79,8.32-6.7,16.87a1,1,0,0,0,1.11,1.14,17,17,0,0,0,6.18-2.11,6.35,6.35,0,0,0,3.22.79,6.2,6.2,0,0,0,3.62-1,1,1,0,0,0,.38-.69,1,1,0,0,0-.21-.76,1,1,0,0,0-.69-.39,1,1,0,0,0-.77.22,5.28,5.28,0,0,1-3.18.48,78.7,78.7,0,0,0,10.2-7.74,1,1,0,1,0-1.4-1.53c-.2.18-2,1.78-4.51,3.72a5,5,0,0,1,.66-2.93,1,1,0,0,0,.15-.78,1,1,0,0,0-.44-.66,1.07,1.07,0,0,0-.78-.15,1,1,0,0,0-.66.44,7.16,7.16,0,0,0-.78,5.47c-4,2.87-7.38,4.71-9.88,5.34,1.6-12.75,6-19.22,25.62-19.22h.05c-2.36,21.17-15.35,24-27.75,24.06A13.47,13.47,0,0,1,19.66,30.88V30.8c-.51-5.31,3.08-12.69,6.17-17.94a82,82,0,0,1,6.84-9.93,54.38,54.38,0,0,0,5.28,8.79c1.55,2.28,3.16,4.64,4.58,7.09a1,1,0,0,0,.63.48,1.05,1.05,0,0,0,.78-.1,1.1,1.1,0,0,0,.49-.63,1,1,0,0,0-.11-.79c-1.46-2.52-3.09-4.91-4.66-7.23C37.17,6.91,34.83,3.47,34.1.78A1.06,1.06,0,0,0,32.87,0C31.63.25,26.93,7,24.24,11.46,20.9,17.08,17,25,17.59,30.92A15.55,15.55,0,0,0,33.1,46.41c8.71,0,15-1.62,19.68-5.09,5.95-4.36,9.3-11.55,10.25-22Z"/>
        <path class="cls-1" d="M24.58,24.68a.87.87,0,0,0-.49-.41.88.88,0,0,0-.64.06.82.82,0,0,0-.41.5,14.81,14.81,0,0,0-.82,5.68l0,.39a10.94,10.94,0,0,0,1.35,5.25.86.86,0,0,0,.74.43.85.85,0,0,0,.73-1.25,9.2,9.2,0,0,1-1.14-4.47l0-.47a13.6,13.6,0,0,1,.75-5.07A.8.8,0,0,0,24.58,24.68Z"/>
        <path class="cls-1" d="M13.83,42.07a4.24,4.24,0,0,0-2.76-1.8,4.08,4.08,0,0,0-1.35,0V26a4.25,4.25,0,0,0-4.25-4.25H4.25A4.25,4.25,0,0,0,0,26V49.74A10.24,10.24,0,0,0,3.45,57.4l3.07,2.74a2.25,2.25,0,0,1,.75,1.67v.8a1,1,0,0,0,2,0v-.8a4.25,4.25,0,0,0-1.43-3.18L4.78,55.9A8.24,8.24,0,0,1,2,49.74V26a2.24,2.24,0,0,1,2.24-2.24H5.47A2.24,2.24,0,0,1,7.71,26V41.1a4.3,4.3,0,0,0-.91,5.74l7.42,10.94a1,1,0,0,0,.65.42A1,1,0,0,0,16,57.41a1,1,0,0,0-.15-.76L8.47,45.71a2.24,2.24,0,1,1,3.7-2.51l5.5,8.1a9.66,9.66,0,0,1,1.67,5.43v5.88a1,1,0,0,0,2,0V56.73a11.64,11.64,0,0,0-2-6.56Z"/>
        <path class="cls-1" d="M72.69,21.73H71.47A4.25,4.25,0,0,0,67.22,26V40.25a4.08,4.08,0,0,0-1.35,0,4.27,4.27,0,0,0-2.76,1.8l-5.5,8.1a11.64,11.64,0,0,0-2,6.56v5.88a1,1,0,0,0,2,0V56.73a9.66,9.66,0,0,1,1.67-5.43l5.5-8.1a2.24,2.24,0,0,1,3.71,2.51L61.05,56.65a1,1,0,0,0,.27,1.4,1,1,0,0,0,1.4-.27l7.42-10.94a4.27,4.27,0,0,0-.91-5.74V26a2.24,2.24,0,0,1,2.24-2.24h1.22A2.24,2.24,0,0,1,74.93,26V49.74a8.24,8.24,0,0,1-2.77,6.16l-3.07,2.73a4.24,4.24,0,0,0-1.42,3.18v.8a1,1,0,0,0,2,0v-.8a2.24,2.24,0,0,1,.74-1.67l3.07-2.74a10.24,10.24,0,0,0,3.45-7.66V26A4.25,4.25,0,0,0,72.69,21.73Z"/>
      </g>
    </g>
  </g>
</svg>
