<svg xmlns="http://www.w3.org/2000/svg" viewBox="0 0 65.67 64.95">
  <defs>
    <style>
      .cls-1 {
        fill: #6dbcaa;
      }
    </style>
  </defs>
  <g id="Layer_2" data-name="Layer 2">
    <g id="Layer_1-2" data-name="Layer 1">
      <g>
        <path class="cls-1" d="M64.68,10.78H54.48a1,1,0,0,0-.84.47l-6.85,11.2a3.33,3.33,0,0,0-2,.31,3.38,3.38,0,0,0-1.51,4.54,3.37,3.37,0,0,0,4.53,1.51,3.37,3.37,0,0,0,1.51-4.54,3.26,3.26,0,0,0-.73-1L55,12.75h9.65a1,1,0,1,0,0-2ZM47.62,26.23a1.31,1.31,0,0,1-.7.81,1.38,1.38,0,0,1-1.07.08,1.41,1.41,0,1,1,1.7-2A1.37,1.37,0,0,1,47.62,26.23Z"/>
        <path class="cls-1" d="M15,9.09a3.19,3.19,0,0,0-.38.6,3.39,3.39,0,0,0,3,4.9,3.38,3.38,0,0,0,1.51-6.41A3.31,3.31,0,0,0,16.62,8L12,.47A1,1,0,0,0,11.19,0H1A1,1,0,0,0,1,2h9.64Zm3.9,2.74a1,1,0,0,1-.15.24,1.41,1.41,0,0,1-.66.47,1.59,1.59,0,0,1-.48.07,1.56,1.56,0,0,1-.6-.15,1.4,1.4,0,0,1-.7-.81,1.38,1.38,0,0,1,.08-1.07,1.36,1.36,0,0,1,.81-.71l.17,0a1.34,1.34,0,0,1,.9.12,1.36,1.36,0,0,1,.71.81A1.42,1.42,0,0,1,18.88,11.83Z"/>
        <path class="cls-1" d="M57.78,31.61c-.46,0-11.17-.24-17.77,5.45-6.07,5.24-6.4,13.37-6.39,15.24l-.34.29,0-13.62C35.05,37.31,43,29.5,43,20,43,9.38,33.2,1,32.78.6L32.67.52l-.1-.05-.06,0-.18,0-.18,0L32,.39l-.07,0-.1,0-.08,0-.09.05L31.51.6C31.09,1,21.31,9.38,21.31,20c0,1.73.48,10.79,10,19.18l0,13.63-.58-.5c0-1.87-.32-10-6.39-15.24C17.76,31.38,7,31.6,6.57,31.61a1,1,0,0,0-1,1c0,.39-.28,9.77,6.39,15.53,5.73,4.94,14.46,5.43,17.15,5.46l1.94,1.66a1.07,1.07,0,0,0,.22.15l0,8.6a1,1,0,0,0,1,1,1,1,0,0,0,.7-.3,1,1,0,0,0,.28-.69l0-8.77,1.91-1.64c2.69,0,11.42-.52,17.15-5.46C59,42.33,58.75,33,58.74,32.56A1,1,0,0,0,57.78,31.61ZM56.6,35.16a21.42,21.42,0,0,1-1.86,6.54L46,44.27ZM44.1,43.3,47,35.43a.14.14,0,0,0,0-.06,33,33,0,0,1,8.33-1.7Zm9.15.89a13.59,13.59,0,0,1-2.19,2.4c-4,3.43-9.82,4.51-13.39,4.84l4.68-4Zm-8.77-7.74L41,45.93,35.7,50.52c.28-2.76,1.37-8.31,5.6-12h0A15.69,15.69,0,0,1,44.48,36.45ZM33.14,3.69c2.37,2.46,6.08,7,7.39,12.47L33.2,23.84Zm.07,23,7.73-8.11c0,.47.06.94.06,1.4,0,7.13-5.13,13.43-7.77,16.2ZM23.92,15.53c1.45-5.21,5-9.52,7.25-11.86l0,19.69ZM31.26,36.4c-2.7-2.78-8-9.15-8-16.41a16.43,16.43,0,0,1,.14-2.09l7.8,8.36ZM11,44.06l10,2.45,5.72,4.92c-3.57-.33-9.41-1.41-13.39-4.84h0A13.86,13.86,0,0,1,11,44.06Zm17.65,6.46-6.17-5.3-2.72-8.83a16.18,16.18,0,0,1,3.29,2.17C27.28,42.21,28.37,47.76,28.65,50.52ZM9.05,33.67a32.68,32.68,0,0,1,8.33,1.7h0l2.29,7.42Zm8.59,10-8-2a21.26,21.26,0,0,1-1.85-6.52ZM32.46.69Zm-.77.09Z"/>
      </g>
    </g>
  </g>
</svg>
