<svg xmlns="http://www.w3.org/2000/svg" viewBox="0 0 64.58 69.68">
  <defs>
    <style>
      .cls-1 {
        fill: #6dbcaa;
      }
    </style>
  </defs>
  <g id="Layer_2" data-name="Layer 2">
    <g id="Layer_1-2" data-name="Layer 1">
      <path class="cls-1" d="M64,35l-.33-.41-14.46.07a1.59,1.59,0,0,0-1.55,2,14.07,14.07,0,0,1,.32,3c0,7.65-6.53,14-14.76,14.57V46.68a37.26,37.26,0,0,0,9.13-8.74,20.73,20.73,0,0,0,3.84-10,24.27,24.27,0,0,0-2.92-13.28A57.72,57.72,0,0,0,32.81.79L32,0l-.78.79a57.42,57.42,0,0,0-10.5,13.87A24.16,24.16,0,0,0,17.84,28a20.74,20.74,0,0,0,3.89,10,37.22,37.22,0,0,0,9.35,8.86v7.35c-8.36-.46-15-6.81-15-14.58a13.49,13.49,0,0,1,.3-2.84,1.57,1.57,0,0,0-.17-1.16h0a1.63,1.63,0,0,0-1.41-.81L.53,34.87l-.29.62a2.29,2.29,0,0,0-.24,1v6.66a2.54,2.54,0,0,0,2.59,2.48h4a.43.43,0,0,1,.42.26,22.28,22.28,0,0,0,2.79,6l.12.18a.22.22,0,0,1-.06.28L6.93,55.06a2.4,2.4,0,0,0,0,3.56l5.12,4.71a2.71,2.71,0,0,0,3.6,0l3.13-2.89a.55.55,0,0,1,.57-.06,26.32,26.32,0,0,0,6.41,2.22c.19,0,.32.16.32.29v4.32a2.54,2.54,0,0,0,2.6,2.47H35.9a2.54,2.54,0,0,0,2.6-2.47v-4.8c0-.12.12-.23.28-.28a26.59,26.59,0,0,0,5.73-2.4.53.53,0,0,1,.58.06l3.84,3.54a2.65,2.65,0,0,0,3.6,0l5.12-4.71a2.4,2.4,0,0,0,0-3.56l-4.11-3.78a.25.25,0,0,1,0-.31,22.47,22.47,0,0,0,2.19-5.07.39.39,0,0,1,.39-.24H62a2.54,2.54,0,0,0,2.59-2.48V36.53A2.37,2.37,0,0,0,64,35ZM32.17,18.09a1.69,1.69,0,1,1,1.69-1.69A1.69,1.69,0,0,1,32.17,18.09ZM20,27.75c-.72-7.29,3.33-15.58,12-24.64,8.69,9.05,12.73,17.33,12,24.62C43.51,33.56,39.87,39,33.26,44V37.21h.82a5.55,5.55,0,0,0,5.46-4.51,3.87,3.87,0,1,0-2.18-.23A3.38,3.38,0,0,1,34.08,35h-.82V20.11a3.87,3.87,0,1,0-2.18,0V31.26h-.86a3.63,3.63,0,0,1-3.48-2.61,3.86,3.86,0,1,0-2.28-.28,5.82,5.82,0,0,0,5.76,5.06h.86V44.19C24.3,39.18,20.58,33.65,20,27.75ZM37.14,28.9a1.69,1.69,0,1,1,1.69,1.69A1.69,1.69,0,0,1,37.14,28.9ZM26.06,26.54a1.69,1.69,0,1,1,1.69-1.69A1.69,1.69,0,0,1,26.06,26.54ZM62.41,43.18c0,.14-.18.3-.42.3H56.07a2.57,2.57,0,0,0-2.48,1.82,20.34,20.34,0,0,1-2,4.58,2.4,2.4,0,0,0,.45,3l4.11,3.78a.22.22,0,0,1,0,.36l-5.11,4.71a.5.5,0,0,1-.65,0l-3.84-3.54a2.7,2.7,0,0,0-3.14-.35A23.88,23.88,0,0,1,38.18,60a2.49,2.49,0,0,0-1.86,2.37v4.8c0,.14-.17.3-.42.3H28.68c-.23,0-.42-.14-.42-.3V62.89a2.5,2.5,0,0,0-2.06-2.42,24,24,0,0,1-5.88-2,2.86,2.86,0,0,0-1.21-.28,2.66,2.66,0,0,0-1.8.69l-3.14,2.89a.5.5,0,0,1-.65,0L8.41,57a.23.23,0,0,1,0-.36L11.28,54a2.39,2.39,0,0,0,.39-3.11l-.1-.16a19.9,19.9,0,0,1-2.52-5.44,2.61,2.61,0,0,0-2.51-1.83H2.59c-.22,0-.41-.14-.41-.3V37l11.94,0a15.59,15.59,0,0,0-.22,2.64,16.07,16.07,0,0,0,5.34,11.91,18.78,18.78,0,0,0,12.81,4.89h.26a18.73,18.73,0,0,0,12.62-5A16.1,16.1,0,0,0,50.2,39.63,15.32,15.32,0,0,0,50,36.84l12.46,0Z"/>
    </g>
  </g>
</svg>
