<svg xmlns="http://www.w3.org/2000/svg" viewBox="0 0 81.36 61.38">
  <defs>
    <style>
      .cls-1 {
        fill: #6dbcaa;
      }
    </style>
  </defs>
  <g id="Layer_2" data-name="Layer 2">
    <g id="Layer_1-2" data-name="Layer 1">
      <g>
        <g>
          <path class="cls-1" d="M33.57,14.76c3.42,0,6.09-3.24,6.09-7.38S37,0,33.57,0s-6.09,3.24-6.09,7.38S30.16,14.76,33.57,14.76Zm0-12.89c2.37,0,4.23,2.42,4.23,5.51s-1.86,5.51-4.23,5.51-4.22-2.42-4.22-5.51S31.2,1.87,33.57,1.87Z"/>
          <path class="cls-1" d="M34,40a.93.93,0,0,0-.94.93V60.24a.94.94,0,0,0,1.87,0V40.9A.93.93,0,0,0,34,40Z"/>
          <path class="cls-1" d="M30.79,25.78H27.57a.94.94,0,0,0,0,1.87h3.22a2.29,2.29,0,1,1,0,4.58H26.28A4.22,4.22,0,0,1,22.06,28V25.43a6.81,6.81,0,0,1,6.8-6.8h1.29a.94.94,0,0,0,0-1.87H28.86a8.68,8.68,0,0,0-8.67,8.67V28a6.08,6.08,0,0,0,5.27,6,1,1,0,0,0-.11.42V60.24a.93.93,0,0,0,1.86,0V34.45a.85.85,0,0,0-.08-.35h3.65a4.16,4.16,0,1,0,0-8.32Z"/>
          <path class="cls-1" d="M76.4,13.82l4.81-7.21a.94.94,0,0,0-.78-1.45H67.18V.93A.93.93,0,0,0,66.25,0H52.07a.94.94,0,0,0-.94.93v19.6l-2,.77a1.64,1.64,0,0,1-1.49-.15L43.4,18.41l-.14-.1a7,7,0,0,0-4.53-1.55h-.85a.94.94,0,0,0,0,1.87h.85a5.06,5.06,0,0,1,3.42,1.18l4.48,2.91A3.49,3.49,0,0,0,49.8,23l2.42-.93a2.06,2.06,0,0,1,2.83,1.19,2.31,2.31,0,0,1-1.29,2.86l-2,.93h0l-2.26,1A3,3,0,0,1,47,28l-4.83-2.44a.92.92,0,0,0-.91,0,.94.94,0,0,0-.44.79V60.24a.93.93,0,0,0,1.86,0V27.94l3.48,1.75a4.82,4.82,0,0,0,4,.15l1-.44V60.24a.94.94,0,0,0,1.87,0V28.55l1.52-.69a4.13,4.13,0,0,0,2.25-5.29A3.89,3.89,0,0,0,53,20.07V17.34H65.32v4.22a.92.92,0,0,0,.93.93H80.43A.94.94,0,0,0,81.21,21ZM53,15.47V1.87H65.32v13.6Zm14.18,5.16V7H78.69L74.5,13.31a.92.92,0,0,0,0,1l4.19,6.29Z"/>
        </g>
        <path class="cls-1" d="M77.09,43.63l0-.36a.47.47,0,0,0-.47-.42h-.35a10.54,10.54,0,0,0-7.92,3.39l0-4a6.25,6.25,0,0,0,3-4.29c.27-2-.72-4.22-2.95-6.62l-.25-.28a.47.47,0,0,0-.65,0l-.28.24C65,33.23,63.89,35.2,63.9,37.15c0,1.74.93,3.44,2.74,5.05,0,1.76,0,4,0,6.31-2-2.1-4.75-2.88-8.27-2.34l-.32,0a.48.48,0,0,0-.4.46V47c-.06,4.16.77,7,2.55,8.59a6.54,6.54,0,0,0,5.31,1.46.47.47,0,0,0,.42-.51l-.08-.77a.46.46,0,0,0-.51-.41,4.88,4.88,0,0,1-4-1c-1.28-1.17-2-3.38-2-6.57,3.41-.34,5.79.86,7.27,3.66h0v9.49a.48.48,0,0,0,.14.34.46.46,0,0,0,.32.13h.77c.46,0,.46,0,.46-4.2v-3.3c3.14-.14,5.37-1,6.82-2.48C76.73,49.67,77.4,47.06,77.09,43.63ZM65.6,37.14a5.82,5.82,0,0,1,2.14-4c1.47,1.75,2.13,3.31,2,4.62a4.56,4.56,0,0,1-2.12,3A5.17,5.17,0,0,1,65.6,37.14Zm2.7,15V49a8.9,8.9,0,0,1,7.14-4.46c.1,2.52-.43,4.42-1.58,5.64S70.84,52.09,68.3,52.14Z"/>
        <path class="cls-1" d="M2.06,51.39c1.44,1.52,3.67,2.34,6.81,2.48v3.3c0,4.19,0,4.2.46,4.2h.77a.51.51,0,0,0,.33-.13.48.48,0,0,0,.14-.34V51.42h0c1.48-2.8,3.86-4,7.27-3.66,0,3.19-.71,5.4-2,6.57a4.88,4.88,0,0,1-4,1,.46.46,0,0,0-.34.1.44.44,0,0,0-.17.31l-.08.77a.48.48,0,0,0,.42.51A6.56,6.56,0,0,0,17,55.59C18.77,54,19.6,51.16,19.54,47v-.32a.48.48,0,0,0-.4-.46l-.32,0c-3.51-.54-6.29.24-8.26,2.34,0-2.32,0-4.55,0-6.31,1.81-1.61,2.73-3.31,2.74-5.05,0-1.95-1.11-3.92-3.35-5.84l-.28-.24a.47.47,0,0,0-.65,0l-.25.28C6.51,33.78,5.52,36,5.78,38a6.28,6.28,0,0,0,3,4.29l0,4A10.52,10.52,0,0,0,.93,42.85H.57a.48.48,0,0,0-.47.42l0,.36C-.23,47.06.43,49.67,2.06,51.39ZM9.59,40.75a4.53,4.53,0,0,1-2.12-3c-.18-1.31.48-2.87,2-4.62,1.43,1.39,2.15,2.72,2.14,4A5.19,5.19,0,0,1,9.59,40.75Zm-6.3,9.47C2.14,49,1.61,47.1,1.71,44.58A8.92,8.92,0,0,1,8.86,49v3.1C6.32,52.09,4.45,51.44,3.29,50.22Z"/>
      </g>
    </g>
  </g>
</svg>
