<svg xmlns="http://www.w3.org/2000/svg" viewBox="0 0 73.01 62.96">
  <defs>
    <style>
      .cls-1 {
        fill: #6dbcaa;
      }
    </style>
  </defs>
  <g id="Layer_2" data-name="Layer 2">
    <g id="Layer_1-2" data-name="Layer 1">
      <g>
        <path class="cls-1" d="M67.44,20.89a5.57,5.57,0,0,0-5.56,5.56v.63H51.51a27.8,27.8,0,0,0,2.07-9.16A17.45,17.45,0,0,0,48.82,5.44a16.87,16.87,0,0,0-24.24-.59,17,17,0,0,0-5.16,12.24,26.54,26.54,0,0,0,2.22,10H11.13v-.63A5.57,5.57,0,0,0,0,26.45v27.2C0,60.52,5,63,9.31,63H63.7C68,63,73,60.52,73,53.65V26.45A5.58,5.58,0,0,0,67.44,20.89Zm-3.71,5.56a3.72,3.72,0,0,1,7.43,0V49.52a5.54,5.54,0,0,0-7.43,0ZM25.87,6.18A15.11,15.11,0,0,1,36.5,1.85h.41A15,15,0,0,1,47.47,6.7a15.6,15.6,0,0,1,4.26,11.15A27,27,0,0,1,49.3,27.6a.36.36,0,0,0,0,.09C45.51,36.13,38.59,43,36.36,45c-2.15-2.18-8.72-9.22-12.45-17.35a.54.54,0,0,0-.05-.11,25.73,25.73,0,0,1-2.59-10.49A15.11,15.11,0,0,1,25.87,6.18ZM5.57,22.74a3.72,3.72,0,0,1,3.71,3.71V49.52a5.54,5.54,0,0,0-7.43,0V26.45A3.72,3.72,0,0,1,5.57,22.74ZM63.7,61.11H9.31c-1.75,0-7.46-.54-7.46-7.46a3.72,3.72,0,1,1,7.43,0,.93.93,0,1,0,1.85,0V28.93H22.46c4.08,8.6,11,15.84,12.85,17.68a1.5,1.5,0,0,0,1,.44,1.48,1.48,0,0,0,1-.39c1.89-1.72,9.24-8.78,13.38-17.73H61.88V53.65a.93.93,0,1,0,1.85,0,3.72,3.72,0,1,1,7.43,0C71.16,60.57,65.45,61.11,63.7,61.11Z"/>
        <path class="cls-1" d="M45.79,43.32a.92.92,0,0,0-.93.92c0,3.33-3.75,6-8.36,6s-8.35-2.71-8.35-6a.93.93,0,0,0-1.85,0c0,4.35,4.58,7.89,10.2,7.89s10.21-3.54,10.21-7.89A.92.92,0,0,0,45.79,43.32Z"/>
        <path class="cls-1" d="M36.51,27.29A10.21,10.21,0,1,0,26.3,17.09,10.21,10.21,0,0,0,36.51,27.29Zm0-18.56a8.36,8.36,0,1,1-8.36,8.36A8.37,8.37,0,0,1,36.51,8.73Z"/>
      </g>
    </g>
  </g>
</svg>
