<?xml version="1.0" encoding="UTF-8"?>
<svg xmlns="http://www.w3.org/2000/svg" viewBox="0 0 57.8 57.7">
  <defs>
    <style>
      .uuid-cf1bb94a-6032-4a49-aafa-630fbb89b15b {
        fill: #fff;
      }
    </style>
  </defs>
  <g id="uuid-e5fc8796-00e5-4e17-be53-935ba8ab78a0" data-name="Calque 1"/>
  <g id="uuid-f1d8a117-8d6d-456a-abae-4e463513f50e" data-name="Calque 2">
    <g id="uuid-0439f09f-aecb-4777-bdb4-63faf64dc9a5" data-name="Layer 1">
      <g>
        <path class="uuid-cf1bb94a-6032-4a49-aafa-630fbb89b15b" d="M6.4,47.7c.4,0,.7-.3,.7-.6,0-.4-.2-.8-.6-.9-1-.2-2.3-.6-3.3-1.6-1.4-1.4-1.7-3.5-1.7-4.6,1.1,0,3.3,.4,4.6,1.7,0,0,.2,.2,.2,.3,.3,.3,.8,.4,1.1,0,.3-.3,.4-.8,0-1.1-.1-.1-.2-.2-.3-.3-2.4-2.4-6.4-2.2-6.5-2.2-.4,0-.7,.3-.7,.7,0,.2-.2,4.1,2.2,6.5,1,1,2.4,1.7,4.1,2,0,0,0,0,.1,0Z"/>
        <path class="uuid-cf1bb94a-6032-4a49-aafa-630fbb89b15b" d="M8.7,52.4c.4,0,.8-.3,.8-.8v-5.3c1.3,0,3.9-.4,5.7-2.2,2.4-2.4,2.2-6.4,2.2-6.5,0-.4-.3-.7-.7-.7-.2,0-4.1-.2-6.5,2.2-2.3,2.3-2.2,6.1-2.2,6.5v6.1c0,.4,.3,.8,.8,.8Zm2.5-12.3c1.4-1.4,3.5-1.7,4.6-1.7,0,1.1-.4,3.3-1.7,4.6-1.4,1.4-3.5,1.7-4.6,1.7,0-1.1,.4-3.3,1.7-4.6Z"/>
        <path class="uuid-cf1bb94a-6032-4a49-aafa-630fbb89b15b" d="M57.8,37.6c0-.4-.3-.7-.7-.7-.2,0-4.1-.2-6.5,2.2-2.3,2.3-2.2,6.1-2.2,6.5v6.1c0,.4,.3,.8,.8,.8s.8-.3,.8-.8v-5.3c1.3,0,3.9-.4,5.7-2.2,2.4-2.4,2.2-6.4,2.2-6.5Zm-3.2,5.5c-1.4,1.4-3.5,1.7-4.6,1.7,0-1.1,.4-3.3,1.7-4.6,1.4-1.4,3.5-1.7,4.6-1.7,0,1.1-.4,3.3-1.7,4.6Z"/>
        <path class="uuid-cf1bb94a-6032-4a49-aafa-630fbb89b15b" d="M28.9,52.4c.4,0,.8-.3,.8-.8v-5.3c1.3,0,3.9-.4,5.7-2.2h0c2.4-2.4,2.2-6.4,2.2-6.5,0-.4-.3-.7-.7-.7-.2,0-4.1-.2-6.5,2.2-2.3,2.3-2.2,6.1-2.2,6.5v6.1c0,.4,.3,.8,.8,.8Zm2.5-12.3c1.4-1.4,3.5-1.7,4.6-1.7,0,1.1-.4,3.3-1.7,4.6h0c-1.4,1.4-3.5,1.7-4.6,1.7,0-1.1,.4-3.3,1.7-4.6Z"/>
        <path class="uuid-cf1bb94a-6032-4a49-aafa-630fbb89b15b" d="M46.9,41.9c.3,.3,.8,.4,1.1,0,.3-.3,.4-.8,0-1.1-.1-.1-.2-.2-.3-.3-2.4-2.4-6.4-2.2-6.5-2.2-.4,0-.7,.3-.7,.7,0,.2-.2,4.1,2.2,6.5,1,1,2.4,1.7,4.1,2,0,0,0,0,.1,0,.4,0,.7-.3,.7-.6,0-.4-.2-.8-.6-.9-1-.2-2.3-.6-3.3-1.6-1.4-1.4-1.7-3.5-1.7-4.6,1.1,0,3.3,.4,4.6,1.7,0,0,.2,.2,.2,.3Z"/>
        <path class="uuid-cf1bb94a-6032-4a49-aafa-630fbb89b15b" d="M26.6,41.9c.3,.3,.8,.4,1.1,0,.3-.3,.4-.8,0-1.1-.1-.1-.2-.2-.3-.3-2.4-2.4-6.4-2.2-6.5-2.2-.4,0-.7,.3-.7,.7,0,.2-.2,4.1,2.2,6.5,1,1,2.4,1.7,4.1,2,0,0,0,0,.1,0,.4,0,.7-.3,.7-.6,0-.4-.2-.8-.6-.9-1-.2-2.3-.6-3.3-1.6-1.4-1.4-1.7-3.5-1.7-4.6,1.1,0,3.3,.4,4.6,1.7,0,0,.2,.2,.2,.3Z"/>
        <path class="uuid-cf1bb94a-6032-4a49-aafa-630fbb89b15b" d="M53.6,56.2c-.9,0-1.4-.4-2-.9-.6-.6-1.5-1.3-3-1.3s-2.3,.7-3,1.3c-.6,.5-1,.9-2,.9s-1.4-.4-2-.9c-.6-.6-1.5-1.3-3-1.3s-2.3,.7-3,1.3c-.6,.5-1,.9-2,.9s-1.4-.4-2-.9c-.6-.6-1.5-1.3-3-1.3s-2.3,.7-3,1.3c-.6,.5-1,.9-2,.9s-1.4-.4-2-.9c-.6-.6-1.5-1.3-3-1.3s-2.3,.7-3,1.3c-.6,.5-1,.9-2,.9s-1.4-.4-2-.9c-.6-.6-1.5-1.3-3-1.3s-2.3,.7-3,1.3c-.6,.5-1,.9-2,.9s-.8,.3-.8,.8,.3,.8,.8,.8c1.5,0,2.3-.7,3-1.3,.6-.5,1-.9,2-.9s1.4,.4,2,.9c.6,.6,1.5,1.3,3,1.3s2.3-.7,3-1.3c.6-.5,1-.9,2-.9s1.4,.4,2,.9c.6,.6,1.5,1.3,3,1.3s2.3-.7,3-1.3c.6-.5,1-.9,2-.9s1.4,.4,2,.9c.6,.6,1.5,1.3,3,1.3s2.3-.7,3-1.3c.6-.5,1-.9,2-.9s1.4,.4,2,.9c.6,.6,1.5,1.3,3,1.3s2.3-.7,3-1.3c.6-.5,1-.9,2-.9s1.4,.4,2,.9c.6,.6,1.5,1.3,3,1.3s.8-.3,.8-.8-.3-.8-.8-.8Z"/>
        <path class="uuid-cf1bb94a-6032-4a49-aafa-630fbb89b15b" d="M28.3,18.5c1.4,0,2.6-1.2,2.6-2.6s-1.2-2.6-2.6-2.6-2.6,1.2-2.6,2.6,1.2,2.6,2.6,2.6Zm0-3.7c.6,0,1.1,.5,1.1,1.1s-.5,1.1-1.1,1.1-1.1-.5-1.1-1.1,.5-1.1,1.1-1.1Z"/>
        <path class="uuid-cf1bb94a-6032-4a49-aafa-630fbb89b15b" d="M1.4,1.5h7.5V6.3c-1.5,.3-2.7,1.7-2.7,3.3v3.7c0,1.8,1.5,3.3,3.3,3.3h8.6l1,3.1c.3,1.1,1.3,1.8,2.4,1.8h13.3c1.1,0,2.1-.7,2.4-1.8l1-3.1h9c1.8,0,3.3-1.5,3.3-3.3v-3.7c0-1.6-1.1-3-2.7-3.3V1.5h7.5c.4,0,.8-.3,.8-.8s-.3-.8-.8-.8h-16.5c-.4,0-.8,.3-.8,.8s.3,.8,.8,.8h7.5V6.3c-1.5,.3-2.7,1.7-2.7,3.3v3.4c0,.4,.3,.8,.8,.8s.8-.3,.8-.8v-3.4c0-1.1,.9-1.9,1.9-1.9s1.9,.9,1.9,1.9v3.7c0,1-.8,1.7-1.7,1.7h-8.5l.5-1.6c.3-.8,.1-1.6-.4-2.3-.5-.7-1.2-1.1-2.1-1.1h-2.3c-.1-3.3-2.8-5.9-6.2-5.9s-6,2.6-6.2,5.9h-2.7c-.8,0-1.6,.4-2.1,1.1-.5,.7-.6,1.5-.4,2.3l.5,1.6H9.5c-1,0-1.7-.8-1.7-1.7v-3.7c0-1.1,.9-1.9,1.9-1.9s1.9,.9,1.9,1.9v3.4c0,.4,.3,.8,.8,.8s.8-.3,.8-.8v-3.4c0-1.6-1.1-3-2.7-3.3V1.5h7.5c.4,0,.8-.3,.8-.8s-.3-.8-.8-.8H1.4c-.4,0-.8,.3-.8,.8s.3,.8,.8,.8ZM18.7,12.2c.2-.3,.5-.4,.8-.4h10.2c.4,0,.8-.3,.8-.8s-.3-.8-.8-.8h-6c.1-2.5,2.2-4.4,4.7-4.4s4.5,2,4.7,4.4h-.1c-.4,0-.8,.3-.8,.8s.3,.8,.8,.8h4c.3,0,.6,.2,.8,.4,.2,.3,.3,.6,.2,.9l-2,6.2c-.1,.4-.5,.7-1,.7h-13.3c-.5,0-.9-.3-1-.7l-2-6.2c-.1-.3,0-.7,.2-.9Z"/>
        <path class="uuid-cf1bb94a-6032-4a49-aafa-630fbb89b15b" d="M29.2,32.8v-2.3c0-.4-.3-.8-.8-.8s-.8,.3-.8,.8v2.3c0,.4,.3,.8,.8,.8s.8-.3,.8-.8Z"/>
        <path class="uuid-cf1bb94a-6032-4a49-aafa-630fbb89b15b" d="M28.4,28.3c.4,0,.8-.3,.8-.8v-2.3c0-.4-.3-.8-.8-.8s-.8,.3-.8,.8v2.3c0,.4,.3,.8,.8,.8Z"/>
        <path class="uuid-cf1bb94a-6032-4a49-aafa-630fbb89b15b" d="M41.4,23.5v-4.6c0-.4-.3-.8-.8-.8s-.8,.3-.8,.8v4.6c0,.4,.3,.8,.8,.8s.8-.3,.8-.8Z"/>
        <path class="uuid-cf1bb94a-6032-4a49-aafa-630fbb89b15b" d="M39.6,30l1.4,2.1c.1,.2,.4,.3,.6,.3s.3,0,.4-.1c.3-.2,.4-.7,.2-1.1l-1.4-2.1c-.2-.3-.7-.4-1.1-.2-.3,.2-.4,.7-.2,1.1Z"/>
        <path class="uuid-cf1bb94a-6032-4a49-aafa-630fbb89b15b" d="M17,23.5v-4.6c0-.4-.3-.8-.8-.8s-.8,.3-.8,.8v4.6c0,.4,.3,.8,.8,.8s.8-.3,.8-.8Z"/>
        <path class="uuid-cf1bb94a-6032-4a49-aafa-630fbb89b15b" d="M17.1,28.9c-.3-.2-.8-.1-1.1,.2l-1.4,2.1c-.2,.3-.1,.8,.2,1.1,.1,0,.3,.1,.4,.1,.2,0,.5-.1,.6-.3l1.4-2.1c.2-.3,.1-.8-.2-1.1Z"/>
        <path class="uuid-cf1bb94a-6032-4a49-aafa-630fbb89b15b" d="M38.4,27.6c.1,0,.3,0,.4-.1,.3-.2,.4-.7,.2-1.1l-1.4-2.1c-.2-.3-.7-.4-1.1-.2-.3,.2-.4,.7-.2,1.1l1.4,2.1c.1,.2,.4,.3,.6,.3Z"/>
        <path class="uuid-cf1bb94a-6032-4a49-aafa-630fbb89b15b" d="M20.4,24.1c-.3-.2-.8-.1-1.1,.2l-1.4,2.1c-.2,.3-.1,.8,.2,1.1,.1,0,.3,.1,.4,.1,.2,0,.5-.1,.6-.3l1.4-2.1c.2-.3,.1-.8-.2-1.1Z"/>
      </g>
    </g>
  </g>
</svg>