<?xml version="1.0" encoding="UTF-8"?>
<svg xmlns="http://www.w3.org/2000/svg" viewBox="0 0 65.4 56.8">
  <defs>
    <style>
      .uuid-9bb9d530-5eeb-4d85-86af-7c9d6829c463 {
        fill: #fff;
      }
    </style>
  </defs>
  <g id="uuid-c113abdd-71a5-4e61-b7a5-1a2ccaa8e350" data-name="Calque 1"/>
  <g id="uuid-6ab75f12-d9e7-495d-95c4-022ac595c6bb" data-name="Calque 2">
    <g id="uuid-cb867bca-1c0e-4723-8b2b-9747587259a1" data-name="Layer 1">
      <g>
        <path class="uuid-9bb9d530-5eeb-4d85-86af-7c9d6829c463" d="M14.3,21.4l.4,2.2c0,.4,.4,.6,.7,.6s0,0,.1,0c.4,0,.7-.5,.6-.9l-.4-2.2c0-.4-.5-.7-.9-.6-.4,0-.7,.5-.6,.9Z"/>
        <path class="uuid-9bb9d530-5eeb-4d85-86af-7c9d6829c463" d="M4.5,20.5c-.4,0-.8,.2-.9,.6l-.4,2.2c0,.4,.2,.8,.6,.9,0,0,0,0,.1,0,.4,0,.7-.3,.7-.6l.4-2.2c0-.4-.2-.8-.6-.9Z"/>
        <path class="uuid-9bb9d530-5eeb-4d85-86af-7c9d6829c463" d="M9.7,24.3c.4,0,.8-.3,.8-.8v-2.2c0-.4-.3-.8-.8-.8s-.8,.3-.8,.8v2.2c0,.4,.3,.8,.8,.8Z"/>
        <path class="uuid-9bb9d530-5eeb-4d85-86af-7c9d6829c463" d="M14.2,13.1l-.4-2.2c0-.4-.5-.7-.9-.6-.4,0-.7,.5-.6,.9l.4,2.2c0,.4,.4,.6,.7,.6s0,0,.1,0c.4,0,.7-.5,.6-.9Z"/>
        <path class="uuid-9bb9d530-5eeb-4d85-86af-7c9d6829c463" d="M14.8,16c0-.4-.5-.7-.9-.6-.4,0-.7,.5-.6,.9l.4,2.2c0,.4,.4,.6,.7,.6s0,0,.1,0c.4,0,.7-.5,.6-.9l-.4-2.2Z"/>
        <path class="uuid-9bb9d530-5eeb-4d85-86af-7c9d6829c463" d="M5.7,18.5l.4-2.2c0-.4-.2-.8-.6-.9-.4,0-.8,.2-.9,.6l-.4,2.2c0,.4,.2,.8,.6,.9,0,0,0,0,.1,0,.4,0,.7-.3,.7-.6Z"/>
        <path class="uuid-9bb9d530-5eeb-4d85-86af-7c9d6829c463" d="M9.7,15.3c-.4,0-.8,.3-.8,.8v2.2c0,.4,.3,.8,.8,.8s.8-.3,.8-.8v-2.2c0-.4-.3-.8-.8-.8Z"/>
        <path class="uuid-9bb9d530-5eeb-4d85-86af-7c9d6829c463" d="M6.6,13.4l.4-2.2c0-.4-.2-.8-.6-.9-.4,0-.8,.2-.9,.6l-.4,2.2c0,.4,.2,.8,.6,.9,0,0,0,0,.1,0,.4,0,.7-.3,.7-.6Z"/>
        <path class="uuid-9bb9d530-5eeb-4d85-86af-7c9d6829c463" d="M10.4,10.9c0-.4-.3-.8-.8-.8s-.8,.3-.8,.8v2.2c0,.4,.3,.8,.8,.8s.8-.3,.8-.8v-2.2Z"/>
        <path class="uuid-9bb9d530-5eeb-4d85-86af-7c9d6829c463" d="M15,8.4v-1.7c0-.4-.3-.8-.8-.8s-.8,.3-.8,.8v.9H5.9v-.9c0-.4-.3-.8-.8-.8s-.8,.3-.8,.8v1.7c0,.4,.3,.8,.8,.8H14.2c.4,0,.8-.3,.8-.8Z"/>
        <path class="uuid-9bb9d530-5eeb-4d85-86af-7c9d6829c463" d="M58.8,13.4c0,.4,.4,.6,.7,.6s0,0,.1,0c.4,0,.7-.5,.6-.9l-.4-2.2c0-.4-.5-.7-.9-.6-.4,0-.7,.5-.6,.9l.4,2.2Z"/>
        <path class="uuid-9bb9d530-5eeb-4d85-86af-7c9d6829c463" d="M60.7,23.6c0,.4,.4,.6,.7,.6s0,0,.1,0c.4,0,.7-.5,.6-.9l-.4-2.2c0-.4-.5-.7-.9-.6-.4,0-.7,.5-.6,.9l.4,2.2Z"/>
        <path class="uuid-9bb9d530-5eeb-4d85-86af-7c9d6829c463" d="M59.7,18.5c0,.4,.4,.6,.7,.6s0,0,.1,0c.4,0,.7-.5,.6-.9l-.4-2.2c0-.4-.5-.7-.9-.6-.4,0-.7,.5-.6,.9l.4,2.2Z"/>
        <path class="uuid-9bb9d530-5eeb-4d85-86af-7c9d6829c463" d="M55.7,20.5c-.4,0-.8,.3-.8,.8v2.2c0,.4,.3,.8,.8,.8s.8-.3,.8-.8v-2.2c0-.4-.3-.8-.8-.8Z"/>
        <path class="uuid-9bb9d530-5eeb-4d85-86af-7c9d6829c463" d="M56.5,16.1c0-.4-.3-.8-.8-.8s-.8,.3-.8,.8v2.2c0,.4,.3,.8,.8,.8s.8-.3,.8-.8v-2.2Z"/>
        <path class="uuid-9bb9d530-5eeb-4d85-86af-7c9d6829c463" d="M56.5,10.9c0-.4-.3-.8-.8-.8s-.8,.3-.8,.8v2.2c0,.4,.3,.8,.8,.8s.8-.3,.8-.8v-2.2Z"/>
        <path class="uuid-9bb9d530-5eeb-4d85-86af-7c9d6829c463" d="M49.6,21.1l-.4,2.2c0,.4,.2,.8,.6,.9,0,0,0,0,.1,0,.4,0,.7-.3,.7-.6l.4-2.2c0-.4-.2-.8-.6-.9-.4,0-.8,.2-.9,.6Z"/>
        <path class="uuid-9bb9d530-5eeb-4d85-86af-7c9d6829c463" d="M51.8,14s0,0,.1,0c.4,0,.7-.3,.7-.6l.4-2.2c0-.4-.2-.8-.6-.9-.4,0-.8,.2-.9,.6l-.4,2.2c0,.4,.2,.8,.6,.9Z"/>
        <path class="uuid-9bb9d530-5eeb-4d85-86af-7c9d6829c463" d="M1.9,1.5h7v1.8h-3.8c-.4,0-.8,.3-.8,.8s.3,.8,.8,.8H14.2c.4,0,.8-.3,.8-.8s-.3-.8-.8-.8h-3.8V1.5H31.9v1.8h-3.8c-.4,0-.8,.3-.8,.8s.3,.8,.8,.8h9.1c.4,0,.8-.3,.8-.8s-.3-.8-.8-.8h-3.8V1.5h21.5v1.8h-3.8c-.4,0-.8,.3-.8,.8s.3,.8,.8,.8h9.1c.4,0,.8-.3,.8-.8s-.3-.8-.8-.8h-3.8V1.5h7c.4,0,.8-.3,.8-.8s-.3-.8-.8-.8H1.9c-.4,0-.8,.3-.8,.8s.3,.8,.8,.8Z"/>
        <path class="uuid-9bb9d530-5eeb-4d85-86af-7c9d6829c463" d="M61,8.4v-1.7c0-.4-.3-.8-.8-.8s-.8,.3-.8,.8v.9h-7.6v-.9c0-.4-.3-.8-.8-.8s-.8,.3-.8,.8v1.7c0,.2,0,.4,.2,.5,.1,.1,.3,.2,.5,.2h9.1c.4,0,.8-.3,.8-.8Z"/>
        <path class="uuid-9bb9d530-5eeb-4d85-86af-7c9d6829c463" d="M50.6,16l-.4,2.2c0,.4,.2,.8,.6,.9,0,0,0,0,.1,0,.4,0,.7-.3,.7-.6l.4-2.2c0-.4-.2-.8-.6-.9-.4,0-.8,.2-.9,.6Z"/>
        <path class="uuid-9bb9d530-5eeb-4d85-86af-7c9d6829c463" d="M37.3,13.1l-.4-2.2c0-.4-.5-.7-.9-.6-.4,0-.7,.5-.6,.9l.4,2.2c0,.4,.4,.6,.7,.6s0,0,.1,0c.4,0,.7-.5,.6-.9Z"/>
        <path class="uuid-9bb9d530-5eeb-4d85-86af-7c9d6829c463" d="M37.8,16c0-.4-.5-.7-.9-.6-.4,0-.7,.5-.6,.9l.4,2.2c0,.4,.4,.6,.7,.6s0,0,.1,0c.4,0,.7-.5,.6-.9l-.4-2.2Z"/>
        <path class="uuid-9bb9d530-5eeb-4d85-86af-7c9d6829c463" d="M32.7,15.3c-.4,0-.8,.3-.8,.8v2.2c0,.4,.3,.8,.8,.8s.8-.3,.8-.8v-2.2c0-.4-.3-.8-.8-.8Z"/>
        <path class="uuid-9bb9d530-5eeb-4d85-86af-7c9d6829c463" d="M27.6,16l-.4,2.2c0,.4,.2,.8,.6,.9,0,0,0,0,.1,0,.4,0,.7-.3,.7-.6l.4-2.2c0-.4-.2-.8-.6-.9-.4,0-.8,.2-.9,.6Z"/>
        <path class="uuid-9bb9d530-5eeb-4d85-86af-7c9d6829c463" d="M28.7,14s0,0,.1,0c.4,0,.7-.3,.7-.6l.4-2.2c0-.4-.2-.8-.6-.9-.4,0-.8,.2-.9,.6l-.4,2.2c0,.4,.2,.8,.6,.9Z"/>
        <path class="uuid-9bb9d530-5eeb-4d85-86af-7c9d6829c463" d="M33.5,10.9c0-.4-.3-.8-.8-.8s-.8,.3-.8,.8v2.2c0,.4,.3,.8,.8,.8s.8-.3,.8-.8v-2.2Z"/>
        <path class="uuid-9bb9d530-5eeb-4d85-86af-7c9d6829c463" d="M38,8.4v-1.7c0-.4-.3-.8-.8-.8s-.8,.3-.8,.8v.9h-7.6v-.9c0-.4-.3-.8-.8-.8s-.8,.3-.8,.8v1.7c0,.4,.3,.8,.8,.8h9.1c.4,0,.8-.3,.8-.8Z"/>
        <path class="uuid-9bb9d530-5eeb-4d85-86af-7c9d6829c463" d="M32.7,24.3c.4,0,.8-.3,.8-.8v-2.2c0-.4-.3-.8-.8-.8s-.8,.3-.8,.8v2.2c0,.4,.3,.8,.8,.8Z"/>
        <path class="uuid-9bb9d530-5eeb-4d85-86af-7c9d6829c463" d="M26.6,21.1l-.4,2.2c0,.4,.2,.8,.6,.9,0,0,0,0,.1,0,.4,0,.7-.3,.7-.6l.4-2.2c0-.4-.2-.8-.6-.9-.4,0-.8,.2-.9,.6Z"/>
        <path class="uuid-9bb9d530-5eeb-4d85-86af-7c9d6829c463" d="M37.3,21.4l.4,2.2c0,.4,.4,.6,.7,.6s0,0,.1,0c.4,0,.7-.5,.6-.9l-.4-2.2c0-.4-.5-.7-.9-.6-.4,0-.7,.5-.6,.9Z"/>
        <path class="uuid-9bb9d530-5eeb-4d85-86af-7c9d6829c463" d="M32.7,51.2c.4,0,.8-.3,.8-.8v-11.2c1.4,0,4.5-.4,6.5-2.4,2.7-2.7,2.5-7.1,2.4-7.3,0-.4-.3-.7-.7-.7-.2,0-4.6-.2-7.3,2.4-2.6,2.6-2.5,6.9-2.4,7.3v12c0,.4,.3,.8,.8,.8Zm2.8-18.9c1.6-1.6,4.2-1.9,5.4-2,0,1.2-.4,3.8-2,5.4-1.6,1.6-4.2,1.9-5.4,2,0-1.2,.4-3.8,2-5.4Z"/>
        <path class="uuid-9bb9d530-5eeb-4d85-86af-7c9d6829c463" d="M9.8,51.2c.4,0,.8-.3,.8-.8v-11.2c1.4,0,4.5-.4,6.5-2.4,2.7-2.7,2.4-7.1,2.4-7.3,0-.4-.3-.7-.7-.7-.2,0-4.6-.2-7.3,2.4-2.6,2.6-2.5,6.9-2.4,7.3v12c0,.4,.3,.8,.8,.8Zm2.8-18.9c1.6-1.6,4.2-1.9,5.4-2,0,1.2-.4,3.8-2,5.4-1.6,1.6-4.2,1.9-5.4,2,0-1.2,.4-3.8,2-5.4Z"/>
        <path class="uuid-9bb9d530-5eeb-4d85-86af-7c9d6829c463" d="M7.2,40.8c.4,0,.7-.3,.7-.6,0-.4-.2-.8-.6-.9-1.1-.2-2.7-.7-3.8-1.8-1.6-1.6-1.9-4.2-2-5.4,1.2,0,3.8,.4,5.4,2,0,0,.2,.2,.3,.3,.3,.3,.8,.4,1.1,0,.3-.3,.4-.8,0-1.1-.1-.1-.2-.3-.4-.4-2.7-2.7-7.1-2.5-7.3-2.4-.4,0-.7,.3-.7,.7,0,.2-.2,4.6,2.4,7.3,1.1,1.1,2.7,1.9,4.6,2.2,0,0,0,0,.1,0Z"/>
        <path class="uuid-9bb9d530-5eeb-4d85-86af-7c9d6829c463" d="M65.4,29.5c0-.4-.3-.7-.7-.7-.2,0-4.6-.2-7.3,2.4-2.6,2.6-2.5,6.9-2.4,7.3v12c0,.4,.3,.8,.8,.8s.8-.3,.8-.8v-11.2c1.4,0,4.5-.4,6.5-2.4,2.7-2.7,2.5-7.1,2.4-7.3Zm-3.5,6.3c-1.6,1.6-4.2,1.9-5.4,2,0-1.2,.4-3.8,2-5.4,1.6-1.6,4.2-1.9,5.4-2,0,1.2-.4,3.8-2,5.4Z"/>
        <path class="uuid-9bb9d530-5eeb-4d85-86af-7c9d6829c463" d="M53.2,34.3c.3,.3,.8,.4,1.1,0,.3-.3,.4-.8,0-1.1-.1-.1-.2-.3-.4-.4-2.7-2.7-7.1-2.5-7.3-2.4-.4,0-.7,.3-.7,.7,0,.2-.2,4.6,2.4,7.3,1.1,1.1,2.7,1.9,4.6,2.2,0,0,0,0,.1,0,.4,0,.7-.3,.7-.6,0-.4-.2-.8-.6-.9-1.1-.2-2.7-.7-3.8-1.8-1.6-1.6-1.9-4.2-2-5.4,1.2,0,3.8,.4,5.4,2,0,0,.2,.2,.3,.3Z"/>
        <path class="uuid-9bb9d530-5eeb-4d85-86af-7c9d6829c463" d="M30.2,34.3c.3,.3,.8,.4,1.1,0,.3-.3,.4-.8,0-1.1-.1-.1-.2-.3-.4-.4-2.7-2.7-7.1-2.5-7.3-2.4-.4,0-.7,.3-.7,.7,0,.2-.2,4.6,2.4,7.3,1.1,1.1,2.7,1.9,4.6,2.2,0,0,0,0,.1,0,.4,0,.7-.3,.7-.6,0-.4-.2-.8-.6-.9-1.1-.2-2.7-.7-3.8-1.8-1.6-1.6-1.9-4.2-2-5.4,1.2,0,3.8,.4,5.4,2,0,0,.2,.2,.3,.3Z"/>
        <path class="uuid-9bb9d530-5eeb-4d85-86af-7c9d6829c463" d="M61.4,55.3c-1.1,0-1.7-.5-2.4-1.1-.7-.7-1.7-1.5-3.4-1.5s-2.6,.8-3.4,1.5c-.7,.6-1.2,1.1-2.4,1.1s-1.7-.5-2.4-1.1c-.7-.7-1.7-1.5-3.4-1.5s-2.6,.8-3.4,1.5c-.7,.6-1.2,1.1-2.4,1.1s-1.7-.5-2.4-1.1c-.7-.7-1.7-1.5-3.4-1.5s-2.6,.8-3.4,1.5c-.7,.6-1.2,1.1-2.4,1.1s-1.7-.5-2.4-1.1c-.7-.7-1.7-1.5-3.4-1.5s-2.6,.8-3.4,1.5c-.7,.6-1.2,1.1-2.4,1.1s-1.7-.5-2.4-1.1c-.7-.7-1.7-1.5-3.4-1.5s-2.6,.8-3.4,1.5c-.7,.6-1.2,1.1-2.4,1.1s-.8,.3-.8,.8,.3,.8,.8,.8c1.7,0,2.6-.8,3.4-1.5,.7-.6,1.2-1.1,2.4-1.1s1.7,.5,2.4,1.1c.7,.7,1.7,1.5,3.4,1.5s2.6-.8,3.4-1.5c.7-.6,1.2-1.1,2.4-1.1s1.7,.5,2.4,1.1c.7,.7,1.7,1.5,3.4,1.5s2.6-.8,3.4-1.5c.7-.6,1.2-1.1,2.4-1.1s1.7,.5,2.4,1.1c.7,.7,1.7,1.5,3.4,1.5s2.6-.8,3.4-1.5c.7-.6,1.2-1.1,2.4-1.1s1.7,.5,2.4,1.1c.7,.7,1.7,1.5,3.4,1.5s2.6-.8,3.4-1.5c.7-.6,1.2-1.1,2.4-1.1s1.7,.5,2.4,1.1c.7,.7,1.7,1.5,3.4,1.5s.8-.3,.8-.8-.3-.8-.8-.8Z"/>
      </g>
    </g>
  </g>
</svg>