<?xml version="1.0" encoding="UTF-8"?>
<svg xmlns="http://www.w3.org/2000/svg" viewBox="0 0 60.1 55.6">
  <defs>
    <style>
      .uuid-026dcd82-73bb-459a-9660-ed862906d1d2 {
        fill: #fff;
      }
    </style>
  </defs>
  <g id="uuid-1da3dda3-75ec-4a40-b05a-9612034b574c" data-name="Calque 1"/>
  <g id="uuid-fef4361c-3b55-4feb-9370-1be5c1b93eab" data-name="Calque 2">
    <g id="uuid-b61547db-d3af-404f-b6ec-9e2a2de39f53" data-name="Layer 1">
      <g>
        <g>
          <path class="uuid-026dcd82-73bb-459a-9660-ed862906d1d2" d="M26.9,32.5c0,1.6,1.3,3,3,3s3-1.3,3-3-1.3-3-3-3-3,1.3-3,3Zm4.6,0c0,.9-.7,1.6-1.6,1.6s-1.6-.7-1.6-1.6,.7-1.6,1.6-1.6,1.6,.7,1.6,1.6Z"/>
          <path class="uuid-026dcd82-73bb-459a-9660-ed862906d1d2" d="M29.9,35.5c-1.7,0-3-1.3-3-3s1.3-3,3-3,3,1.3,3,3-1.3,3-3,3Zm0-5.9c-1.6,0-2.9,1.3-2.9,2.9s1.3,2.9,2.9,2.9,2.9-1.3,2.9-2.9-1.3-2.9-2.9-2.9Zm0,4.6c-.9,0-1.7-.8-1.7-1.7s.8-1.7,1.7-1.7,1.7,.8,1.7,1.7-.8,1.7-1.7,1.7Zm0-3.3c-.9,0-1.6,.7-1.6,1.6s.7,1.6,1.6,1.6,1.6-.7,1.6-1.6-.7-1.6-1.6-1.6Z"/>
        </g>
        <g>
          <path class="uuid-026dcd82-73bb-459a-9660-ed862906d1d2" d="M42.4,22.9c.1,.2,.3,.3,.5,.3s.3,0,.4-.1c.3-.2,.4-.6,.1-.9-3.1-4.2-8-6.6-13.5-6.6s-.2,0-.3,0c-5.6,0-10.6,2.6-13.4,6.6-.2,.3-.1,.7,.2,.9,.3,.2,.7,.1,.9-.2,2.5-3.7,7.1-6,12.3-6,0,0,.2,0,.3,0,5.1,0,9.6,2.2,12.4,6.1Z"/>
          <path class="uuid-026dcd82-73bb-459a-9660-ed862906d1d2" d="M42.9,23.3c-.2,0-.4-.1-.6-.3h0c-2.8-3.8-7.3-6-12.4-6s-.2,0-.3,0c-5.2,0-9.8,2.3-12.3,6-.1,.2-.3,.3-.4,.3-.2,0-.4,0-.5-.1-.2-.1-.3-.3-.3-.4,0-.2,0-.4,.1-.5,2.8-4.1,7.8-6.5,13.4-6.6,.1,0,.2,0,.3,0,5.5,0,10.5,2.4,13.5,6.6,.1,.2,.2,.3,.1,.5,0,.2-.1,.3-.3,.5-.1,0-.3,.1-.4,.1Zm-.5-.3c.1,.2,.3,.3,.5,.3s.3,0,.4-.1c.1,0,.2-.2,.3-.4,0-.2,0-.3-.1-.5-3-4.2-7.9-6.6-13.4-6.6s-.2,0-.3,0c-5.6,0-10.6,2.6-13.4,6.6,0,.1-.1,.3,0,.5s.1,.3,.3,.4c.1,0,.3,.1,.5,0,.2,0,.3-.1,.4-.3,2.5-3.7,7.1-6,12.4-6.1,0,0,.2,0,.3,0,5.1,0,9.6,2.2,12.4,6.1h0Z"/>
        </g>
        <g>
          <path class="uuid-026dcd82-73bb-459a-9660-ed862906d1d2" d="M38.4,28.7c.1,.2,.3,.2,.5,.2s.3,0,.4-.1c.3-.2,.3-.6,0-.9-2.7-3.3-6.3-5.1-10-5-3.5,0-6.8,1.9-9.1,5.1-.2,.3-.2,.7,.1,.9,.3,.2,.7,.2,.9-.1,2.1-2.8,5-4.5,8.1-4.5,3.3,0,6.5,1.5,8.9,4.6Z"/>
          <path class="uuid-026dcd82-73bb-459a-9660-ed862906d1d2" d="M38.9,29c-.2,0-.4,0-.5-.3-2.4-2.9-5.5-4.5-8.7-4.5s-.1,0-.2,0c-3.1,0-5.9,1.7-8.1,4.5-.2,.3-.7,.4-1,.1-.3-.2-.4-.7-.1-1,2.4-3.2,5.6-5,9.1-5.1,0,0,.2,0,.2,0,3.6,0,7.1,1.8,9.7,5.1,.1,.1,.2,.3,.2,.5,0,.2-.1,.4-.3,.5-.1,.1-.3,.2-.4,.2Zm-9.2-4.9c3.2,0,6.3,1.6,8.7,4.6h0c.1,.1,.3,.2,.5,.2s.3,0,.4-.1c.1-.1,.2-.3,.2-.4s0-.3-.1-.5c-2.6-3.2-6.1-5-9.7-5s-.2,0-.2,0c-3.5,0-6.7,1.9-9.1,5-.2,.3-.1,.7,.1,.9s.7,.1,.9-.1c2.1-2.9,5-4.5,8.1-4.5,0,0,.1,0,.2,0Z"/>
        </g>
        <g>
          <path class="uuid-026dcd82-73bb-459a-9660-ed862906d1d2" d="M11.6,18.8c.3,.2,.7,.2,.9-.1,3.9-5.3,10.1-8.4,17-8.5,8,0,14.9,5,17.3,8.7,.1,.2,.3,.3,.6,.3s.2,0,.4-.1c.3-.2,.4-.6,.2-.9-1.4-2.1-4-4.4-6.9-6.1-2.6-1.5-6.6-3.2-11.5-3.2-7.3,0-13.9,3.4-18.1,9-.2,.3-.2,.7,.1,.9Z"/>
          <path class="uuid-026dcd82-73bb-459a-9660-ed862906d1d2" d="M47.4,19.2c-.2,0-.5-.1-.6-.3-2.3-3.6-9.2-8.7-17-8.7s-.1,0-.2,0c-6.9,0-13.1,3.2-17,8.4-.2,.3-.7,.4-1,.1-.3-.2-.4-.7-.1-1,4.2-5.6,10.8-8.9,18.1-9,0,0,.1,0,.2,0,4.8,0,8.8,1.7,11.3,3.2,2.9,1.7,5.5,4,6.9,6.1,.1,.2,.1,.3,0,.5,0,.2-.1,.3-.3,.4-.1,0-.2,.1-.4,.1ZM29.8,10.2c7.9,0,14.7,5.1,17.1,8.7,.1,.2,.3,.3,.5,.3s.2,0,.3-.1c.1,0,.2-.2,.3-.4,0-.2,0-.3,0-.5-1.4-2.1-4-4.4-6.9-6.1-2.5-1.5-6.5-3.2-11.3-3.2s-.1,0-.2,0c-7.3,0-13.9,3.4-18,9-.2,.3-.1,.7,.1,.9,.3,.2,.7,.1,.9-.1,3.9-5.3,10.1-8.4,17.1-8.5,0,0,.1,0,.2,0Z"/>
        </g>
        <g>
          <path class="uuid-026dcd82-73bb-459a-9660-ed862906d1d2" d="M30.1,5c.4,0,.7-.3,.7-.7V.7c0-.4-.3-.7-.7-.7s-.7,.3-.7,.7v3.7c0,.4,.3,.7,.7,.7Z"/>
          <path class="uuid-026dcd82-73bb-459a-9660-ed862906d1d2" d="M30.1,5.1c-.4,0-.7-.3-.7-.7V.7c0-.4,.3-.7,.7-.7s.7,.3,.7,.7v3.7c0,.4-.3,.7-.7,.7ZM30.1,0c-.3,0-.6,.3-.6,.6v3.7c0,.3,.3,.6,.6,.6s.6-.3,.6-.6V.7c0-.3-.3-.6-.6-.6Z"/>
        </g>
        <g>
          <path class="uuid-026dcd82-73bb-459a-9660-ed862906d1d2" d="M19.6,6.5c.1,.2,.3,.3,.6,.3s.2,0,.3,0c.3-.2,.4-.6,.2-.9l-1.9-3.2c-.2-.3-.6-.4-.9-.2-.3,.2-.4,.6-.2,.9l1.9,3.2Z"/>
          <path class="uuid-026dcd82-73bb-459a-9660-ed862906d1d2" d="M20.2,6.8c-.2,0-.5-.1-.6-.3l-1.9-3.2c0-.2-.1-.3,0-.5,0-.2,.2-.3,.3-.4,.3-.2,.8,0,1,.2l1.9,3.2c0,.2,.1,.3,0,.5,0,.2-.2,.3-.3,.4-.1,0-.2,.1-.4,.1Zm-1.9-4.5c-.1,0-.2,0-.3,0-.1,0-.2,.2-.3,.4,0,.2,0,.3,0,.5l1.9,3.2c.1,.2,.3,.3,.5,.3s.2,0,.3,0c.1,0,.2-.2,.3-.4,0-.2,0-.3,0-.5l-1.9-3.2c-.1-.2-.3-.3-.5-.3Z"/>
        </g>
        <g>
          <path class="uuid-026dcd82-73bb-459a-9660-ed862906d1d2" d="M39.7,6.7c.1,0,.2,0,.3,0,.2,0,.4-.1,.6-.3l1.9-3.2c.2-.3,0-.7-.2-.9-.3-.2-.7,0-.9,.2l-1.9,3.2c-.2,.3,0,.7,.2,.9Z"/>
          <path class="uuid-026dcd82-73bb-459a-9660-ed862906d1d2" d="M40,6.8c-.1,0-.3,0-.4-.1-.2,0-.3-.3-.3-.4,0-.2,0-.4,0-.5l1.9-3.2c.2-.3,.6-.4,1-.2,.3,.2,.4,.6,.2,1l-1.9,3.2c-.1,.2-.4,.3-.6,.3Zm1.9-4.5c-.2,0-.4,.1-.5,.3l-1.9,3.2c0,.1-.1,.3,0,.5s.1,.3,.3,.4h0c0,0,.2,0,.3,0,.2,0,.4-.1,.5-.3l1.9-3.2c.2-.3,0-.7-.2-.9-.1,0-.2,0-.3,0Z"/>
        </g>
        <g>
          <path class="uuid-026dcd82-73bb-459a-9660-ed862906d1d2" d="M46.7,11.1c.1,0,.3,0,.4-.1l3.2-2.1c.3-.2,.4-.6,.2-.9-.2-.3-.6-.4-.9-.2l-3.2,2.1c-.3,.2-.4,.6-.2,.9,.1,.2,.3,.3,.5,.3Z"/>
          <path class="uuid-026dcd82-73bb-459a-9660-ed862906d1d2" d="M46.7,11.1c-.2,0-.4-.1-.6-.3-.2-.3-.1-.8,.2-1l3.2-2.1c.3-.2,.8-.1,1,.2,.2,.3,.1,.8-.2,1l-3.2,2.1c-.1,0-.3,.1-.4,.1Zm3.2-3.5c-.1,0-.2,0-.3,.1l-3.2,2.1c-.3,.2-.4,.6-.2,.9,.1,.2,.3,.3,.5,.3s.2,0,.4-.1l3.2-2.1c.3-.2,.4-.6,.2-.9-.1-.2-.3-.3-.5-.3Z"/>
        </g>
        <g>
          <path class="uuid-026dcd82-73bb-459a-9660-ed862906d1d2" d="M8.5,8.8l3.2,2.1c.1,0,.2,.1,.4,.1,.2,0,.4-.1,.5-.3,.2-.3,.1-.7-.2-.9l-3.2-2.1c-.3-.2-.7-.1-.9,.2-.2,.3-.1,.7,.2,.9Z"/>
          <path class="uuid-026dcd82-73bb-459a-9660-ed862906d1d2" d="M12,11.1c-.1,0-.3,0-.4-.1l-3.2-2.1c-.3-.2-.4-.7-.2-1,.2-.3,.7-.4,1-.2l3.2,2.1c.3,.2,.4,.7,.2,1-.1,.2-.3,.3-.6,.3Zm-3.5-2.3l3.2,2.1c.1,0,.2,.1,.4,.1,.2,0,.4-.1,.5-.3,.2-.3,.1-.7-.2-.9l-3.2-2.1c-.3-.2-.7-.1-.9,.2-.2,.3-.1,.7,.2,.9h0Z"/>
        </g>
        <g>
          <path class="uuid-026dcd82-73bb-459a-9660-ed862906d1d2" d="M60.1,26.5c0-.3-.3-.6-.6-.6-.1,0-3.2,0-7.2,.7-3.7,.7-9,2.4-12.9,6.2-3.9,3.8-5.6,8.8-6.4,12.4-.7,3.2-.7,5.8-.7,6.7l-2.3,2.2-2-1.9s0,0,0,0c0-.1,0-3.1-.7-6.9-.8-3.6-2.5-8.7-6.4-12.4-3.9-3.8-9.2-5.4-12.9-6.2-4-.8-7.1-.7-7.2-.7-.3,0-.6,.3-.6,.6,0,.1,0,3.1,.7,6.9,.8,3.6,2.5,8.7,6.4,12.4,3.9,3.8,9.2,5.4,12.9,6.2,3,.6,5.4,.7,6.6,.7l2.8,2.7s0,0,0,0c0,0,0,0,0,0,0,0,0,0,0,0,0,0,0,0,0,0,0,0,0,0,0,0,0,0,0,0,0,0,0,0,0,0,.1,0s0,0,.1,0c0,0,0,0,0,0,0,0,0,0,0,0,0,0,0,0,0,0,0,0,0,0,0,0,0,0,0,0,0,0,0,0,0,0,0,0l2.8-2.7h0c.9,0,3.6,0,6.8-.7,3.7-.7,9-2.4,12.9-6.2,3.9-3.8,5.6-8.8,6.4-12.4,.8-3.9,.7-6.8,.7-6.9Zm-40.2,7.2c5.7,5.5,6.6,14,6.7,17.2l-8.4-8.1-3.2-12.4c1.7,.9,3.4,2,4.9,3.4Zm-6.4-4c0,0,0,.2,0,.3l2.9,11.1L2.1,27.2c2.2,0,6.9,.5,11.4,2.4Zm1.6,12l-11.3-3c-1.8-4-2.3-8-2.4-10.3l13.7,13.2Zm-7,3.3c-1.5-1.4-2.6-3-3.5-4.7l12.5,3.3,8.1,7.8c-3.7-.2-11.8-1.3-17.1-6.4ZM58.1,27.2l-15.4,14.6,3.9-11.9c0,0,0-.2,0-.3,4.6-1.9,9.3-2.3,11.5-2.4Zm-17.9,6.5c1.4-1.4,3.1-2.5,4.8-3.3l-4.4,13.4-7.1,6.8c.2-3.4,1.2-11.5,6.7-16.8Zm11.8,11.2c-5.4,5.2-13.9,6.3-17.4,6.4l6.7-6.4s0,0,0,0l14.1-4.6c-.9,1.6-2,3.2-3.4,4.6Zm4.3-6.2l-12.7,4.2,15.2-14.4c-.2,2.3-.7,6.3-2.4,10.2Z"/>
          <path class="uuid-026dcd82-73bb-459a-9660-ed862906d1d2" d="M29.9,55.6s0,0-.1,0h0s0,0,0,0c0,0,0,0,0,0h0s0,0,0,0c0,0,0,0,0,0h0s0,0,0,0l-2.8-2.7c-1.2,0-3.6-.1-6.6-.7-3.7-.7-9-2.4-12.9-6.2-3.9-3.8-5.7-8.8-6.4-12.4C0,29.6,0,26.6,0,26.5c0-.4,.3-.7,.7-.7,.3,0,3.3,0,7.2,.7,3.7,.7,9,2.4,12.9,6.2,3.9,3.8,5.7,8.8,6.4,12.4,.8,3.9,.7,6.8,.7,7h0l1.9,1.9,2.3-2.2c0-1,0-3.5,.7-6.7,.8-3.6,2.5-8.7,6.4-12.4,3.9-3.8,9.2-5.4,12.9-6.2,3.9-.8,6.9-.7,7.2-.7,.4,0,.7,.3,.7,.7h0c0,.1,0,3.1-.7,7-.8,3.6-2.5,8.7-6.4,12.4-3.9,3.8-9.2,5.4-12.9,6.2-3.2,.6-5.9,.7-6.8,.7h0l-2.8,2.7s0,0,0,0h0s0,0,0,0c0,0,0,0,0,0h0s0,0,0,0c0,0,0,0,0,0h0s0,0-.1,0ZM1.1,25.9c-.2,0-.3,0-.4,0-.3,0-.6,.3-.6,.6,0,.1,0,3.1,.7,6.9,.8,3.6,2.5,8.6,6.4,12.4,3.9,3.7,9.2,5.4,12.9,6.1,2.9,.6,5.4,.7,6.6,.7h0l2.8,2.7s0,0,0,0h0s0,0,0,0c0,0,0,0,0,0h0s0,0,0,0h0c0,0,.2,0,.2,0h0s0,0,0,0c0,0,0,0,0,0h0s0,0,0,0c0,0,0,0,0,0h0s0,0,0,0l2.8-2.7h0c1,0,3.6,0,6.8-.7,3.7-.7,9-2.4,12.9-6.1,3.9-3.8,5.6-8.8,6.4-12.4,.8-3.9,.7-6.8,.7-6.9h0c0-.3-.3-.6-.6-.6-.3,0-3.3,0-7.2,.7-3.7,.7-9,2.4-12.9,6.1-3.9,3.8-5.6,8.8-6.4,12.4-.7,3.2-.7,5.7-.7,6.7h0l-2.3,2.3h0l-2-1.9h0c0-.2,0-3.1-.7-7-.8-3.6-2.5-8.6-6.4-12.4-3.9-3.7-9.2-5.4-12.9-6.1-3.2-.6-5.9-.7-6.8-.7Zm33.4,25.5h0l6.7-6.5h0s0,0,0,0l14.1-4.6h0c-1,1.8-2.1,3.4-3.4,4.7-2.4,2.3-5.5,4-9.4,5.1-3.2,.9-6.1,1.2-8,1.3h-.1Zm6.8-6.4l-6.6,6.3c10.2-.6,15.5-4.7,17.3-6.4h0c1.3-1.2,2.4-2.8,3.4-4.5l-14,4.6s0,0,0,0Zm-16,6.4h-.1c-1.9-.1-4.8-.5-8-1.4-3.8-1.1-6.8-2.8-9.1-5h0c-1.4-1.3-2.5-2.9-3.5-4.7h0l12.5,3.2h0l8.2,7.9ZM4.7,40.3c1,1.8,2.1,3.3,3.4,4.6h0c2.3,2.2,5.4,3.9,9.1,5,3.1,.9,5.9,1.3,7.9,1.4l-8-7.7-12.4-3.2Zm21.9,10.6l-8.5-8.2h0l-3.2-12.5h0c1.9,1,3.5,2.1,4.9,3.4h0c2.5,2.4,4.3,5.5,5.4,9.5,1,3.3,1.2,6.2,1.3,7.7h0Zm-8.4-8.1l8.3,8c-.5-10-4.8-15.2-6.7-17-1.3-1.3-2.9-2.4-4.8-3.3l3.2,12.3Zm15.3,7.9h0c0-1.9,.4-4.7,1.4-7.8,1.2-3.8,3-6.9,5.4-9.2h0c1.3-1.3,3-2.4,4.8-3.3h0l-4.4,13.5-7.2,6.8Zm6.7-16.9h0c-1.8,1.8-6.1,6.9-6.7,16.7l7.1-6.7,4.3-13.3c-1.8,.9-3.4,2-4.7,3.3h0Zm3.1,9.3h.1l15.2-14.6h0c-.1,2.2-.6,6.3-2.4,10.3h0l-12.9,4.3Zm15.3-14.4l-15,14.2,12.6-4.1c1.7-3.9,2.3-8,2.4-10.1Zm-16,13.4h0l3.9-12c0,0,0-.2,0-.3h0c4.5-1.9,9.2-2.4,11.5-2.5h0l-15.5,14.8Zm4-12.3c0,0,0,.2,0,.3l-3.8,11.8,15.2-14.4c-2.4,.1-6.9,.6-11.4,2.4Zm-31.4,12.1h-.1l-11.3-3h0c-1.8-4-2.3-8.2-2.4-10.3h0l13.8,13.3Zm-11.4-3.1l11.1,2.9L1.5,28.5c.1,2.1,.7,6.2,2.4,10.1Zm12.6,2.5L2,27.2h0c2.3,.1,6.9,.5,11.4,2.4h0c0,.1,0,.2,0,.3l2.9,11.2ZM2.2,27.3l14.1,13.6-2.8-11c0,0,0-.2,0-.2-4.4-1.8-8.9-2.3-11.3-2.4Z"/>
        </g>
      </g>
    </g>
  </g>
</svg>