<?xml version="1.0" encoding="UTF-8"?>
<svg xmlns="http://www.w3.org/2000/svg" viewBox="0 0 62.8 51.4">
  <defs>
    <style>
      .uuid-c585d8ef-d53b-4490-8b62-d6260eb4e176 {
        fill: #fff;
      }
    </style>
  </defs>
  <g id="uuid-c671cec8-34e0-4f54-ba4a-6c423fee095f" data-name="Calque 1"/>
  <g id="uuid-45e609fd-b9b2-448b-9639-ae921ac2f6ea" data-name="Calque 2">
    <g id="uuid-245a5ae7-ad52-4c5c-9783-64ee0415519a" data-name="Layer 1">
      <g>
        <path class="uuid-c585d8ef-d53b-4490-8b62-d6260eb4e176" d="M57.4,15.9h-15.9c-.2,0-.4,0-.5,.3l-4.1,5c-.6-.1-1.3,0-1.9,.2-.7,.3-1.2,.9-1.5,1.7s-.2,1.5,.2,2.2c.3,.7,.9,1.2,1.7,1.5,.3,.1,.6,.2,.9,.2,.4,0,.9-.1,1.3-.3,.7-.3,1.2-.9,1.5-1.7,.2-.7,.2-1.5-.2-2.2-.2-.4-.4-.7-.7-.9l3.6-4.5h15.6c.4,0,.7-.3,.7-.7s-.3-.7-.7-.7Zm-19.7,8.6c-.1,.4-.4,.7-.8,.9-.4,.2-.8,.2-1.2,0-.4-.1-.7-.4-.9-.8-.2-.4-.2-.8,0-1.2,.1-.4,.4-.7,.8-.9,.2-.1,.4-.2,.7-.2s.3,0,.5,0c.4,.1,.7,.4,.9,.8,.2,.4,.2,.8,0,1.2Z"/>
        <path class="uuid-c585d8ef-d53b-4490-8b62-d6260eb4e176" d="M32.1,20.8c-.2,0-4.9-.1-7.9,2.4-1.4,1.2-2.1,2.8-2.5,4.2v-3c.9-.9,4.2-4.3,4.2-8.4s-4.3-8.5-4.5-8.6c-.3-.2-.6-.2-.9,0-.2,.2-4.5,3.9-4.5,8.6s3.3,7.5,4.3,8.4v3.1c-.3-1.4-1.1-3-2.5-4.3-2.9-2.5-7.7-2.4-7.9-2.4-.4,0-.7,.3-.7,.7,0,.2-.1,4.4,2.9,7,2.7,2.3,6.8,2.4,7.7,2.4s.1,0,.2,0c.1,0,.3,0,.4-.1v4.4c0,.4,.3,.7,.7,.7,.4,0,.7-.3,.7-.7v-4.3c0,0,.2,0,.3,0,0,0,0,0,.2,0,.9,0,5.1-.1,7.7-2.4,3-2.6,2.9-6.8,2.9-7,0-.4-.3-.7-.7-.7Zm-19.1,6.6c-1.8-1.6-2.2-4-2.3-5.1,1.4,0,4.3,.4,6.2,2.1,1.8,1.6,2.3,4,2.4,5.1-1.3,0-4.3-.4-6.2-2.1Zm4.4-11.3c0-3.2,2.5-6.1,3.6-7.1,1.1,1,3.6,3.9,3.6,7.1s-2.4,6-3.5,7.1c0,0,0,0,0,0,0,0,0,0,0,0-1.1-1.1-3.5-3.9-3.5-7.1Zm11.6,11.3c-1.9,1.6-4.9,2-6.2,2.1,.1-1.2,.5-3.6,2.3-5.1,1.9-1.6,4.9-2,6.2-2.1-.1,1.2-.5,3.6-2.3,5.1Z"/>
        <path class="uuid-c585d8ef-d53b-4490-8b62-d6260eb4e176" d="M62.1,50h-22.8v-6.3h20.4c1.2,0,2.2-1,2.2-2.2V2.2c0-1.2-1-2.2-2.2-2.2H3C1.8,0,.9,1,.9,2.2V41.6c0,1.2,1,2.2,2.2,2.2H22.9v6.3H.7c-.4,0-.7,.3-.7,.7s.3,.7,.7,.7H62.1c.4,0,.7-.3,.7-.7s-.3-.7-.7-.7ZM2.3,6.5H60.4v30.3H2.3V6.5Zm0-4.3c0-.4,.3-.8,.8-.8H59.6c.4,0,.8,.3,.8,.8v2.9H2.3V2.2Zm.8,40.2c-.4,0-.8-.3-.8-.8v-3.4H60.4v3.4c0,.4-.3,.8-.8,.8H3Zm21.3,1.4h13.5v6.3h-13.5v-6.3Z"/>
        <path class="uuid-c585d8ef-d53b-4490-8b62-d6260eb4e176" d="M38.6,11.3h18.3c.4,0,.7-.3,.7-.7s-.3-.7-.7-.7h-18.3c-.4,0-.7,.3-.7,.7s.3,.7,.7,.7Z"/>
        <path class="uuid-c585d8ef-d53b-4490-8b62-d6260eb4e176" d="M56.9,30.4h-18.3c-.4,0-.7,.3-.7,.7s.3,.7,.7,.7h18.3c.4,0,.7-.3,.7-.7s-.3-.7-.7-.7Z"/>
      </g>
    </g>
  </g>
</svg>