<?xml version="1.0" encoding="UTF-8"?>
<svg xmlns="http://www.w3.org/2000/svg" viewBox="0 0 69.5 59.8">
  <defs>
    <style>
      .uuid-9bf487cb-06e3-480a-a60e-5dd512b20fac {
        fill: #fff;
      }
    </style>
  </defs>
  <g id="uuid-1079b855-cfae-4fcf-91ec-4e61f8f7cad9" data-name="Calque 1"/>
  <g id="uuid-40c5d56a-37a6-4541-8c5a-5e145eb46ba7" data-name="Calque 2">
    <g id="uuid-59368a31-1843-47be-a48d-ff885f56d1ca" data-name="Layer 1">
      <g>
        <path class="uuid-9bf487cb-06e3-480a-a60e-5dd512b20fac" d="M9.3,35.5h2.4c.4,0,.8-.3,.8-.8v-7.3c0-2.9,2.4-5.3,5.3-5.3h25.5c.9,0,1.7,.7,1.7,1.7s-.7,1.7-1.7,1.7h-13.4c-1.1,0-2,.9-2,2v7.3c0,.4,.3,.8,.8,.8s.8-.3,.8-.8v-7.3c0-.3,.2-.5,.5-.5h13.4c1.8,0,3.2-1.4,3.2-3.2s-1.4-3.2-3.2-3.2H17.8c-3.8,0-6.8,3.1-6.8,6.8v6.5h-1.7c-1.6,0-2.9-1.3-2.9-2.9V4.4c0-1.6,1.3-2.9,2.9-2.9H60.2c1.6,0,2.9,1.3,2.9,2.9V31.1c0,1.6-1.3,2.9-2.9,2.9h-26.7c-.4,0-.8,.3-.8,.8s.3,.8,.8,.8h26.7c2.4,0,4.4-2,4.4-4.4V4.4c0-2.4-2-4.4-4.4-4.4H9.3c-2.4,0-4.4,2-4.4,4.4V31.1c0,2.4,2,4.4,4.4,4.4Z"/>
        <path class="uuid-9bf487cb-06e3-480a-a60e-5dd512b20fac" d="M37.2,10h17c.4,0,.8-.3,.8-.8s-.3-.8-.8-.8h-17c-.4,0-.8,.3-.8,.8s.3,.8,.8,.8Z"/>
        <path class="uuid-9bf487cb-06e3-480a-a60e-5dd512b20fac" d="M37.2,14.9h14.6c.4,0,.8-.3,.8-.8s-.3-.8-.8-.8h-14.6c-.4,0-.8,.3-.8,.8s.3,.8,.8,.8Z"/>
        <path class="uuid-9bf487cb-06e3-480a-a60e-5dd512b20fac" d="M15.8,12.9c0,3.1,2.5,5.6,5.6,5.6s5.6-2.5,5.6-5.6-2.5-5.6-5.6-5.6-5.6,2.5-5.6,5.6Zm9.7,0c0,2.3-1.8,4.1-4.1,4.1s-4.1-1.8-4.1-4.1,1.8-4.1,4.1-4.1,4.1,1.8,4.1,4.1Z"/>
        <path class="uuid-9bf487cb-06e3-480a-a60e-5dd512b20fac" d="M10.5,50.1c3.1,0,5.6-2.5,5.6-5.6s-2.5-5.6-5.6-5.6-5.6,2.5-5.6,5.6,2.5,5.6,5.6,5.6Zm0-9.7c2.3,0,4.1,1.8,4.1,4.1s-1.8,4.1-4.1,4.1-4.1-1.8-4.1-4.1,1.8-4.1,4.1-4.1Z"/>
        <path class="uuid-9bf487cb-06e3-480a-a60e-5dd512b20fac" d="M10.5,52.2c-6.9,0-10.5,2.3-10.5,6.8s.3,.8,.8,.8,.8-.3,.8-.8c0-3.6,2.9-5.3,9-5.3s9,1.7,9,5.3,.3,.8,.8,.8,.8-.3,.8-.8c0-4.5-3.5-6.8-10.5-6.8Z"/>
        <path class="uuid-9bf487cb-06e3-480a-a60e-5dd512b20fac" d="M29.1,44.5c0,3.1,2.5,5.6,5.6,5.6s5.6-2.5,5.6-5.6-2.5-5.6-5.6-5.6-5.6,2.5-5.6,5.6Zm9.7,0c0,2.3-1.8,4.1-4.1,4.1s-4.1-1.8-4.1-4.1,1.8-4.1,4.1-4.1,4.1,1.8,4.1,4.1Z"/>
        <path class="uuid-9bf487cb-06e3-480a-a60e-5dd512b20fac" d="M34.7,52.2c-6.9,0-10.5,2.3-10.5,6.8s.3,.8,.8,.8,.8-.3,.8-.8c0-3.6,2.9-5.3,9-5.3s9,1.7,9,5.3,.3,.8,.8,.8,.8-.3,.8-.8c0-4.5-3.5-6.8-10.5-6.8Z"/>
        <path class="uuid-9bf487cb-06e3-480a-a60e-5dd512b20fac" d="M59,38.8c-3.1,0-5.6,2.5-5.6,5.6s2.5,5.6,5.6,5.6,5.6-2.5,5.6-5.6-2.5-5.6-5.6-5.6Zm0,9.7c-2.3,0-4.1-1.8-4.1-4.1s1.8-4.1,4.1-4.1,4.1,1.8,4.1,4.1-1.8,4.1-4.1,4.1Z"/>
        <path class="uuid-9bf487cb-06e3-480a-a60e-5dd512b20fac" d="M59,52.2c-6.9,0-10.5,2.3-10.5,6.8s.3,.8,.8,.8,.8-.3,.8-.8c0-3.6,2.9-5.3,9-5.3s9,1.7,9,5.3,.3,.8,.8,.8,.8-.3,.8-.8c0-4.5-3.5-6.8-10.5-6.8Z"/>
      </g>
    </g>
  </g>
</svg>