<?xml version="1.0" encoding="UTF-8"?>
<svg xmlns="http://www.w3.org/2000/svg" viewBox="0 0 63.4 57">
  <defs>
    <style>
      .uuid-3ce3c3ec-eb15-4064-b3e7-edce44c6d1c5 {
        fill: #fff;
      }
    </style>
  </defs>
  <g id="uuid-6276d950-ab9c-4197-8318-fbd19c45c25b" data-name="Calque 1"/>
  <g id="uuid-aeae39cc-279c-48cc-bd7f-49c4b24b0017" data-name="Calque 2">
    <g id="uuid-936bd6b1-adb1-4ec0-9744-2b4947d96d31" data-name="Layer 1">
      <g>
        <path class="uuid-3ce3c3ec-eb15-4064-b3e7-edce44c6d1c5" d="M62.6,55.5H1.5c-.4,0-.8,.3-.8,.8s.3,.8,.8,.8H62.6c.4,0,.8-.3,.8-.8s-.3-.8-.8-.8Z"/>
        <path class="uuid-3ce3c3ec-eb15-4064-b3e7-edce44c6d1c5" d="M52.2,20.2v30.2c-1.6,.3-2.7,1.7-2.7,3.4s.3,.8,.8,.8,.8-.3,.8-.8c0-1.1,.9-1.9,1.9-2,0,0,0,0,0,0s0,0,0,0c1.1,0,1.9,.9,1.9,2s.3,.8,.8,.8,.8-.3,.8-.8c0-1.7-1.2-3.1-2.7-3.4V20.9c1.5,0,4.8-.4,7-2.6,2.9-2.9,2.6-7.6,2.6-7.8,0-.4-.3-.7-.7-.7-.2,0-5-.3-7.8,2.6-2.8,2.8-2.6,7.4-2.6,7.8Zm3.7-6.7c1.8-1.8,4.6-2.1,6-2.2,0,1.3-.4,4.2-2.2,6-1.8,1.8-4.6,2.1-6,2.2,0-1.3,.4-4.2,2.2-6Z"/>
        <path class="uuid-3ce3c3ec-eb15-4064-b3e7-edce44c6d1c5" d="M.8,33c.4,0,.8-.3,.8-.8V9.2c0-.4-.3-.8-.8-.8S0,8.8,0,9.2v23c0,.4,.3,.8,.8,.8Z"/>
        <path class="uuid-3ce3c3ec-eb15-4064-b3e7-edce44c6d1c5" d="M2.6,24.6c0,.4,.3,.8,.8,.8h1.9c.8,0,1.5-.7,1.5-1.5h0c.1,0,.3,.2,.6,.2h5.4c.3,1.3,1.4,2.4,2.7,2.7,.3,0,.6,.1,.9,.1,1.7,0,3.2-1.2,3.7-2.9,.5-2-.7-4.1-2.8-4.6-.8-.2-1.6-.1-2.3,.2l-7.5-1.8c-.3,0-.6,0-.8,.3v-.4c0-.8-.7-1.5-1.5-1.5h-1.9c-.4,0-.8,.3-.8,.8s.3,.8,.8,.8h1.9v6.1h-1.9c-.4,0-.8,.3-.8,.8Zm14.3-3.7c1.2,.3,1.9,1.5,1.6,2.7-.3,1.2-1.5,1.9-2.7,1.6-1.2-.3-1.9-1.5-1.6-2.7,.3-1,1.2-1.7,2.2-1.7s.4,0,.5,0Zm-9.7-1.6l6.2,1.5c-.3,.4-.6,.9-.7,1.4,0,.1,0,.2,0,.3H7.3c-.2,0-.4,.1-.6,.3v-3.7c.1,.1,.2,.2,.4,.3Z"/>
        <path class="uuid-3ce3c3ec-eb15-4064-b3e7-edce44c6d1c5" d="M19.1,19.8c0,0,.1,0,.2,0,.3,0,.7-.2,.7-.6l.3-1.4,5.6,1.4c.2,0,.3,0,.5,0,.4,0,.7,0,1-.3,.4-.3,.8-.7,.9-1.2l.6-2.6c0-.4-.1-.8-.6-.9-.4-.1-.8,.1-.9,.6l-.6,2.6c0,.1-.1,.2-.2,.3-.1,0-.2,0-.3,0L9.4,13.7c-.2,0-.3-.2-.3-.3l-1-3.3c-.1-.4-.5-.6-.9-.5-.4,.1-.6,.5-.5,.9l1,3.3c.2,.7,.7,1.2,1.4,1.3l6.1,1.5-.3,1.3c0,.4,.1,.8,.6,.9,0,0,.1,0,.2,0,.3,0,.7-.2,.7-.6l.3-1.3,2.2,.5-.3,1.4c0,.4,.1,.8,.6,.9Z"/>
        <path class="uuid-3ce3c3ec-eb15-4064-b3e7-edce44c6d1c5" d="M29.3,18.6l.9,.2c.1,0,.2,0,.3,0,.2,0,.5,0,.7-.2,.3-.2,.5-.5,.6-.9l1-4.3c0-.4-.1-.8-.6-.9-.4-.1-.8,.1-.9,.6l-1,4.1-.8-.2c-.4-.1-.8,.1-.9,.5-.1,.4,.1,.8,.5,.9Z"/>
        <path class="uuid-3ce3c3ec-eb15-4064-b3e7-edce44c6d1c5" d="M30.5,35.3v15.1c-1.6,.3-2.7,1.7-2.7,3.4s.3,.8,.8,.8,.8-.3,.8-.8c0-1.1,.9-1.9,1.9-2,0,0,0,0,0,0s0,0,0,0c1.1,0,1.9,.9,1.9,2s.3,.8,.8,.8,.8-.3,.8-.8c0-1.7-1.2-3.1-2.7-3.4v-14.4c1.5,0,4.8-.4,7-2.6,2.9-2.9,2.6-7.6,2.6-7.8,0-.4-.3-.7-.7-.7-.2,0-5-.3-7.8,2.6-2.8,2.8-2.6,7.4-2.6,7.8Zm9.6-8.9c0,1.3-.4,4.2-2.2,6-1.8,1.8-4.6,2.1-6,2.2,0-1.3,.4-4.2,2.2-6,1.8-1.8,4.6-2.1,6-2.2Z"/>
        <path class="uuid-3ce3c3ec-eb15-4064-b3e7-edce44c6d1c5" d="M17.3,45.3c2.9-2.9,2.6-7.6,2.6-7.8,0-.4-.3-.7-.7-.7-.2,0-5-.3-7.8,2.6-2.8,2.8-2.6,7.4-2.6,7.8v3.3c-1.6,.3-2.7,1.7-2.7,3.4s.3,.8,.8,.8,.8-.3,.8-.8c0-1.1,.9-1.9,1.9-2,0,0,0,0,0,0s0,0,0,0c1.1,0,1.9,.9,1.9,2s.3,.8,.8,.8,.8-.3,.8-.8c0-1.7-1.2-3.1-2.7-3.4v-2.5c1.5,0,4.8-.4,7-2.6Zm-4.9-4.9c1.8-1.8,4.6-2.1,6-2.2,0,1.3-.4,4.2-2.2,6-1.8,1.8-4.6,2.1-6,2.2,0-1.3,.4-4.2,2.2-6Z"/>
        <path class="uuid-3ce3c3ec-eb15-4064-b3e7-edce44c6d1c5" d="M7.6,49.6s0,0,.1,0c.4,0,.7-.3,.7-.6,0-.4-.2-.8-.6-.9-1.2-.2-2.9-.8-4.1-2-1.8-1.8-2.1-4.6-2.2-6,1.3,0,4.2,.4,6,2.2,.1,.1,.2,.2,.3,.3,.3,.3,.8,.4,1.1,0,.3-.3,.4-.8,0-1.1-.1-.1-.2-.3-.4-.4-2.9-2.9-7.6-2.6-7.8-2.6-.4,0-.7,.3-.7,.7,0,.2-.3,5,2.6,7.8,1.2,1.2,2.9,2,4.9,2.4Z"/>
        <path class="uuid-3ce3c3ec-eb15-4064-b3e7-edce44c6d1c5" d="M51,22.6s0,0,.1,0c.4,0,.7-.3,.7-.6,0-.4-.2-.8-.6-.9-1.2-.2-2.9-.8-4.1-2-1.8-1.8-2.1-4.6-2.2-6,1.3,0,4.2,.4,6,2.2,.1,.1,.2,.2,.3,.3,.3,.3,.8,.4,1.1,0,.3-.3,.4-.8,0-1.1-.1-.1-.2-.3-.4-.4-2.9-2.9-7.6-2.6-7.8-2.6-.4,0-.7,.3-.7,.7,0,.2-.3,5,2.6,7.8,1.2,1.2,2.9,2,4.9,2.4Z"/>
        <path class="uuid-3ce3c3ec-eb15-4064-b3e7-edce44c6d1c5" d="M6.8,9.3l17.8,4.4c.7,.2,1.4,.3,2.1,.3,3.9,0,7.5-2.7,8.5-6.6,0-.4-.1-.8-.6-.9L9.1,0c-1-.2-1.9,.4-2.2,1.3l-1.4,5.7c-.2,1,.4,1.9,1.3,2.2Zm.2-1.8l1.4-5.7c0-.1,.2-.2,.3-.2l24.8,6.1c-1.2,3.4-4.9,5.4-8.5,4.6L7.2,7.8c-.1,0-.2-.2-.2-.3Z"/>
        <path class="uuid-3ce3c3ec-eb15-4064-b3e7-edce44c6d1c5" d="M29.3,37.7s0,0,.1,0c.4,0,.7-.3,.7-.6,0-.4-.2-.8-.6-.9-1.2-.2-2.9-.8-4.1-2-1.8-1.8-2.1-4.6-2.2-6,1.3,0,4.2,.4,6,2.2,.1,.1,.2,.2,.3,.3,.3,.3,.8,.4,1.1,0,.3-.3,.4-.8,0-1.1-.1-.1-.2-.3-.4-.4-2.9-2.9-7.6-2.6-7.8-2.6-.4,0-.7,.3-.7,.7,0,.2-.3,5,2.6,7.8,1.2,1.2,2.9,2,4.9,2.4Z"/>
      </g>
    </g>
  </g>
</svg>