<?xml version="1.0" encoding="UTF-8"?>
<svg xmlns="http://www.w3.org/2000/svg" viewBox="0 0 65 59.9">
  <defs>
    <style>
      .uuid-f08fb779-9abb-48ee-b984-fd28302a0e46 {
        fill: #fff;
      }
    </style>
  </defs>
  <g id="uuid-2c9a3471-63ab-443a-88da-c19de8013bd8" data-name="Calque 1"/>
  <g id="uuid-81a6ddbe-d7e8-40f5-b458-11ae012aad82" data-name="Calque 2">
    <g id="uuid-25218b1d-79b0-4436-9f39-12e8e94be4e4" data-name="Layer 1">
      <g>
        <path class="uuid-f08fb779-9abb-48ee-b984-fd28302a0e46" d="M42.3,32c0-8.7-8.6-18.1-9-18.5-.1-.1-.3-.2-.5-.2-.1,0-.3,0-.4,0-.2,0-.3,0-.4,.2-.4,.4-9,9.7-9,18.5s2.7,7.4,4.9,8.7c1.5,.9,3,1.4,3.9,1.6v4.1c0,.4,.3,.7,.7,.7s.7-.3,.7-.7v-4c0,0,.2-.1,.4-.2,1.2-.3,3.3-1,5.2-2.6,2.3-1.9,3.5-4.5,3.5-7.7Zm-9-2l5.4-6.2c.9,1.9,1.7,3.9,2,5.9,0,0,0,0,0,0l-7.4,7.4v-7.3Zm4.7-7.5l-4.7,5.4V15.6c1.1,1.4,3.1,3.9,4.7,6.9Zm-6.2-6.5v11.9l-4.4-5.4c1.5-2.7,3.3-5,4.4-6.4Zm-5.1,7.8l5.1,6.3v7.4l-7-7.7s0,0-.1-.1c.4-2,1.1-4,2-5.8Zm2,15.8c-2.8-1.7-4.2-4.2-4.2-7.5s0-.4,0-.6l7.4,8.1v1.3c-.8-.2-2-.6-3.2-1.3Zm4.6,1.3v-1.6l7.6-7.7c0,.1,0,.2,0,.3,0,6.3-5.3,8.3-7.6,8.9Z"/>
        <path class="uuid-f08fb779-9abb-48ee-b984-fd28302a0e46" d="M64.3,30.3h-8.6c-.2,0-.4,0-.5,.2l-3.4,3.8V2.9c0-1.6-1.3-2.9-2.9-2.9H15.5c-1.6,0-2.9,1.3-2.9,2.9V11.9l-3.4-3.8c-.1-.2-.3-.2-.5-.2H.7c-.4,0-.7,.3-.7,.7s.3,.7,.7,.7h7.7l4.2,4.8V57.1c0,1.6,1.3,2.9,2.9,2.9H48.9c1.6,0,2.9-1.3,2.9-2.9v-20.6l4.2-4.8h8.3c.4,0,.7-.3,.7-.7s-.3-.7-.7-.7ZM14,2.9c0-.8,.6-1.4,1.4-1.4H48.9c.8,0,1.4,.6,1.4,1.4v6.3H14V2.9ZM50.3,57.1c0,.8-.6,1.4-1.4,1.4H15.5c-.8,0-1.4-.6-1.4-1.4v-6.3H50.3v6.3Zm0-7.7H14V15.6l4.1,4.7c0,.1-.1,.2-.2,.4-.7,1.5-.1,3.3,1.3,4,.4,.2,.9,.3,1.3,.3s.6,0,1-.2c.8-.3,1.4-.8,1.7-1.5,.4-.7,.4-1.5,.2-2.3-.3-.8-.8-1.4-1.5-1.7-.7-.4-1.5-.4-2.3-.2-.2,0-.3,.1-.5,.2l-5.2-5.9v-2.9H50.3v25.4l-5.2,5.8c-.2,0-.3-.2-.5-.2-.8-.3-1.6-.2-2.3,.2-.7,.4-1.3,1-1.5,1.7-.3,.8-.2,1.6,.2,2.3,.4,.7,1,1.3,1.7,1.5,.3,.1,.6,.2,1,.2,.5,0,.9-.1,1.3-.3,1.5-.7,2.1-2.5,1.3-4,0-.1-.1-.2-.2-.4,0,0,4.1-4.7,4.1-4.7v11.3ZM20.1,20.5c.2,0,.3,0,.5,0,.2,0,.5,0,.7,.2,.4,.2,.7,.5,.8,.9,.1,.4,.1,.8,0,1.2-.2,.4-.5,.7-.9,.8-.4,.1-.8,.1-1.2,0-.8-.4-1.1-1.3-.7-2.1,.2-.4,.5-.7,.9-.8Zm25.1,23.2c.4,.8,0,1.7-.7,2.1-.4,.2-.8,.2-1.2,0-.4-.1-.7-.4-.9-.8-.2-.4-.2-.8,0-1.2,.1-.4,.4-.7,.8-.9,.2-.1,.5-.2,.7-.2s.3,0,.5,0c.4,.1,.7,.4,.9,.8Z"/>
        <path class="uuid-f08fb779-9abb-48ee-b984-fd28302a0e46" d="M32.2,2.9c-1.4,0-2.6,1.2-2.6,2.6s1.2,2.6,2.6,2.6,2.6-1.2,2.6-2.6-1.2-2.6-2.6-2.6Zm0,3.8c-.7,0-1.2-.5-1.2-1.2s.5-1.2,1.2-1.2,1.2,.5,1.2,1.2-.5,1.2-1.2,1.2Z"/>
        <path class="uuid-f08fb779-9abb-48ee-b984-fd28302a0e46" d="M22.2,55.4h19.9c.4,0,.7-.3,.7-.7s-.3-.7-.7-.7H22.2c-.4,0-.7,.3-.7,.7s.3,.7,.7,.7Z"/>
      </g>
    </g>
  </g>
</svg>