<?xml version="1.0" encoding="UTF-8"?>
<svg xmlns="http://www.w3.org/2000/svg" viewBox="0 0 62.4 48.1">
  <defs>
    <style>
      .uuid-3bddcf35-7855-498a-b9eb-8bb8a36a5841 {
        fill: #fff;
      }
    </style>
  </defs>
  <g id="uuid-fa29948d-4ad8-4b84-b5e8-3f12419d27f6" data-name="Calque 1"/>
  <g id="uuid-37b984ed-5fb0-4e9b-87f1-b4ef095b7a89" data-name="Calque 2">
    <g id="uuid-9781c435-f3ba-4a11-9f8a-08c28d7c8234" data-name="Layer 1">
      <g>
        <path class="uuid-3bddcf35-7855-498a-b9eb-8bb8a36a5841" d="M29,2.6c0-.5,0-1,0-1.3-.1-.4-.4-.8-.7-1-.2-.1-.4-.2-.7-.2-.4,0-.7,0-1.1,0-.1,0-.3,0-.4,0H6.1c-.5,0-1,0-1.5,0C3.6,0,2.4,0,1.4,0h0C.9,.1,.5,.4,.3,.7,.1,.9,0,1.2,0,1.4,0,1.8,0,2.2,0,2.5c0,.1,0,.3,0,.4v3.6c0,.2,0,.4,0,.6,0,.7,0,1.4,.1,2.1,.2,.8,.6,1.5,1,2.1,0,.1,.2,.3,.3,.4,.5,.9,1,1.7,1.5,2.6l1.4,2.4c.1,.2,.2,.4,.3,.6,.2,.4,.4,.7,.6,1.1-.6,.4-1,1-1.2,1.7-.2,.7,0,1.5,.4,2.1,.3,.5,.7,.8,1.1,1-.2,.2-.4,.4-.5,.6h0c-1.6,2-2.7,4.3-3,6.8,0,.6-.1,3.3,0,8.2v6.3c0,.1,0,.3,0,.4,0,.4,0,.8,0,1.1,0,.2,.1,.5,.3,.7,.3,.3,.6,.5,1,.6,.2,0,.3,0,.5,0s.2,0,.3,0c0,0,.2,0,.3,0H24.1c.2,0,.3,0,.5,0,.4,0,.7,0,1.1,0,.4,0,.7-.1,1-.3,.2-.2,.3-.4,.5-.6h0c.1-.5,0-1,0-1.4,0-.1,0-.3,0-.4v-5.5c0-.8,0-7.3,0-8.1,0-.5,0-1.1-.2-1.6-.3-1.5-.8-2.9-1.6-4.2-.5-.8-1.1-1.6-1.7-2.2-.1-.1-.2-.2-.3-.3,.6-.3,1-.8,1.3-1.4,.3-.7,.3-1.5,0-2.2-.2-.5-.6-.9-1-1.3,.5-.7,.9-1.5,1.3-2.2,.3-.5,.6-1,.9-1.5l1.7-3c0-.2,.2-.3,.3-.5,.2-.3,.4-.6,.6-1,.2-.4,.3-.8,.4-1.3,.1-.6,.1-1.3,0-2,0-.2,0-.4,0-.6V3c0-.1,0-.3,0-.4Zm-1.4,0H4.1c-.9,0-1.8,0-2.8,0,0-.9,0-1.1,0-1.1,0,0,.2,0,.3,0H27.2c0,0,.3,0,.4,0,.1,.1,.1,.8,0,1.1Zm-1.8,42.6c0,.1,0,.3,0,.4,0,.3,0,.6,0,1,0,0,0,.1,0,.2,0,0,0,0-.2,0-.2,0-.4,0-.7,0,0,0-.2,0-.3,0h-1.6c0-1.3-.4-2.7-1.1-3.9-1.1-2-3-3.4-5.3-4-.5-.1-1.2-.3-1.9-.3-2.3,0-4.5,.7-6.1,2.3-1.6,1.6-2.6,3.6-2.7,5.9h-1.7c0,0-.2,0-.3,0-.2,0-.5,0-.7,0,0,0,0,0,0,0,0-.3,0-.5,0-.8,0-.1,0-.2,0-.3v-4.2c0-2.9,0-7.8,0-9.3,0-2.5,1-5,2.6-6.9,.4-.4,.8-.8,1.2-1.2h.1c1-.1,2-.1,3-.1,.7,0,1.4,0,2.1,0h0c1.5,0,3,0,4.4,0,.6,0,1.2,0,1.9,0,.7,0,1.4,0,2.1,0h.3c.3,0,.6,0,.9,0,.2,.1,.4,.3,.5,.5h.1c1.5,1.6,2.5,3.4,3,5.4,.2,.6,.2,1.2,.3,2,0,.5,0,4.9,0,6.6v6.9Zm-16.7-2.8c1.2-1.4,3-2.2,5-2.4h0c0,0,.2,0,.3,0h.1c1.9,0,3.8,.8,5.2,2.2,1.2,1.2,1.9,2.9,2,4.6-2.3,0-4.5,0-6.8,0H7.3c.1-1.7,.8-3.2,1.8-4.4Zm14.2-20.5c-.3,.4-.6,.5-1.1,.6H8.4c-.2,0-.3,0-.5,0-.4,0-.8,0-1.1,0-.3,0-.6-.2-.8-.4-.3-.2-.5-.6-.5-1,0-.4,.1-.8,.4-1.1,.3-.3,.6-.5,1.1-.5h13.8c.2,0,.3,0,.5,0,.4,0,.8,0,1.2,0,.3,0,.5,.1,.7,.3,.3,.3,.5,.6,.5,1,0,.4,0,.8-.3,1.1Zm-2.3-3.8c-.1,0-.2,0-.3,0,0-.8,0-1.6,0-2.5,0-.4,0-.8,0-1.2,0-.2,0-.3,0-.5,0-.4,0-.8,0-1.2,0-.2,0-.3-.2-.4-.1-.1-.3-.2-.5-.2-.2,0-.3,0-.5,.2-.1,.1-.2,.3-.2,.5,0,.2,0,.3,0,.5,0,0,0,.1,0,.2v4.6c-.8,0-1.5,0-2.2,0-.4,0-.8,0-1.1,0-.2,0-.5,0-.7,0v-3.5c0-.2,0-.3,0-.5,0-.4,0-.9,0-1.2,0-.2,0-.4-.2-.6-.1-.1-.2-.2-.4-.2-.2,0-.4,0-.6,.2-.2,.2-.2,.4-.2,.5,0,.3,0,.7,0,1,0,.2,0,.3,0,.5,0,.4,0,.8,0,1.2,0,.8,0,1.7,0,2.6-.3,0-.6,0-.9,0-.2,0-.3,0-.5,0h-2.7c0-1.1,0-2.3,0-3.4,0-.2,0-.4,0-.6,0-.2,0-.4,0-.6s0-.2,0-.2c0-.2,0-.3,0-.5,0-.2,0-.3-.1-.4,0-.1-.2-.2-.4-.2-.2,0-.4,0-.6,.1-.1,.1-.2,.3-.2,.5,0,.3,0,.7,0,1.1,0,.2,0,.3,0,.5v2.9c0,.3,0,.6,0,.9-.1,0-.3,0-.5,0-.4,0-.9,0-1.4,0,0-.2-.2-.3-.3-.5l-3.2-5.6c-.2-.4-.5-.8-.7-1.2v-.2c-.4-.5-.7-1-.8-1.5-.1-.5-.1-1.1-.1-1.7v-2.1c0-.7,0-.8,0-.9,0,0,0,0,0-.4v-.2H27.7v2.2c0,.2,0,.4,0,.6,0,.8,0,1.7-.1,2.3-.1,.5-.4,1.1-.7,1.6,0,.1-.2,.3-.2,.4l-1.4,2.4-2.7,4.7c-.5,0-1,0-1.5,0Z"/>
        <path class="uuid-3bddcf35-7855-498a-b9eb-8bb8a36a5841" d="M17.3,25.9c-.1-.9-1-1.6-1.9-1.5-.6,0-1.1,.5-1.4,1-.2,.6-.2,1.2,.2,1.7,.3,.4,.8,.7,1.4,.7s.2,0,.2,0c.9-.1,1.6-1,1.5-1.9Zm-2,.3c0,0,0-.2,0-.3s.1-.1,.2-.1h0s0,0,0,0c.2,0,.3,.1,.3,.3,0,.2-.1,.4-.3,.4,0,0-.2,0-.3,0,0,0-.1-.1-.1-.2Z"/>
        <path class="uuid-3bddcf35-7855-498a-b9eb-8bb8a36a5841" d="M18.2,30.5c-.9,.2-1.5,1-1.3,1.9,.1,.8,.9,1.4,1.7,1.4s.2,0,.3,0c.6,0,1.1-.5,1.3-1.1,.2-.6,.1-1.2-.3-1.7-.4-.5-1-.7-1.6-.6Zm.6,1.8c0,.1-.1,.2-.2,.2-.2,0-.3,0-.4-.2s0-.3,.2-.4c.1,0,.2,0,.3,0,0,0,0,.2,0,.3Z"/>
        <path class="uuid-3bddcf35-7855-498a-b9eb-8bb8a36a5841" d="M10.8,31.6c.6,0,1.1-.5,1.3-1.1,.2-.6,0-1.2-.3-1.7-.4-.5-1-.7-1.6-.6-.9,.2-1.5,1-1.3,1.9,.1,.8,.9,1.4,1.7,1.4s.2,0,.3,0Zm-.2-1.3c-.2,0-.3,0-.4-.2,0-.2,0-.3,.2-.4,.1,0,.2,0,.3,0,0,0,.1,.2,0,.3,0,.1-.1,.2-.2,.2Z"/>
        <path class="uuid-3bddcf35-7855-498a-b9eb-8bb8a36a5841" d="M11.6,34.3c-.6,0-1.1,.4-1.4,.9-.3,.5-.2,1.2,0,1.7,.3,.5,.8,.8,1.4,.8s0,0,.1,0h0c.9,0,1.6-.9,1.6-1.8,0-.9-.8-1.6-1.8-1.6Zm.4,1.6c0,0,0,.2,0,.2s-.1,.1-.2,.1c0,0-.1,0-.1,0-.1,0-.2-.2-.2-.3,0-.1,.1-.3,.2-.3h0s0,0,0,0c0,0,.1,0,.2,0,0,0,.1,.1,.1,.2Z"/>
        <path class="uuid-3bddcf35-7855-498a-b9eb-8bb8a36a5841" d="M43.2,19.9s0,0,.1,0c.4,0,.7-.3,.7-.6,0-.4-.2-.8-.6-.9-1.8-.3-4.4-1.1-6.3-3-2.9-2.9-3.3-7.6-3.3-9.4,1.8,0,6.5,.4,9.4,3.3,.2,.2,.3,.3,.5,.5,.3,.3,.8,.4,1.1,0,.3-.3,.4-.8,0-1.1-.2-.2-.4-.4-.5-.6-4.1-4.1-11-3.8-11.3-3.7-.4,0-.7,.3-.7,.7,0,.3-.4,7.2,3.7,11.3,1.7,1.7,4.1,2.9,7.1,3.4Z"/>
        <path class="uuid-3bddcf35-7855-498a-b9eb-8bb8a36a5841" d="M60.8,42.1c-2.5,0-3.8,1.2-5,2.2-1.1,1-2,1.8-3.9,1.8s-2.7-.7-3.7-1.6v-11.4c1.4,0,4.2-.4,6.1-2.3,2.6-2.6,2.3-6.8,2.3-7,0-.4-.3-.7-.7-.7-.2,0-4.4-.2-7,2.3-.3,.3-.5,.6-.7,.9v-8.8c2,0,7.1-.4,10.5-3.7,4.1-4.1,3.8-11,3.7-11.3,0-.4-.3-.7-.7-.7-.3,0-7.2-.4-11.3,3.7-4,4-3.8,10.7-3.7,11.2v13.9c-.1,1,0,1.7,0,1.8,0,0,0,.2,0,.3v10.6c-.9-.6-2-1.1-3.7-1.1-2.5,0-3.8,1.2-5,2.2-1.1,1-2,1.8-3.9,1.8s-.8,.3-.8,.8,.3,.8,.8,.8c2.5,0,3.8-1.2,5-2.2,1.1-1,2-1.8,3.9-1.8s2.7,.7,3.8,1.6c0,.2,.2,.3,.4,.4,1.1,1,2.4,2,4.7,2s3.8-1.2,5-2.2c1.1-1,2-1.8,3.9-1.8s.8-.3,.8-.8-.3-.8-.8-.8ZM51.5,6.5c2.9-2.9,7.6-3.3,9.4-3.3,0,1.8-.4,6.5-3.3,9.4-2.9,2.9-7.6,3.3-9.4,3.3,0-1.8,.4-6.5,3.3-9.4Zm-1.5,19.9c1.5-1.5,3.9-1.8,5.1-1.9,0,1.2-.4,3.6-1.9,5.1-1.5,1.5-3.8,1.8-5.1,1.9v-.8c.2-1.3,.6-3.1,1.8-4.3Z"/>
      </g>
    </g>
  </g>
</svg>