<?xml version="1.0" encoding="UTF-8"?>
<svg xmlns="http://www.w3.org/2000/svg" viewBox="0 0 57.7 62.7">
  <defs>
    <style>
      .uuid-8ca86232-ed59-4a06-ab6a-62054c3e3eb0 {
        fill: #fff;
      }
    </style>
  </defs>
  <g id="uuid-ced8a154-cb72-4cd3-af0d-dd68c6359a35" data-name="Calque 1"/>
  <g id="uuid-e3811972-b4cb-49f7-8691-6f4a914392be" data-name="Calque 2">
    <g id="uuid-4b9c7072-fb74-4601-a2b9-61504441d2bc" data-name="Layer 1">
      <g>
        <path class="uuid-8ca86232-ed59-4a06-ab6a-62054c3e3eb0" d="M22.5,31.6h0Z"/>
        <path class="uuid-8ca86232-ed59-4a06-ab6a-62054c3e3eb0" d="M31.9,23.1s0,0,0,0c0,0,0,0,0,0h0Z"/>
        <path class="uuid-8ca86232-ed59-4a06-ab6a-62054c3e3eb0" d="M47.2,46.1h0s0,0,0,0h0Z"/>
        <path class="uuid-8ca86232-ed59-4a06-ab6a-62054c3e3eb0" d="M7.5,18.4s0,0,0,0c0,0,0,0,0,0,0,0,0,0,0,0Z"/>
        <path class="uuid-8ca86232-ed59-4a06-ab6a-62054c3e3eb0" d="M21.3,27.8h0s0,0,0,0c0,0,0,0,0,0Z"/>
        <path class="uuid-8ca86232-ed59-4a06-ab6a-62054c3e3eb0" d="M52.7,46.3c0,0,.1-.2,.2-.2,0,0-.1,0-.2,0v.2Z"/>
        <path class="uuid-8ca86232-ed59-4a06-ab6a-62054c3e3eb0" d="M22,50.1s0,0,.1-.1c0,0,0,0-.1,0v.2Z"/>
        <path class="uuid-8ca86232-ed59-4a06-ab6a-62054c3e3eb0" d="M45,46.1s0,0,0,0c0,0-.2,0-.3,0,.1,0,.3,.1,.3,.2,0,0,0-.1,0-.2,0,0,0,0,0,0Z"/>
        <path class="uuid-8ca86232-ed59-4a06-ab6a-62054c3e3eb0" d="M22,34.1c0-.1,.2-.2,.3-.3,0,0-.2,0-.3,0v.2Z"/>
        <path class="uuid-8ca86232-ed59-4a06-ab6a-62054c3e3eb0" d="M49.9,53.2s0,0,0,0h0Z"/>
        <path class="uuid-8ca86232-ed59-4a06-ab6a-62054c3e3eb0" d="M50.5,46.2h0c0,0,0,0,0,0,0,0,0,0,0,0Z"/>
        <path class="uuid-8ca86232-ed59-4a06-ab6a-62054c3e3eb0" d="M29.4,.1h0c-.3,0-.7,.3-1.1,.8-1.4,1.8-3.2,4.1-4.6,6.7-.3,.6-.6,1.1-.7,1.6-.7,2.1-.4,4.4,.9,6.2,.5,.7,1.1,1.3,1.7,1.7,.5,.4,1.2,.7,1.8,.9,.6,.2,1.1,.3,1.7,.3,0,0,.2,0,.3,0,.2,0,.3,0,.4,0,.5,0,1-.1,1.5-.3,2-.6,3.5-1.9,4.3-3.8,.4-.8,.6-1.5,.6-2.3,0-1,0-2.1-.5-3.1-.4-1-.9-1.9-1.4-2.8-.5-.7-1-1.5-1.7-2.4-.8-1.1-1.6-2-2.4-3-.3-.4-.6-.6-.9-.6Zm3.2,15.5c-1,.7-2.1,1.1-3.2,1.1s-2.2-.4-3.1-1.1c-1.1-.9-1.9-2.1-2.1-3.4-.2-1,0-2,.3-3,.2-.6,.5-1.1,.9-1.6,1.1-1.8,2.4-3.6,3.7-5.3,0,0,0,0,.1,0v-.2l.5,.5c1.8,2.3,3.4,4.4,4.6,6.8,1,2.2,.3,4.8-1.6,6.3Z"/>
        <path class="uuid-8ca86232-ed59-4a06-ab6a-62054c3e3eb0" d="M29.1,0c-.4,.2-.8,.7-1.1,1,0,0,0,.1-.1,.2,.1-.2,.2-.3,.4-.5,.3-.4,.6-.7,.9-.8Z"/>
        <polygon class="uuid-8ca86232-ed59-4a06-ab6a-62054c3e3eb0" points="29.4 0 29.4 0 29.4 0 29.4 0 29.4 0"/>
        <path class="uuid-8ca86232-ed59-4a06-ab6a-62054c3e3eb0" d="M29.1,0s0,0,.1,0c0,0,0,0-.1,0Z"/>
        <path class="uuid-8ca86232-ed59-4a06-ab6a-62054c3e3eb0" d="M28.2,18.3h0c.2,0,.5,0,.9,0-.6,0-1.2-.1-1.7-.3,.3,0,.5,.2,.8,.2Z"/>
        <path class="uuid-8ca86232-ed59-4a06-ab6a-62054c3e3eb0" d="M30.7,18.3c.2,0,.5-.1,.7-.2-.5,.1-1,.2-1.5,.3,.4,0,.7,0,.8,0Z"/>
        <path class="uuid-8ca86232-ed59-4a06-ab6a-62054c3e3eb0" d="M29.4,2v.2s.1,0,.2,0c1.3,1.7,2.6,3.5,3.8,5.3,.3,.5,.6,1.1,.9,1.6,.7,1.6,.6,3.5-.4,5-1,1.5-2.6,2.4-4.4,2.5h0c-1.8,0-3.4-.9-4.4-2.4-.4-.6-.7-1.3-.8-2,.2,1.3,.9,2.6,2.1,3.4,.9,.7,2,1.1,3.1,1.1s2.3-.4,3.2-1.1c2-1.5,2.6-4.1,1.6-6.3-1.1-2.4-2.8-4.6-4.6-6.8l-.4-.5Z"/>
        <path class="uuid-8ca86232-ed59-4a06-ab6a-62054c3e3eb0" d="M36.3,12c0-.9,0-1.9-.3-2.8-.2-.6-.6-1.3-1.1-2.2-.2-.3-.3-.5-.5-.8,.5,.9,1,1.8,1.4,2.8,.4,1,.6,2.1,.5,3.1Z"/>
        <path class="uuid-8ca86232-ed59-4a06-ab6a-62054c3e3eb0" d="M22.8,9.3c-.6,1.7-.5,3.5,.3,5.1,.6,1.2,1.4,2.1,2.4,2.8-.7-.5-1.2-1-1.7-1.7-1.3-1.8-1.6-4.1-.9-6.2,.2-.5,.4-1,.7-1.6,1.4-2.6,3.2-4.9,4.6-6.7,.5-.6,.8-.8,1.1-.8h0c.3,0,.6,.2,.9,.6,.8,.9,1.6,1.9,2.4,3-.6-.8-1.2-1.7-2-2.6C30.5,.7,29.9,0,29.4,0h0c0,0-.1,0-.2,0,0,0,0,0-.1,0h0c-.3,.1-.5,.4-.9,.8-.1,.2-.2,.3-.4,.5-1.8,2.3-3.1,4.3-3.9,5.7-.5,.9-.9,1.6-1.1,2.2Z"/>
        <path class="uuid-8ca86232-ed59-4a06-ab6a-62054c3e3eb0" d="M56.7,9.6c.1-.2,.2-.3,.2-.5,0-.3-.3-.7-.8-1.1-.2-.2-.4-.3-.6-.4-2.1-1.3-4.3-2-6.6-1.9h0c0,0-.2,0-.3,0,0,0-.2,0-.3,0s-.2,0-.3,0c-2.4,.2-4.6,1-6.4,2.5-.3,.2-.6,.5-.7,.9,0,.2,0,.4,.2,.6,.2,.3,.5,.3,.8,.3,.1,0,.3-.2,.6-.4,1.9-1.5,3.9-2.2,6.4-2.2s4.5,.7,6.4,2.2c0,0,.1,.1,.2,.1,.4,.3,.8,.5,1.3,0Z"/>
        <path class="uuid-8ca86232-ed59-4a06-ab6a-62054c3e3eb0" d="M49.7,5.5c-.3,0-.6,0-.9,0s-.2,0-.3,0c0,0,.2,0,.3,0,.3,0,.6,0,.8,0Z"/>
        <path class="uuid-8ca86232-ed59-4a06-ab6a-62054c3e3eb0" d="M40.8,8.8h0Z"/>
        <path class="uuid-8ca86232-ed59-4a06-ab6a-62054c3e3eb0" d="M44.2,6.4h0Z"/>
        <path class="uuid-8ca86232-ed59-4a06-ab6a-62054c3e3eb0" d="M41.5,8c.2-.2,.4-.3,.7-.5-.1,0-.3,.2-.4,.3-.2,.2-.8,.6-.9,1,0-.3,.4-.6,.7-.8Z"/>
        <path class="uuid-8ca86232-ed59-4a06-ab6a-62054c3e3eb0" d="M43.3,6.8h0Z"/>
        <path class="uuid-8ca86232-ed59-4a06-ab6a-62054c3e3eb0" d="M44.9,6.1c0,0,.2,0,.2,0,0,0-.2,0-.2,0Z"/>
        <path class="uuid-8ca86232-ed59-4a06-ab6a-62054c3e3eb0" d="M45.6,5.9c.2,0,.3,0,.5-.1-.2,0-.3,0-.5,.1Z"/>
        <path class="uuid-8ca86232-ed59-4a06-ab6a-62054c3e3eb0" d="M49.9,5.5c.1,0,.3,0,.4,0-.1,0-.3,0-.4,0Z"/>
        <path class="uuid-8ca86232-ed59-4a06-ab6a-62054c3e3eb0" d="M46.5,5.7c0,0,.1,0,.2,0,0,0-.1,0-.2,0Z"/>
        <path class="uuid-8ca86232-ed59-4a06-ab6a-62054c3e3eb0" d="M42.4,7.3c0,0,.2-.1,.2-.2,0,0-.2,0-.2,.2Z"/>
        <path class="uuid-8ca86232-ed59-4a06-ab6a-62054c3e3eb0" d="M41.1,9.6c.2,.2,.5,.3,.7,.2h0s0,0,.1,0c-.3,0-.5,0-.8-.3-.2-.2-.2-.4-.2-.6,0-.4,.4-.7,.7-.9,1.8-1.4,4-2.3,6.4-2.5,.1,0,.2,0,.3,0s.2,0,.3,0c0,0,.2,0,.3,0h0c2.3,0,4.6,.6,6.6,1.9,.2,.1,.4,.3,.6,.4,.5,.4,.8,.8,.8,1.1,0,.2,0,.3-.2,.5-.5,.5-.8,.3-1.3,0,.3,.2,.5,.3,.5,.3,.3,0,.5,0,.7-.2,.2-.2,.3-.5,.3-.8,0-.4-.7-.9-.9-1-1.7-1.2-3.6-2-5.7-2.2-.1,0-.3,0-.4,0,0,0-.1,0-.2,0-.3,0-.5,0-.8,0,0,0-.2,0-.3,0-.7,0-1.3,0-2,.2,0,0-.1,0-.2,0-.1,0-.3,0-.4,0-.2,0-.3,0-.5,.1-.1,0-.3,0-.4,.1,0,0-.2,0-.2,0-.2,0-.4,.2-.7,.3h0c-.3,.1-.5,.3-.8,.4h0c-.2,.1-.5,.3-.7,.4,0,0-.2,0-.2,.2,0,0-.2,.1-.3,.2-.2,.2-.4,.3-.7,.5-.3,.2-.6,.5-.7,.8h0c0,.3,0,.6,.3,.8Z"/>
        <path class="uuid-8ca86232-ed59-4a06-ab6a-62054c3e3eb0" d="M53.5,13.3c.2,0,.3-.3,.4-.6,0-.4-.2-.7-.5-1-1-1-2.7-1.6-4.5-1.6h0c-1.8,0-3.4,.6-4.4,1.7-.4,.5-.7,.8-.4,1.3,.2,.2,.3,.3,.5,.3,.1,0,.3,0,.5-.1h0c1.3-1.1,2.3-1.6,3.8-1.6h0c1.5,0,2.5,.6,3.4,1.3,.2,.2,.5,.3,.7,.4,.2,0,.4,0,.6,0Z"/>
        <path class="uuid-8ca86232-ed59-4a06-ab6a-62054c3e3eb0" d="M44,12.1c0-.1,.2-.2,.3-.3-.1,.1-.2,.2-.3,.3Z"/>
        <path class="uuid-8ca86232-ed59-4a06-ab6a-62054c3e3eb0" d="M44.3,11.7c0,0,.1-.1,.2-.2,0,0-.1,.1-.2,.2Z"/>
        <path class="uuid-8ca86232-ed59-4a06-ab6a-62054c3e3eb0" d="M43.9,12.2s0,0,0,0c0,0,0,0,0,0,0,0,0,0,0,0Z"/>
        <path class="uuid-8ca86232-ed59-4a06-ab6a-62054c3e3eb0" d="M50.9,10.3c-.2,0-.3-.1-.5-.1-.4,0-.9-.1-1.5-.1h0c-.7,0-1.2,0-1.6,.1-.2,0-.5,.1-.8,.2,1.4-.5,3-.5,4.4-.1Z"/>
        <path class="uuid-8ca86232-ed59-4a06-ab6a-62054c3e3eb0" d="M43.8,12.3s0,0,0,0c0,0,0,0,0,0Z"/>
        <path class="uuid-8ca86232-ed59-4a06-ab6a-62054c3e3eb0" d="M44.1,13.2c.2,.2,.6,.3,1,0-.2,0-.4,.1-.5,.1-.2,0-.3-.1-.5-.3-.3-.5,0-.8,.4-1.3,1-1,2.6-1.6,4.4-1.7h0c1.8,0,3.5,.6,4.5,1.6,.3,.3,.5,.6,.5,1,0,.3-.2,.5-.4,.6-.2,0-.3,.1-.6,0-.2,0-.5-.2-.7-.4,.1,.1,.3,.2,.4,.3,.4,.3,.7,.2,1,0,.3-.2,.4-.7,.2-1h0c-.6-.9-1.8-1.5-2.9-1.9-1.4-.4-3-.3-4.4,.1-.7,.3-1.4,.7-2,1.1,0,0-.1,.1-.2,.2h0c-.1,.1-.2,.2-.3,.4,0,0,0,0,0,.1,0,0,0,0,0,0,0,0,0,0,0,0,0,0,0,0,0,0-.1,.3,0,.7,.3,.9Z"/>
        <path class="uuid-8ca86232-ed59-4a06-ab6a-62054c3e3eb0" d="M50.9,16.4c.2-.3,.1-.6-.2-1-.5-.5-1.1-.7-1.9-.7-.8,0-1.4,.4-1.8,1-.2,.3-.2,.6,0,.9,.2,.3,.5,.4,.8,.3,0,0,.1,0,.2,0,0,0,0,0,.1,0,.2-.1,.6-.3,.9-.3,.3,0,.6,.2,.8,.3,.1,0,.2,0,.3,.1,0,0,0,0,.1,0,0,0,0,0,0,0,.1,0,.2,0,.3,0,.2,0,.3-.3,.4-.4Z"/>
        <path class="uuid-8ca86232-ed59-4a06-ab6a-62054c3e3eb0" d="M47.6,14.9c-.4,.2-.7,.5-.8,.8,0,0,0,0,0,.1,0,0,0-.2,.1-.3,.2-.3,.5-.5,.7-.7Z"/>
        <path class="uuid-8ca86232-ed59-4a06-ab6a-62054c3e3eb0" d="M49.7,16.6h0c.1,0,.2,.1,.3,.2,0,0,0,0,0,0,0,0,0,0-.1,0-.1,0-.2-.1-.3-.1Z"/>
        <path class="uuid-8ca86232-ed59-4a06-ab6a-62054c3e3eb0" d="M46.9,16.6c.2,.2,.4,.3,.6,.3,0,0,0,0,.1,0,0,0,.1,0,.2,0,0,0-.1,0-.2,0-.3,.1-.6,0-.8-.3-.2-.3-.2-.6,0-.9,.4-.6,1-.9,1.8-1,.8,0,1.4,.2,1.9,.7,.3,.3,.4,.6,.2,1,0,.1-.2,.3-.4,.4,.1,0,.2-.1,.3-.3,.2-.3,.3-.6,.2-.9-.3-.7-1.4-1.1-2.1-1.1h0c-.4,0-.8,.1-1.3,.3-.3,.2-.5,.4-.7,.7,0,0-.1,.2-.1,.3,0,.2,0,.5,.2,.8Z"/>
        <path class="uuid-8ca86232-ed59-4a06-ab6a-62054c3e3eb0" d="M49.1,19.1h0c0,0-.1,0-.2,0,0,0,.2,0,.3,0,0,0,0,0,0,0Z"/>
        <path class="uuid-8ca86232-ed59-4a06-ab6a-62054c3e3eb0" d="M53.4,26.9c-.3,0-.7,0-1,0-.3,0-.5,0-.8,0-.6,0-1,0-1.3-.1h-.2c0,0-.1,0-.2,0,0,0,0-.1,0-.2,0-1.2,0-2.3,0-3.2,0,0,0,0,0,0,0-.8,0-1.6,0-2.4h0c0-.9,0-1.4-.8-1.4-.8,0-.9,.5-.9,1.3v.2c0,.3,0,.6,0,.9,0,.1,0,.2,0,.4,0,.3,0,.7,0,1,0,.7,0,1.5,0,2.2,0,.3,0,.5,0,.7,0,.2,0,.3,0,.5,0,.1,0,.2-.2,.2h-.2c-.2,0-.6,.1-1.1,.1-.4,0-.8,0-1.1,0-.5,0-.9,0-1.4,0-2.5,.1-4.2,1.8-4.2,4.3,0,1.1,0,2.3,0,3.4,0,.5,0,1,0,1.5v1.3c0,1.1,0,2.2,0,3.3,0,0,0,.1,0,.2,0,.2,0,.4,0,.6h0c0,.3,0,.4-.2,.4h-.1c0,0-.2,0-.3,0-1.6,.2-3.1,.8-4.5,1.4-.2,0-.4,.2-.6,.2-1,.4-2.1,.2-2.8,0-.6-.2-1.3-.5-1.8-.8-1.8-.9-3.6-1-5.5-.4-.1,0-.3,.1-.4,.2-.3,.1-.7,.3-1,.3-.1,0-.2,0-.3,.1,0,0-.1,0-.2,0,0,0-.1-.1-.1-.2v-.6c0-.2,0-.4,0-.6,0,0,0-.2,0-.2,0-1.4,0-2.8,0-4.3v-.8c0-.4,0-.8,0-1.1v-1.2c0-.1,0-.2,.2-.2,.4,0,.9-.1,1.7-.2,1.7-.2,3.3-.8,4.8-1.6,2.5-1.4,4.2-3.5,5-6.6,0,0,0-.2,0-.3,0,0,0-.2,0-.2,.1-.6,.2-1.3,.3-2,0-.6,0-.9-.2-1.1-.2-.2-.5-.3-.9-.3,0,0-.1,0-.2,0-4.8,0-8.2,1.8-10.2,5.4,0,0,0,.2-.1,.3-.1,.2-.2,.5-.5,.7,0,.2-.1,.3-.2,.5,0,0-.1,.1-.2,.1,0,0-.2,0-.2-.2,0-.3,0-.6-.1-.8h0c0-.2,0-.4-.1-.6,0-.2,0-.3-.1-.5,0-.1,0-.3-.1-.4-1.2-4.2-4-7-8.2-8.3-1.5-.5-3.2-.6-4.7-.8h-.6c-.5-.1-.9,0-1.1,.1-.2,.2-.3,.5-.2,1,.3,5.5,2.5,9.4,6.5,11.8,.2,.1,.4,.3,.7,.4,.1,0,.3,.1,.4,.2,0,0,.1,0,.2,0,1.7,.8,3.4,1.4,5.2,1.7,0,0,.1,0,.2,0,.3,0,.6,0,.9,.1,.2,0,.4,.2,.4,.4,0,0,0,0,0,0,.1,.3,.1,.6,.1,1.2,0,2.3,0,4.8,0,7.8,0,.4,0,.6,0,.8v.3c0,0,0,.2-.1,.2,0,0-.2,0-.2,0-.1,0-.2,0-.3-.1-.2,0-.3,0-.6-.2-2.3-.9-4.6-.7-6.9,.6-1.4,.9-3,.9-4.8,.2-.3-.1-.6-.2-.8-.4-.3-.1-.6-.3-.8-.4-1.4-.6-3-.6-4.6-.2-.4,0-.9,.4-.8,1,.1,.5,.5,.5,1,.5,0,0,.2,0,.3,0,.1,0,.2,0,.3,0,1.1-.2,2.2-.1,3.2,.3h0c.2,0,.4,.2,.5,.3,.8,.4,1.6,.7,2.3,.9,.5,.1,1.1,.2,1.6,.2,.6,0,1.2,0,1.8-.3,.7-.2,1.4-.6,2.1-.9,1.4-.8,2.9-.9,4.4-.5h0s0,0,.1,0c.3,.1,.6,.2,.9,.4,0,0,.2,0,.2,.1,.3,.1,.6,.3,.8,.4,.1,0,.2,.2,.2,.3,0,.1,0,.3,0,.4,0,0,0,.2,0,.3,.1,.6,0,1.2-.5,1.9-1,1.4-2.3,2.3-3.8,2.7-.5,.2-1.1,.3-1.6,.4-.4,0-.7,.2-1.1,.3-1.9,.5-3.4,1.4-4.5,2.7-.4,.4-.7,.8-.8,1.3,0,.3,0,.6,.2,.7,.3,.2,.6,.2,.8,0,.1,0,.2-.2,.3-.3,.4-.5,.8-1,1.3-1.4,1.2-1.1,2.7-1.5,4.2-1.8,0,0,.2,0,.2,0,0,0,0,.1,0,.2,0,.1-.1,.3-.2,.4h0c0,.2,0,.4,0,.5-.3,1-.5,2.1-.5,3.5,0,.6,.2,.9,.7,.9h0c.6,0,.7-.5,.7-.7,0,0,0-.2,0-.3,0-1.8,.3-3.5,1.7-4.9,.7-.7,1.5-1.4,2.3-2,0,0,0,0,.1,0s0,0,0,0c0,0,0,0,0,0h.1v10.5c0,.2,0,.4,0,.6v.5c0,.6,.1,1,.7,1.1,.7,0,.8-.4,.8-1.1,0-.3,0-.7,0-1v-2.7c0-2.2,0-4.4,0-6.7,0,0,0-.1,0-.2,0-.2,0-.3,0-.5v-.6c0,0,0-.2,.1-.2,0,0,.2,0,.2,0,.1,0,.2,.1,.3,.2h0c0,0,.2,.2,.3,.2,2.6,1.8,3.7,3.7,3.7,6.3,0,.5,0,1,0,1.4,0,.6,.3,.9,.8,.8,.4,0,.6-.2,.7-.8,0-.3,0-.5,0-.7,0-.2,0-.5,0-.7,0-.1,0-.2,0-.3-.1-.8-.2-1.5-.4-2.3-.1-.4-.3-.9-.5-1.3,0,0,0-.1,0-.2,0,0,.1,0,.2,0,.5,.2,1,.4,1.4,.5,.3,0,.6,.2,.9,.3,.2,0,.4,.1,.6,.2,.5,.2,.9,.4,1.4,.7,.6,.4,1.2,.8,1.6,1.4,.3,.3,.5,.5,.8,.5,.2,0,.3,0,.5-.2,.5-.4,.2-1,0-1.3-.2-.3-.5-.6-.9-.9-1.2-1-2.6-1.7-4.3-2h-.4c-.8-.3-1.6-.4-2.4-.8-2-.8-3.3-1.9-4.1-3.3-.2-.4-.4-.8-.5-1.2,0,0,0,0,0-.1,0-.3,0-.6,0-.9,0,0,0-.2,.2-.2,.9-.4,1.4-.6,1.5-.6,1.5-.6,2.9-.8,4.2-.4,.2,0,.5,.2,.7,.3,.3,.1,.6,.3,.9,.4,.4,.2,.8,.4,1.3,.6,1.4,.4,2.8,.4,4.1,0,0,0,0,0,.1,0,.4-.1,.8-.3,1.2-.5,.5-.3,1.1-.6,1.6-.7,.7-.2,1.5-.2,2.3-.2,.2,0,.3,0,.4,.2,0,0,.1,.2,.2,.2,.2,.2,.5,.4,.7,.6,0,.1,.2,.2,.3,.3,.9,.7,2.1,1,3.4,.9,0,0,.2,0,.2,0,0,0,0,.2,0,.2,0,.2,0,.4,0,.6,0,.3,0,.6,0,1.1v.3c0,.4,0,.9,0,1.3,.1,.9,.4,1.6,.7,2.1,0,0,0,0,0,0,.2,.3,.5,.5,.8,.7,.2,0,.3,.2,.5,.3,0,0,.2,0,.3,.1,.2,0,.3,.3,.3,.4,0,.1,0,.2,0,.3,0,.3,.1,.7,0,1.2,0,1.2,0,2.4,0,3.5v.6c0,.5,.2,.7,.6,.8,.6,0,.8-.3,.9-.7,0-.3,0-.6,0-.9v-.2c0-.3,0-.6,0-.8,0-.2,0-.4,0-.6,0-.3,0-.7,0-1.1,0-.3,0-.6,0-.9,0-.2,0-.4,0-.5,0-.3,0-.6,0-.8,0,0,0-.2,.1-.2,.2,0,.4-.2,.5-.3,0,0,.2-.1,.3-.2,.1,0,.2-.1,.3-.2,.6-.4,.9-1,1.2-1.6,.1-.3,.2-.7,.2-1.1,0-.3,0-.6,0-1,0-.3,0-.6,0-1,0,0,0-.1,0-.2,0-.2,0-.3,0-.5,0-.3,0-.5,0-.8,0-.1,0-.2,.2-.2,.4,0,.7,0,.9,0,0,0,.1,0,.2,0,0,0,0,0,.1,0,.5,0,1-.3,1.4-.5,1.2-.6,2-1.8,2.3-3.2,0-.2,0-.4,0-.6,.1-3.8,.1-7.3,0-10.7,0-.6-.1-1.1-.3-1.5,0,0,0,0,0-.1-.6-1.4-2-2.3-3.8-2.4Zm-31.2,4.8c0-.3,.1-.6,.2-.9,.1-1.3,.7-2.6,1.5-3.9,1.2-1.9,3-3.2,5.2-3.7,.4-.1,.8-.2,1.1-.2,.5,0,1,0,1.5,0s0,0,.1,0c0,0,.2,0,.2,.1,0,0,0,.2,0,.3,0,0,0,.1,0,.2,0,.1,0,.3,0,.5-.5,2.7-1.7,4.6-3.5,6-1.4,1-3.2,1.7-5.3,1.9-.1,0-.2,0-.3,0s-.2,0-.3,0c-.1,0-.2,0-.3,0h0s0,0-.1,0c0,0,0,0,0-.2h0Zm-2.5-1.6c0,0,0,.1,0,.2,0,0,0,0-.2,0s0,0,0,0c0,0-.2,0-.2,0,0,0-.1,0-.2,0s-.2,0-.3,0c-7.7-1.4-10.2-6.1-11-9.5-.2-.9-.3-1.7-.4-2.4,0,0,0-.1,0-.1s0,0,.1,0c1.7,.1,3.2,.4,4.5,.8,.1,0,.3,0,.4,.1,0,0,0,0,.1,0,4.3,1.4,6.6,4.7,7.2,10.3,0,.2,0,.4,0,.5,0,0,0,.1,0,.2Zm31.1,18.4h0s0,0,0,.2c0,.3,0,.7,0,1.1-.2,1-.9,1.7-1.8,1.7h0c-.7,0-1.3-.4-1.6-1-.2-.4-.3-.8-.3-1.3v-3.1c0,0,0-.2,.2-.2h1.8c.2,0,.5,0,.6,0h1s0,0,.1,0c0,0,0,0,0,.1v.7c0,.4,0,.9,0,1.7Zm5.3-10.8c0,1.1,0,2.2,0,3.2,0,2.2-1.1,3.3-3.2,3.4-1.4,0-2.7,0-4.2,0s-2.7,0-4.2,0c-1.5,0-2.5-.6-3-1.8-.1-.3-.2-.7-.2-1,0-.2,0-.3,0-.5,0-3,0-6.1,0-9.2,0,0,0-.1,0-.2v-.2c0-1.6,1.3-2.8,2.8-2.8h9c.7,0,1.3,.2,1.8,.6,.7,.5,1.1,1.4,1.1,2.6,0,1.1,0,2.2,0,3.3,0,.5,0,1,0,1.4,0,.4,0,.9,0,1.3Z"/>
        <path class="uuid-8ca86232-ed59-4a06-ab6a-62054c3e3eb0" d="M20.3,62.5s0,0,0,0c0,0,0,0,0,0Z"/>
        <path class="uuid-8ca86232-ed59-4a06-ab6a-62054c3e3eb0" d="M25.7,22.8c0,0,.2-.1,.3-.2,0,0-.2,.1-.3,.2Z"/>
        <path class="uuid-8ca86232-ed59-4a06-ab6a-62054c3e3eb0" d="M14.2,56.1c0,.3,0,.6,0,.9,0,.2,0,.4,.2,.5,0-.2-.1-.4-.1-.6,0-.3,0-.5,0-.8Z"/>
        <path class="uuid-8ca86232-ed59-4a06-ab6a-62054c3e3eb0" d="M20.2,46.1s0,0,0,0c0,0,0,0,0,0Z"/>
        <path class="uuid-8ca86232-ed59-4a06-ab6a-62054c3e3eb0" d="M48,57.9c0,.3,0,.5,0,.8,0,.3,0,.5,.1,.7,0-.1,0-.3,0-.4,0-.3,0-.7,0-1Z"/>
        <path class="uuid-8ca86232-ed59-4a06-ab6a-62054c3e3eb0" d="M53.4,26.8c.5,0,1.1,.1,1.5,.3-.6-.2-1.2-.4-1.9-.3-.2,0-.9,0-2.1,0,.2,0,.4,0,.7,0,.6,0,1.2,0,1.8,0Z"/>
        <path class="uuid-8ca86232-ed59-4a06-ab6a-62054c3e3eb0" d="M52.3,44.2h-6.7c2.2,0,4.5,0,6.7,0Z"/>
        <path class="uuid-8ca86232-ed59-4a06-ab6a-62054c3e3eb0" d="M21.8,27.3c0-.1,.1-.2,.2-.4,0,.1-.1,.2-.2,.4Z"/>
        <path class="uuid-8ca86232-ed59-4a06-ab6a-62054c3e3eb0" d="M20.2,62.3s0,0,0,0c0,0,0,0,0,0Z"/>
        <path class="uuid-8ca86232-ed59-4a06-ab6a-62054c3e3eb0" d="M46.6,26.8c.1,0,.2,0,.3,0-1.5,0-2.3,0-2.5,0-.9,0-1.7,.2-2.5,.6,.6-.3,1.3-.5,2.1-.6,.8,0,1.7,0,2.5,0Z"/>
        <path class="uuid-8ca86232-ed59-4a06-ab6a-62054c3e3eb0" d="M6.2,16.4c-.2,0-.3,0-.4,.2-.2,.2-.2,.4-.2,.7,0-.5,.2-.8,.6-.9Z"/>
        <path class="uuid-8ca86232-ed59-4a06-ab6a-62054c3e3eb0" d="M.3,42.6c-.1,.1-.3,.3-.3,.4,0,.2,0,.4,.2,.6,0,0,0-.1,0-.2,0-.3,0-.6,.2-.8Z"/>
        <path class="uuid-8ca86232-ed59-4a06-ab6a-62054c3e3eb0" d="M2.4,42c-.4,0-.9,0-1.3,.2,0,0-.1,0-.2,0,0,0,0,0,.1,0,.5-.1,1-.2,1.4-.2Z"/>
        <path class="uuid-8ca86232-ed59-4a06-ab6a-62054c3e3eb0" d="M26.5,58c0,.2,0,.3,.1,.4,0-.1-.1-.3-.1-.4h0Z"/>
        <path class="uuid-8ca86232-ed59-4a06-ab6a-62054c3e3eb0" d="M33.4,21.3c0,0,.1,0,.2,0,0,0,0,0-.2,0Z"/>
        <path class="uuid-8ca86232-ed59-4a06-ab6a-62054c3e3eb0" d="M41.8,27.5c0,0,.1,0,.2-.1,0,0-.1,0-.2,.1Z"/>
        <path class="uuid-8ca86232-ed59-4a06-ab6a-62054c3e3eb0" d="M49.1,19.2c.2,0,.4,0,.5,.1-.1-.2-.3-.2-.5-.3-.1,0-.2,0-.3,0-.2,0-.4,.2-.6,.5,.1-.3,.4-.4,.8-.4Z"/>
        <path class="uuid-8ca86232-ed59-4a06-ab6a-62054c3e3eb0" d="M33.6,21.4s0,0,0,0c0,0,0,0,0,0Z"/>
        <path class="uuid-8ca86232-ed59-4a06-ab6a-62054c3e3eb0" d="M26.3,22.5c-.1,0-.2,.1-.3,.2,.8-.5,1.7-.8,2.7-1.1-.8,.2-1.6,.5-2.4,.9Z"/>
        <path class="uuid-8ca86232-ed59-4a06-ab6a-62054c3e3eb0" d="M35.9,42.7h-.2c.6-.1,1.3-.4,1.9-.5-.6,.1-1.1,.3-1.7,.5Z"/>
        <path class="uuid-8ca86232-ed59-4a06-ab6a-62054c3e3eb0" d="M26.9,30.8c-1.3,.6-2.7,.9-4.1,1,0,0,.2,0,.3,0s.2,0,.3,0c2.1-.3,3.8-.9,5.3-1.9,1.9-1.3,3-3.2,3.5-6,0-.2,0-.4,0-.5-.5,3.6-2.2,6.1-5.3,7.4Z"/>
        <path class="uuid-8ca86232-ed59-4a06-ab6a-62054c3e3eb0" d="M20.2,33.7c0-.6,0-1-.1-1.2,0,1.2,.1,2.5,.1,3.9,0,2.1,0,4.1,0,6,0-.2,0-.4,0-.8,0-3,0-5.5,0-7.8Z"/>
        <path class="uuid-8ca86232-ed59-4a06-ab6a-62054c3e3eb0" d="M21.9,45.9s0,0,0,.1c0,0,0,0,0-.1Z"/>
        <path class="uuid-8ca86232-ed59-4a06-ab6a-62054c3e3eb0" d="M5.7,17.8c0-.5,0-.9,.2-1,.2-.2,.5-.2,1.1-.2h.6c1.6,.2,3.2,.4,4.7,.8,4.2,1.3,7,4.1,8.2,8.3,0,.1,0,.3,.1,.4,0,.2,0,.3,.1,.5-.3-1.3-.7-2.5-1.3-3.6-1.8-3.6-5.5-5.8-10.3-6.3-.7,0-1.5-.2-2.4-.2-.2,0-.4,0-.6,0-.4,0-.6,.4-.6,.9,0,.1,0,.3,0,.4,.4,5.6,2.7,9.7,6.9,12,.1,0,.2,.1,.3,.2-.2-.1-.4-.2-.7-.4-4-2.4-6.1-6.3-6.5-11.8Z"/>
        <path class="uuid-8ca86232-ed59-4a06-ab6a-62054c3e3eb0" d="M50.7,49.2c0,.6-.2,1.2-.5,1.6-.4,.4-.8,.7-1.3,.7h0c-.7,0-1.2-.4-1.6-1,.3,.6,.9,1,1.6,1h0c.9,0,1.6-.7,1.8-1.7,0-.4,0-.8,0-1.1,0,0,0-.1,0-.2h0c0-.8,0-1.3,0-1.7v2.4Z"/>
        <path class="uuid-8ca86232-ed59-4a06-ab6a-62054c3e3eb0" d="M46.2,51.7c.3,.4,.7,.7,1.2,1-.1-.1-.3-.2-.5-.3-.3-.2-.6-.4-.8-.7Z"/>
        <path class="uuid-8ca86232-ed59-4a06-ab6a-62054c3e3eb0" d="M22.1,26.9c0-.1,0-.2,.1-.3,2-3.6,5.4-5.4,10.2-5.4s.1,0,.2,0c.5,0,.8,0,.9,.3,.2,.2,.2,.6,.2,1.1,0,.7-.2,1.4-.3,2,0,0,0-.1,0-.2,.2-.9,.3-1.7,.3-2.4,0-.3,0-.5-.2-.7,0,0,0,0,0,0,0,0,0,0,0,0,0,0,0,0-.2,0-.1,0-.3,0-.5,0-1.3,0-2.8,0-4.3,.4-1,.2-1.8,.6-2.7,1.1h0c0,0-.2,.1-.3,.2-1.5,1-2.8,2.4-3.7,4.1,0,.1-.1,.2-.2,.4,0,.1-.1,.2-.2,.3,.2-.2,.4-.4,.5-.7Z"/>
        <path class="uuid-8ca86232-ed59-4a06-ab6a-62054c3e3eb0" d="M10.1,25.7c-1.3-1.5-2-3.3-2.4-4.9,.8,3.4,3.3,8.1,11,9.5,.1,0,.2,0,.3,0s.1,0,.2,0c-2.4-.3-4.6-1.2-6.7-2.4-.8-.5-1.6-1.2-2.4-2.1Z"/>
        <path class="uuid-8ca86232-ed59-4a06-ab6a-62054c3e3eb0" d="M45.3,48.3v-.3c0-.5,0-.9,0-1.1,0,.9,0,1.7,0,2.5,0,.9,.4,1.7,.8,2.3-.4-.5-.6-1.2-.7-2.1,0-.4,0-.9,0-1.3Z"/>
        <path class="uuid-8ca86232-ed59-4a06-ab6a-62054c3e3eb0" d="M41.2,44.7c-.2-.3-.4-.5-.7-.6,.3,.4,.6,.7,1,.9-.1,0-.2-.2-.3-.3Z"/>
        <path class="uuid-8ca86232-ed59-4a06-ab6a-62054c3e3eb0" d="M26.5,50.6c.8,.3,1.6,.5,2.4,.7h.4c1.7,.5,3.2,1.1,4.3,2.1,.4,.3,.7,.6,.9,.9,.3,.4,.5,.9,0,1.3-.2,.2-.3,.2-.5,.2-.2,0-.5-.2-.8-.5-.5-.5-1-1-1.6-1.4,.6,.4,1.2,.9,1.8,1.5,.2,.2,.4,.3,.7,.3,.2,0,.5-.2,.6-.4,.3-.4,0-1-.4-1.4-1.3-1.3-2.8-2.1-4.5-2.6,0,0-.9-.2-2.2-.5-1.2-.3-2.4-.9-3.6-1.8-.6-.5-1.2-1.1-1.7-1.9,.8,1.4,2.1,2.5,4.1,3.3Z"/>
        <path class="uuid-8ca86232-ed59-4a06-ab6a-62054c3e3eb0" d="M23.9,26.9c-.9,1.2-1.4,2.6-1.5,3.9,.2-1,.5-2,1-2.9,.2-.3,.3-.7,.5-1Z"/>
        <path class="uuid-8ca86232-ed59-4a06-ab6a-62054c3e3eb0" d="M8.1,55.7c-.2-.2-.2-.4-.2-.7,.1-.5,.4-.9,.8-1.3,1.1-1.3,2.6-2.2,4.5-2.7,.4,0,.7-.2,1.1-.3,.5-.1,1.1-.3,1.6-.4,1.6-.5,2.9-1.4,3.8-2.7,.5-.7,.7-1.3,.5-1.9,0,0,0-.2,0-.3,0,.2,0,.4,0,.6,0,0,0,0,0,0,0,.5-.1,.9-.4,1.3-.9,1.2-2,2-3.3,2.6-.7,.3-1.4,.4-2.2,.6-.4,0-.8,.2-1.2,.3-2.2,.6-3.9,1.7-5,3.3-.3,.5-.4,.9-.4,1.2,0,.2,.2,.3,.3,.4,.3,.2,.7,0,.9-.2,0,0,.1-.2,.2-.2-.1,.1-.2,.2-.3,.3-.2,.2-.6,.2-.8,0Z"/>
        <path class="uuid-8ca86232-ed59-4a06-ab6a-62054c3e3eb0" d="M48.9,45.9h.6c-.2,0-.4,0-.6,0Z"/>
        <path class="uuid-8ca86232-ed59-4a06-ab6a-62054c3e3eb0" d="M34.8,45.1s0,0,.1,0c0,0,0,0-.1,0h0Z"/>
        <path class="uuid-8ca86232-ed59-4a06-ab6a-62054c3e3eb0" d="M29.3,52.9c.1,0,.3,0,.4,.1-.3,0-.6-.2-.9-.3,.2,0,.3,0,.5,.1Z"/>
        <path class="uuid-8ca86232-ed59-4a06-ab6a-62054c3e3eb0" d="M28.4,44c.2,.1,.5,.2,.7,.4,.4,.2,.9,.5,1.3,.6,0,0,.2,0,.2,0-.4-.1-.9-.3-1.3-.6-.3-.2-.6-.3-.9-.4Z"/>
        <path class="uuid-8ca86232-ed59-4a06-ab6a-62054c3e3eb0" d="M12,18.9c.1,0,.3,0,.4,.1-.1,0-.3,0-.4-.1Z"/>
        <path class="uuid-8ca86232-ed59-4a06-ab6a-62054c3e3eb0" d="M5.1,44c.2,0,.4,.2,.7,.3,.4,.2,.9,.4,1.2,.6,.3,.1,.6,.2,1,.3-.8-.2-1.6-.5-2.3-.9-.2,0-.3-.2-.5-.2Z"/>
        <path class="uuid-8ca86232-ed59-4a06-ab6a-62054c3e3eb0" d="M19.7,29.4c-.7-5.5-2.9-8.8-7.2-10.3,.4,.2,.9,.3,1.3,.5,3.1,1.5,4.9,4.1,5.7,8.3,.1,.6,.2,1.3,.3,2,0-.1,0-.3,0-.5Z"/>
        <path class="uuid-8ca86232-ed59-4a06-ab6a-62054c3e3eb0" d="M53.7,45.8c.6,0,1.1-.2,1.5-.5-.4,.2-.9,.4-1.4,.5,0,0,0,0-.1,0Z"/>
        <path class="uuid-8ca86232-ed59-4a06-ab6a-62054c3e3eb0" d="M.2,43.4c-.1-.7,.4-.9,.8-1,1.6-.4,3.1-.3,4.6,.2,.3,.1,.6,.2,.8,.4,.3,.1,.5,.3,.8,.4,1.8,.7,3.4,.6,4.8-.2,2.3-1.3,4.5-1.6,6.9-.6,.2,0,.4,.2,.6,.2-.3-.2-.7-.3-1-.4-1.6-.6-3.4-.5-5,0-.4,.2-.8,.4-1.2,.6-.4,.2-.7,.4-1.1,.6,0,0-.2,0-.3,0-.9,.2-1.9,.2-2.8,0-.5-.1-1-.4-1.5-.6-.4-.2-.7-.4-1-.5-1-.4-2.1-.5-3.1-.4-.5,0-1,.1-1.4,.2,0,0,0,0-.1,0-.2,0-.4,.2-.6,.4-.2,.2-.3,.4-.2,.8,0,0,0,.2,0,.2,0,0,.1,.1,.2,.2,.3,.2,.6,.1,1.1,0,0,0,0,0,0,0,0,0-.2,0-.3,0-.5,0-.9,0-1-.5Z"/>
        <path class="uuid-8ca86232-ed59-4a06-ab6a-62054c3e3eb0" d="M15,57.8h0c-.5,0-.7-.3-.7-.9,0-1.4,.1-2.5,.5-3.5,0-.2,0-.3,0-.5h0c-.4,.9-.6,2-.7,3.3,0,.3,0,.5,0,.8,0,.2,0,.4,.1,.6,.1,.2,.3,.3,.6,.3h0c.2,0,.4,0,.6-.2,.2-.1,.2-.3,.3-.5,0-.1,0-.2,0-.3,0,0,0,.2,0,.3,0,.2-.2,.7-.7,.7Z"/>
        <path class="uuid-8ca86232-ed59-4a06-ab6a-62054c3e3eb0" d="M51.6,26.9c.3,0,.5,0,.8,0,.3,0,.7,0,1,0,1.8,0,3.2,1,3.8,2.4-.5-1-1.3-1.7-2.3-2.2-.5-.2-1-.3-1.5-.3-.6,0-1.2,0-1.8,0-.3,0-.5,0-.7,0-.2,0-.4,0-.6,0,.3,.1,.6,.1,1.3,.1Z"/>
        <path class="uuid-8ca86232-ed59-4a06-ab6a-62054c3e3eb0" d="M39.8,40.8c0,0,0-.1,0-.2,0-1.1,0-2.2,0-3.3v-1.3c0-.5,0-1,0-1.5,0-1.1,0-2.3,0-3.4,0-2.5,1.7-4.2,4.2-4.3,.5,0,1,0,1.4,0,.4,0,.7,0,1.1,0,.5,0,.9,0,1.1-.1-.3,0-.6,0-.9,0,0,0-.2,0-.3,0-.8,0-1.7,0-2.5,0-.8,0-1.5,.2-2.1,.6h0c0,0-.1,0-.2,.1-.2,.2-.5,.3-.7,.5-.8,.8-1.3,1.9-1.3,3.1,0,.8,0,4.2,0,10.3,0-.2,0-.4,0-.6Z"/>
        <path class="uuid-8ca86232-ed59-4a06-ab6a-62054c3e3eb0" d="M17.9,43.8c.2,0,.4,.1,.6,.2,.2,0,.4,.2,.6,.3,0,0-.1,0-.2-.1-.3-.2-.6-.3-.9-.4Z"/>
        <path class="uuid-8ca86232-ed59-4a06-ab6a-62054c3e3eb0" d="M50.4,52.7c.2-.1,.4-.2,.6-.4,0,0-.2,.1-.3,.2-.1,0-.2,.1-.3,.2Z"/>
        <path class="uuid-8ca86232-ed59-4a06-ab6a-62054c3e3eb0" d="M20.9,27.2h0Z"/>
        <path class="uuid-8ca86232-ed59-4a06-ab6a-62054c3e3eb0" d="M23.9,42.3c1.9-.6,3.7-.5,5.5,.4,.6,.3,1.2,.6,1.8,.8,.7,.2,1.8,.4,2.8,0,.2,0,.4-.2,.6-.2,1.4-.6,2.9-1.2,4.5-1.4,0,0,.2,0,.3,0h-.2c-.6,.1-1.2,.2-1.7,.3-.6,.2-1.3,.4-1.9,.7-1.3,.6-1.3,.6-1.4,.6-.8,.3-1.7,.3-2.6,.2-.6-.1-1.4-.5-2.1-.8-.4-.2-.8-.4-1.2-.5-2.2-.8-4.2-.2-6,.6,.4,0,.7-.2,1-.3,.1,0,.3-.1,.4-.2Z"/>
        <path class="uuid-8ca86232-ed59-4a06-ab6a-62054c3e3eb0" d="M56.1,31.7c0-1.2-.4-2.1-1.1-2.6,0,0,.1,.1,.2,.2,.5,.5,.8,1.2,.8,2v10.1c0,1.6-1.3,2.8-2.8,2.8h-.9c-2.2,0-4.5,0-6.7,0h-1.4c-.8,0-1.5-.3-2-.8-.3-.3-.5-.6-.6-.9,.4,1.2,1.4,1.8,3,1.8,1.4,0,2.8,0,4.2,0s2.8,0,4.2,0c2.1,0,3.1-1.2,3.2-3.4,0-1.1,0-2.2,0-3.2,0-.4,0-.9,0-1.3,0-.5,0-1,0-1.4,0-1.1,0-2.2,0-3.3Z"/>
        <path class="uuid-8ca86232-ed59-4a06-ab6a-62054c3e3eb0" d="M33.5,24.9c0,.1,0,.2,0,.3,0,0,0-.2,0-.3Z"/>
        <path class="uuid-8ca86232-ed59-4a06-ab6a-62054c3e3eb0" d="M52.2,50.7c.2-.5,.3-1.1,.3-1.8,0,0,0-.2,0-.3,0,.3,0,.6,0,1,0,.4-.1,.8-.2,1.1Z"/>
        <path class="uuid-8ca86232-ed59-4a06-ab6a-62054c3e3eb0" d="M22.5,49.9h0Z"/>
        <path class="uuid-8ca86232-ed59-4a06-ab6a-62054c3e3eb0" d="M48.2,23.1c0-.3,0-.7,0-1,0-.1,0-.2,0-.4,0-.3,0-.6,0-.9v-.2c0-.8,.1-1.3,.9-1.3,.7,0,.8,.5,.8,1.3h0c0,.9,0,1.8,0,2.6,0,0,0,0,0,0,0-1.3,0-2.4,0-3.1,0-.4-.1-.6-.3-.8-.1,0-.3-.1-.5-.1-.5,0-.7,.2-.8,.4,0,.1,0,.3,0,.4,0,.9,0,2.8,0,6,0-.2,0-.4,0-.7,0-.7,0-1.5,0-2.2Z"/>
        <path class="uuid-8ca86232-ed59-4a06-ab6a-62054c3e3eb0" d="M41.4,31.5c0,0,0,.1,0,.2,0,3.1,0,6.2,0,9.2,0,.2,0,.3,0,.5,0,0,0,0,0,0v-9.9Z"/>
        <path class="uuid-8ca86232-ed59-4a06-ab6a-62054c3e3eb0" d="M21.8,51c0,0,0,.1,0,.2,0,2.2,0,4.5,0,6.7v2.7c0,.3,0,.7,0,1,0,.7-.1,1.2-.8,1.1-.6,0-.7-.4-.7-1.1v-.5c0-.2,0-.4,0-.6v-10.6h-.1c0,.1,0,.1,0,.2,0,.2,0,.3,0,.4,0,8,0,11.5,0,11.6,0,0,0,.2,0,.2,0,0,0,0,0,0,0,0,0,0,0,.1,0,0,0,0,0,0,0,0,.2,.2,.3,.2,.4,0,.6,0,.8,0,.2-.2,.3-.5,.4-1,0-.1,0-4.3,0-11.1,0,.2,0,.3,0,.5Z"/>
        <path class="uuid-8ca86232-ed59-4a06-ab6a-62054c3e3eb0" d="M28.1,56.4c0-.9-.2-1.8-.4-2.6,.1,.8,.2,1.6,.4,2.3,0,.1,0,.2,0,.3Z"/>
        <path class="uuid-8ca86232-ed59-4a06-ab6a-62054c3e3eb0" d="M49.7,58v.2c0,.3,0,.6,0,.9,0,.3-.3,.8-.9,.7-.4,0-.6-.3-.6-.8v-.6c0-1.2,0-2.3,0-3.5,0-.4,0-.8,0-1.2,0,1.4,0,2.8,0,4.3,0,.3,0,.7,0,1,0,.2,0,.3,0,.4,0,.2,.2,.3,.3,.3,.4,.1,.7,.1,.9,0,.2-.2,.4-.5,.4-.9,0-.7,0-1.5,0-2.2,0,.2,0,.4,0,.6,0,.3,0,.6,0,.8Z"/>
        <path class="uuid-8ca86232-ed59-4a06-ab6a-62054c3e3eb0" d="M27.3,58.6c-.5,0-.7-.2-.8-.8,0-.5,0-.9,0-1.4,0-2.5-1.1-4.5-3.7-6.3,1.4,1,2.9,2.4,3.4,4.5,.2,.8,.2,1.5,.2,2.5,0,.3,0,.6,0,.9,0,.2,0,.3,.1,.4,.1,.2,.3,.3,.6,.3h0c.4,0,.8-.3,.8-.7,0-.3,0-.5,0-.8,0,.2,0,.5,0,.7,0,.5-.3,.7-.7,.8Z"/>
        <path class="uuid-8ca86232-ed59-4a06-ab6a-62054c3e3eb0" d="M9.7,45.4c.6,0,1.1,0,1.6-.3-.6,.2-1.2,.2-1.8,.3,0,0,0,0,.1,0Z"/>
        <path class="uuid-8ca86232-ed59-4a06-ab6a-62054c3e3eb0" d="M21.8,37c0,1.4,0,2.8,0,4.3,0,0,0,.2,0,.2,0,.2,0,.4,0,.6v-7c0,.3,0,.6,0,1.1v.8Z"/>
        <path class="uuid-8ca86232-ed59-4a06-ab6a-62054c3e3eb0" d="M17.8,43.8h0Z"/>
        <path class="uuid-8ca86232-ed59-4a06-ab6a-62054c3e3eb0" d="M49.7,54.5c0,.3,0,.6,0,.9,0-.5,0-1,0-1.4,0,.2,0,.3,0,.5Z"/>
        <path class="uuid-8ca86232-ed59-4a06-ab6a-62054c3e3eb0" d="M29.1,23.2c.4,0,.8-.2,1.1-.2-.4,0-.8,.1-1.1,.2Z"/>
        <path class="uuid-8ca86232-ed59-4a06-ab6a-62054c3e3eb0" d="M18.8,31.9c0,0-.1,0-.2,0,0,0,.1,0,.2,0Z"/>
        <path class="uuid-8ca86232-ed59-4a06-ab6a-62054c3e3eb0" d="M13.4,30.2c0,0-.1,0-.2,0,0,0,.1,0,.2,0Z"/>
        <path class="uuid-8ca86232-ed59-4a06-ab6a-62054c3e3eb0" d="M52.4,47.5c0,0,0,.1,0,.2,0-.2,0-.4,0-.7,0,.1,0,.3,0,.5Z"/>
        <path class="uuid-8ca86232-ed59-4a06-ab6a-62054c3e3eb0" d="M57.6,41.6c0,.2,0,.4,0,.6,0-.3,.1-.7,.1-1.1,0-3.5,0-6.9,0-9.8,0-.7-.2-1.4-.4-1.9,.2,.5,.3,1,.3,1.5,.1,3.4,.1,6.9,0,10.7Z"/>
        <path class="uuid-8ca86232-ed59-4a06-ab6a-62054c3e3eb0" d="M45.1,33.9c-.1,0-.2,0-.4,.1-.4,.3-.4,.7-.2,1,.1,.3,.3,.5,.4,.7,.3,.3,.6,.6,.9,.9,.8,.6,1.7,1,2.7,1,1.1,0,2-.2,2.7-.6,.6-.3,1.1-.8,1.6-1.4,.1-.2,.2-.3,.4-.5,.2-.3,.3-.8-.2-1.1-.3-.2-.6-.2-1,.2-.1,.1-.2,.2-.3,.3-.2,.2-.4,.5-.7,.7-.4,.3-.8,.6-1.3,.7-.7,.3-1.2,.3-1.9,0-.4-.1-.8-.3-1.2-.6-.3-.3-.5-.5-.7-.8h0c0-.1-.1-.2-.2-.2-.2-.2-.4-.3-.6-.3Z"/>
        <path class="uuid-8ca86232-ed59-4a06-ab6a-62054c3e3eb0" d="M44.7,34c.3-.2,.6-.2,.8,0-.1,0-.2-.1-.4-.1s-.2,0-.2,0c-.3,0-.5,.2-.6,.5,0,.1,0,.3,0,.4,0-.3,0-.6,.4-.7Z"/>
        <path class="uuid-8ca86232-ed59-4a06-ab6a-62054c3e3eb0" d="M49,36c0,0-.1,0-.2,0-.1,0-.2,0-.3,0,.2,0,.3,0,.5,0Z"/>
        <path class="uuid-8ca86232-ed59-4a06-ab6a-62054c3e3eb0" d="M52,34s0,0,0,0c.2-.2,.4-.3,.6-.3-.2,0-.4,0-.6,.2Z"/>
        <path class="uuid-8ca86232-ed59-4a06-ab6a-62054c3e3eb0" d="M53.2,34.2h0Z"/>
        <path class="uuid-8ca86232-ed59-4a06-ab6a-62054c3e3eb0" d="M53,34s0,0,.1,0c0,0,0,0-.1,0Z"/>
        <path class="uuid-8ca86232-ed59-4a06-ab6a-62054c3e3eb0" d="M48.8,37.7h0c.9,0,1.7-.2,2.4-.6-.7,.4-1.6,.6-2.7,.6,0,0,.2,0,.3,0Z"/>
        <path class="uuid-8ca86232-ed59-4a06-ab6a-62054c3e3eb0" d="M53,34.1c.5,.4,.4,.8,.2,1.1-.1,.2-.2,.4-.4,.5,0,0,0,0,0-.1,.3-.4,.6-.9,.4-1.3,0,0,0-.1,0-.2h0s0,0,0,0c0,0,0,0-.1,0,0,0-.2-.1-.3-.2,0,0,0,0-.1,0-.2,0-.4,.1-.6,.3-.1,.1-.2,.3-.3,.4h0c.1,0,.2-.1,.3-.2,.4-.3,.7-.4,1-.2Z"/>
        <path class="uuid-8ca86232-ed59-4a06-ab6a-62054c3e3eb0" d="M49.7,35.9c-.2,0-.4,0-.7,.1-.2,0-.3,0-.5,0-.2,0-.5,0-.7-.1,.7,.4,1.2,.4,1.9,0Z"/>
        <path class="uuid-8ca86232-ed59-4a06-ab6a-62054c3e3eb0" d="M45.8,36.7c-.3-.3-.6-.6-.9-.9-.2-.2-.3-.5-.4-.7-.1-.3-.2-.7,.2-1,.1,0,.2-.1,.4-.1,.2,0,.4,.1,.6,.3,0,0,.1,.1,.2,.2,0-.1-.2-.3-.3-.4,0,0,0,0,0,0-.3-.2-.5-.2-.8,0-.3,.2-.4,.5-.4,.7,0,.3,.3,.7,.5,.9,.3,.4,.7,.8,1.1,1Z"/>
      </g>
    </g>
  </g>
</svg>