<?xml version="1.0" encoding="UTF-8"?>
<svg xmlns="http://www.w3.org/2000/svg" viewBox="0 0 45.8 63.3">
  <defs>
    <style>
      .uuid-dbf36973-8bb5-4269-a5e0-9c0218a3ca27 {
        fill: #fff;
      }
    </style>
  </defs>
  <g id="uuid-95ab6fae-6c43-4dc0-b8fb-d0ab9a2f0ff6" data-name="Calque 1"/>
  <g id="uuid-d7c9ff53-6b29-4c81-8569-b74eb88290d5" data-name="Calque 2">
    <g id="uuid-509fef63-cfca-4db7-9867-360ff0e53643" data-name="Layer 1">
      <g>
        <path class="uuid-dbf36973-8bb5-4269-a5e0-9c0218a3ca27" d="M23.4,7.9h-.1c-5,0-9.7,2-13.2,5.6-3.5,3.6-5.4,8.4-5.3,13.4,0,3.9,1.3,7.7,3.7,10.9,.6,.8,1.3,1.7,2,2.5,1.4,1.7,2.9,3.5,3.8,5.4-.4,.5-.6,1-.6,1.6v2.1c0,.7,.3,1.4,.8,1.9-.5,.5-.8,1.2-.8,1.9v2.1c0,1.5,1.2,2.7,2.7,2.7h1.2c.5,3.1,3.3,5.4,6.4,5.4s5.9-2.3,6.4-5.4h.7c1.5,0,2.7-1.2,2.7-2.7v-2.1c0-.7-.3-1.4-.8-1.9,.5-.5,.8-1.2,.8-1.9v-2.1c0-.7-.3-1.3-.7-1.8,1.1-2,2.7-4.1,4.1-5.9,.4-.6,.8-1.1,1.2-1.6,2.5-3.3,3.8-7.2,3.8-11.3s-2-9.7-5.5-13.3c-3.5-3.5-8.2-5.4-13.2-5.4Zm5.3,49.9c-.5,2.2-2.5,3.8-4.8,3.8s-4.3-1.6-4.8-3.8h9.6Zm-5.9-25.3v8c-1.7-2.1-4.4-6.2-4.4-10.7s0-1.5,.2-2.3l4,4.9s0,0,.1,.1Zm0-13.5v11l-3.7-4.5c.9-2.7,2.5-5,3.7-6.5Zm6.1,13.2c-.8,3.8-3.1,7.1-4.6,8.8v-3.6c0,0,0,0,.1-.1l4.4-5Zm-4.6,2.8V18.5c4.1,4.8,4.8,8.9,4.8,11l-4.8,5.5Zm-9.3,18.1c0-.5,.3-.9,.8-1.1,0,0,.1,0,.2,0,0,0,.1,0,.2,0h14.7c.1,0,.2,0,.3,0,.5,.1,.8,.6,.8,1.1v2.1c0,.6-.5,1.1-1.1,1.1h-14.7c-.6,0-1.1-.5-1.1-1.1v-2.1Zm16.2-2.7c0,0-.2,0-.3,0h0s0,0,0,0h-14.7c-.1,0-.2,0-.3,0,0,0-.2,0-.3-.1-.3-.2-.5-.6-.5-.9v-2.1c0-.5,.3-.9,.7-1,.1,0,.3,0,.4,0h14.8c.6,0,1,.4,1.1,1,0,0,0,0,0,.1v2.1c0,.5-.3,.9-.8,1.1Zm-.3-5.8h-6.6v-1.3c.5-.5,6.4-6.3,6.4-13.5s-6.2-13.3-6.4-13.6c-.3-.3-.8-.3-1.1,0-.3,.2-6.4,6.1-6.4,13.6s4.5,11.6,6,13.1v1.7h-6.6c-.3,0-.6,0-.8,.1-1-2-2.4-3.7-3.9-5.4-.7-.8-1.3-1.6-1.9-2.4-2.2-2.9-3.3-6.3-3.4-9.9,0-4.6,1.7-8.9,4.9-12.2,3.2-3.3,7.5-5.1,12.1-5.2h.1c4.6,0,8.8,1.8,12.1,5,3.3,3.2,5.1,7.6,5.1,12.2s-1.2,7.3-3.5,10.3h0c-.4,.5-.8,1-1.2,1.6h0c-1.5,1.9-3.1,4-4.2,6.1-.2,0-.4,0-.6,0Z"/>
        <path class="uuid-dbf36973-8bb5-4269-a5e0-9c0218a3ca27" d="M23.7,5.8c.4,0,.8-.4,.8-.8V.8c0-.4-.4-.8-.8-.8s-.8,.4-.8,.8V5c0,.4,.4,.8,.8,.8Z"/>
        <path class="uuid-dbf36973-8bb5-4269-a5e0-9c0218a3ca27" d="M12.4,8c.1,.2,.4,.4,.7,.4s.3,0,.4-.1c.4-.2,.5-.7,.3-1.1l-2.1-3.6c-.1-.2-.3-.3-.5-.4-.2,0-.4,0-.6,0s-.3,.3-.4,.5c0,.2,0,.4,0,.6l2.1,3.6Z"/>
        <path class="uuid-dbf36973-8bb5-4269-a5e0-9c0218a3ca27" d="M34.2,8.3c.1,0,.3,.1,.4,.1,.3,0,.5-.2,.7-.4l2.1-3.6c.1-.2,.1-.4,0-.6,0-.2-.2-.4-.4-.5-.2-.1-.4-.1-.6,0-.2,0-.4,.2-.5,.4l-2.1,3.6c-.2,.4,0,.9,.3,1.1Z"/>
        <path class="uuid-dbf36973-8bb5-4269-a5e0-9c0218a3ca27" d="M45.7,10.7c-.1-.2-.3-.3-.5-.3-.2,0-.4,0-.6,.1l-3.4,2.4c-.2,.1-.3,.3-.3,.5s0,.4,.1,.6c.1,.2,.4,.3,.6,.3s.3,0,.5-.1l3.4-2.4c.4-.3,.4-.7,.2-1.1Z"/>
        <path class="uuid-dbf36973-8bb5-4269-a5e0-9c0218a3ca27" d="M5,13.5c0-.2-.1-.4-.3-.5l-3.4-2.4c-.2-.1-.4-.2-.6-.1-.2,0-.4,.1-.5,.3-.3,.4-.2,.8,.2,1.1l3.4,2.4c.1,0,.3,.1,.5,.1,.3,0,.5-.1,.6-.3,.1-.2,.2-.4,.1-.6Z"/>
      </g>
    </g>
  </g>
</svg>