<?xml version="1.0" encoding="UTF-8"?>
<svg xmlns="http://www.w3.org/2000/svg" viewBox="0 0 68.1 56.6">
  <defs>
    <style>
      .uuid-d9a5467b-a2a1-49a4-94da-92260d9317b5 {
        fill: #fff;
      }
    </style>
  </defs>
  <g id="uuid-327688d8-78d0-42c6-b8ec-b5416d3799c0" data-name="Calque 1"/>
  <g id="uuid-68c4c46f-9a49-4c59-bd2c-cdd85c302cd7" data-name="Calque 2">
    <g id="uuid-553a054d-a6d1-4d1d-ae14-8dc7b910125f" data-name="Layer 1">
      <g>
        <path class="uuid-d9a5467b-a2a1-49a4-94da-92260d9317b5" d="M62.3,32.3c-.2,0-4.1-.2-6.4,2.1-2.3,2.3-2.2,6-2.1,6.4v2.5c-1.3,.3-2.2,1.5-2.2,2.8s.3,.8,.8,.8,.8-.3,.8-.8c0-.8,.6-1.4,1.4-1.4,0,0,0,0,0,0s0,0,0,0c.8,0,1.4,.7,1.4,1.4s.3,.8,.8,.8,.8-.3,.8-.8c0-1.4-.9-2.5-2.2-2.8v-1.8c1.3,0,3.9-.4,5.6-2.1,2.4-2.4,2.1-6.2,2.1-6.4,0-.4-.3-.7-.7-.7Zm-2.5,6c-1.3,1.3-3.4,1.6-4.5,1.7,0-1.1,.4-3.2,1.7-4.5,1.3-1.3,3.4-1.6,4.5-1.7,0,1.1-.4,3.2-1.7,4.5Z"/>
        <path class="uuid-d9a5467b-a2a1-49a4-94da-92260d9317b5" d="M51.7,37.3c.3,.3,.8,.4,1.1,0,.3-.3,.4-.8,0-1.1-.1-.1-.2-.2-.3-.3-2.4-2.4-6.2-2.1-6.4-2.1-.4,0-.7,.3-.7,.7,0,.2-.2,4.1,2.1,6.4,1,1,2.3,1.6,4,2,0,0,0,0,.1,0,.4,0,.7-.3,.7-.6,0-.4-.2-.8-.6-.9-1-.2-2.3-.6-3.2-1.5-1.3-1.3-1.6-3.4-1.7-4.5,1.1,0,3.2,.4,4.5,1.7,0,0,.2,.2,.2,.3Z"/>
        <path class="uuid-d9a5467b-a2a1-49a4-94da-92260d9317b5" d="M59.6,50.1c-1,0-1.5-.4-2.1-.9-.7-.5-1.5-1.2-3.1-1.2s-2.4,.7-3.1,1.2c-.6,.5-1.1,.9-2.1,.9s-1.5-.4-2.1-.9c-.7-.5-1.5-1.2-3.1-1.2s-2.4,.7-3.1,1.2c-.6,.5-1.1,.9-2.1,.9s-1.5-.4-2.1-.9c-.7-.5-1.5-1.2-3.1-1.2s-2.4,.7-3.1,1.2c-.6,.5-1.1,.9-2.1,.9s-.8,.3-.8,.8,.3,.8,.8,.8c1.6,0,2.4-.7,3.1-1.2,.6-.5,1.1-.9,2.1-.9s1.5,.4,2.1,.9c.7,.5,1.5,1.2,3.1,1.2s2.4-.7,3.1-1.2c.6-.5,1.1-.9,2.1-.9s1.5,.4,2.1,.9c.7,.5,1.5,1.2,3.1,1.2s2.4-.7,3.1-1.2c.6-.5,1.1-.9,2.1-.9s1.5,.4,2.1,.9c.7,.5,1.5,1.2,3.1,1.2s.8-.3,.8-.8-.3-.8-.8-.8Z"/>
        <path class="uuid-d9a5467b-a2a1-49a4-94da-92260d9317b5" d="M30.5,37.3c.3,.3,.8,.4,1.1,0,.3-.3,.4-.8,0-1.1-.1-.1-.2-.2-.3-.3-2.4-2.4-6.2-2.1-6.4-2.1-.4,0-.7,.3-.7,.7,0,.2-.2,4.1,2.1,6.4,1,1,2.3,1.6,4,2,0,0,0,0,.1,0,.4,0,.7-.3,.7-.6,0-.4-.2-.8-.6-.9-1-.2-2.3-.6-3.2-1.5-1.3-1.3-1.6-3.4-1.7-4.5,1.1,0,3.2,.4,4.5,1.7,0,0,.2,.2,.2,.3Z"/>
        <path class="uuid-d9a5467b-a2a1-49a4-94da-92260d9317b5" d="M68.1,9.4c0-.4-.3-.7-.7-.7-.2,0-4.1-.2-6.4,2.1-2.3,2.3-2.2,6-2.1,6.4v2.5c-1.3,.3-2.2,1.5-2.2,2.8s.3,.8,.8,.8,.8-.3,.8-.8c0-.8,.6-1.4,1.4-1.4,0,0,0,0,0,0s0,0,0,0c.8,0,1.4,.7,1.4,1.4s.3,.8,.8,.8,.8-.3,.8-.8c0-1.4-.9-2.5-2.2-2.8v-1.8c1.3,0,3.9-.4,5.6-2.1,2.4-2.4,2.1-6.2,2.1-6.4Zm-3.2,5.3c-1.3,1.3-3.4,1.6-4.5,1.7,0-1.1,.4-3.2,1.7-4.5s3.4-1.6,4.5-1.7c0,1.1-.4,3.2-1.7,4.5Z"/>
        <path class="uuid-d9a5467b-a2a1-49a4-94da-92260d9317b5" d="M59.3,55.1H7.4c-1.8,0-3.5-.8-4.6-2.2-1.1-1.4-1.5-3.2-1.2-5h0c.6-2.7,3-4.6,5.8-4.6h8.9c.4,0,.7-.3,.8-.7l4.2-30.6h5.2c.4,0,.8-.3,.8-.8s-.3-.8-.8-.8h-5L22.7,.9c0-.2,0-.4-.2-.6-.1-.2-.4-.3-.6-.3h-5.9c-3.5,0-6.6,2.5-7.3,6C7.1,14.4,2.5,37.2,.2,47.6h0c-.5,2.2,0,4.5,1.4,6.3,1.4,1.8,3.5,2.8,5.8,2.8H59.3c.4,0,.8-.3,.8-.8s-.3-.8-.8-.8ZM10.3,6.3c.5-2.8,3-4.8,5.8-4.8h5.1l-5.5,40.3H7.4c-1.8,0-3.5,.6-4.8,1.7,2.5-11.4,6.2-29.8,7.6-37.2Z"/>
        <path class="uuid-d9a5467b-a2a1-49a4-94da-92260d9317b5" d="M39.6,39.5c2.4-2.4,2.1-6.2,2.1-6.4,0-.4-.3-.7-.7-.7-.2,0-4.1-.2-6.4,2.1-2.3,2.3-2.2,6-2.1,6.4v2.5c-1.3,.3-2.2,1.5-2.2,2.8s.3,.8,.8,.8,.8-.3,.8-.8c0-.8,.6-1.4,1.4-1.4,0,0,0,0,0,0s0,0,0,0c.8,0,1.4,.7,1.4,1.4s.3,.8,.8,.8,.8-.3,.8-.8c0-1.4-.9-2.5-2.2-2.8v-1.8c1.3,0,3.9-.4,5.6-2.1Zm-3.9-3.9c1.3-1.3,3.4-1.6,4.5-1.7,0,1.1-.4,3.2-1.7,4.5-1.3,1.3-3.4,1.6-4.5,1.7,0-1.1,.4-3.2,1.7-4.5Z"/>
        <path class="uuid-d9a5467b-a2a1-49a4-94da-92260d9317b5" d="M64.7,26.5c-1,0-1.5-.4-2.1-.9-.7-.5-1.5-1.2-3.1-1.2s-2.4,.7-3.1,1.2c-.6,.5-1.1,.9-2.1,.9s-1.5-.4-2.1-.9c-.7-.5-1.5-1.2-3.1-1.2s-2.4,.7-3.1,1.2c-.6,.5-1.1,.9-2.1,.9s-1.5-.4-2.1-.9c-.7-.5-1.5-1.2-3.1-1.2s-2.4,.7-3.1,1.2c-.6,.5-1.1,.9-2.1,.9s-.8,.3-.8,.8,.3,.8,.8,.8c1.6,0,2.4-.7,3.1-1.2,.6-.5,1.1-.9,2.1-.9s1.5,.4,2.1,.9c.7,.5,1.5,1.2,3.1,1.2s2.4-.7,3.1-1.2c.6-.5,1.1-.9,2.1-.9s1.5,.4,2.1,.9c.7,.5,1.5,1.2,3.1,1.2s2.4-.7,3.1-1.2c.6-.5,1.1-.9,2.1-.9s1.5,.4,2.1,.9c.7,.5,1.5,1.2,3.1,1.2s.8-.3,.8-.8-.3-.8-.8-.8Z"/>
        <path class="uuid-d9a5467b-a2a1-49a4-94da-92260d9317b5" d="M37.6,19.8c-1.3,.3-2.2,1.5-2.2,2.8s.3,.8,.8,.8,.8-.3,.8-.8c0-.8,.6-1.4,1.4-1.4,0,0,0,0,0,0s0,0,0,0c.8,0,1.4,.7,1.4,1.4s.3,.8,.8,.8,.8-.3,.8-.8c0-1.4-.9-2.5-2.2-2.8v-1.8c1.3,0,3.9-.4,5.6-2.1,2.4-2.4,2.1-6.2,2.1-6.4,0-.4-.3-.7-.7-.7-.2,0-4.1-.2-6.4,2.1-2.3,2.3-2.2,6-2.1,6.4v2.5Zm3.2-7.8c1.3-1.3,3.4-1.6,4.5-1.7,0,1.1-.4,3.2-1.7,4.5-1.3,1.3-3.4,1.6-4.5,1.7,0-1.1,.4-3.2,1.7-4.5Z"/>
        <path class="uuid-d9a5467b-a2a1-49a4-94da-92260d9317b5" d="M56.7,19.3s0,0,.1,0c.4,0,.7-.3,.7-.6,0-.4-.2-.8-.6-.9-1-.2-2.3-.6-3.2-1.5-1.3-1.3-1.6-3.4-1.7-4.5,1.1,0,3.2,.4,4.5,1.7,0,0,.2,.2,.2,.3,.3,.3,.8,.4,1.1,0,.3-.3,.4-.8,0-1.1,0-.1-.2-.2-.3-.3-2.4-2.4-6.2-2.1-6.4-2.1-.4,0-.7,.3-.7,.7,0,.2-.2,4.1,2.1,6.4,1,1,2.3,1.6,4,2Z"/>
        <path class="uuid-d9a5467b-a2a1-49a4-94da-92260d9317b5" d="M35.5,19.3s0,0,.1,0c.4,0,.7-.3,.7-.6,0-.4-.2-.8-.6-.9-1-.2-2.3-.6-3.2-1.5-1.3-1.3-1.6-3.4-1.7-4.5,1.1,0,3.2,.4,4.5,1.7,0,0,.2,.2,.2,.3,.3,.3,.8,.4,1.1,0,.3-.3,.4-.8,0-1.1,0-.1-.2-.2-.3-.3-2.4-2.4-6.2-2.1-6.4-2.1-.4,0-.7,.3-.7,.7,0,.2-.2,4.1,2.1,6.4,1,1,2.3,1.6,4,2Z"/>
      </g>
    </g>
  </g>
</svg>