<?xml version="1.0" encoding="UTF-8"?>
<svg xmlns="http://www.w3.org/2000/svg" viewBox="0 0 69.5 64.6">
  <defs>
    <style>
      .uuid-b33b0ec5-f255-41d7-b6f4-edee0bdc3307 {
        fill: #fef2d7;
      }
    </style>
  </defs>
  <g id="uuid-62ca60f0-3749-47b9-bb09-a0f365c4e86a" data-name="Calque 1"/>
  <g id="uuid-e240e5da-b1b8-4fc4-a1f5-335eb4d034fe" data-name="Calque 2">
    <g id="uuid-f9c416a5-8aa3-47d2-ac43-2a3b06484552" data-name="Layer 1">
      <g>
        <path class="uuid-b33b0ec5-f255-41d7-b6f4-edee0bdc3307" d="M42.8,6.3H24.6c-1.8,0-3.3,1.5-3.3,3.4v2.1c0,.5,.4,.9,.9,.9s.9-.4,.9-.9v-2.1c0-.8,.6-1.5,1.4-1.5h18.3c.5,0,.9-.4,.9-.9s-.4-.9-.9-.9Z"/>
        <path class="uuid-b33b0ec5-f255-41d7-b6f4-edee0bdc3307" d="M1.9,16c.5,.1,1-.2,1.1-.7,0-.2,.9-4.5,2-6.9,1.5-3.2,3.5-4.7,7-4.3-.2,.2-.4,.4-.6,.6-4,4.1-6.2,10.7-5.9,17.5,0,3.4,.1,6.9,.2,10.2,0,.9,0,1.7,0,2.4,0,1.9,.1,3.5,.1,6s.4,.9,.9,.9h5c.3,0,.5,0,.7-.2,.2-.2,.3-.4,.3-.7v-7.4c.7,0,1.8-.2,2.9-.6h0v7.6c0,.5,.4,.9,.9,.9h4.7c.5,0,.9-.4,.9-.9v-8.2c0,0,.1,0,.2,0,2.9-1.2,4.3-3.8,4.9-5.9h5.6l1.2,14.2c0,.5,.4,.9,.9,.9h4.7c.5,0,.9-.4,.9-.9l1.1-11.7,2.9,12.4c0,.4,.5,.7,.9,.7h5.2c.2,0,.4-.2,.5-.3,.5-.3,.4-.8,.4-1.4,0-.3,0-.8-.2-1.5,0-.5-.1-.7-.2-1-.1-.4-.2-.8-.4-1.9-.4-3.3-.9-7.1-1.3-9.9h1.2c.8,2.6,3,4.5,5.5,4.8l2.5,4c.9,1.4,2.5,2.3,4.2,2.2,.8,0,1.5-.3,2.1-.7,1.4-1.1,2.1-2.5,1.9-3.8h0s0,0,0-.1l-3-12.3c-.5-2-2.2-3.4-4.2-3.5h-1.4L48.6,2.6c-.9-1.4-2.5-2.3-4.1-2.3L22.5,0c-3,0-5.8,.7-8.2,2.3,0,0,0,0,0,0,0,0-3.4-.3-5.2,.2-1.7,.5-4.1,1.7-5.7,5.2-1.2,2.5-2,6.8-2.1,7.3,0,.5,.2,1,.7,1.1Zm38.2,10.3l-1.2,13.1h-2.9l-1.1-13.1h5.2Zm17.4-8.2s0,0,0,0c0,0,0,0,0,0,0,0,0,0,0,0s0,0,.1,0h1.9c1.2,.2,2.1,1,2.4,2.2l3,12.3c0,.6-.4,1.4-1.2,2-.3,.2-.6,.3-1.1,.3-1,0-1.9-.5-2.5-1.3l-2.8-4.3c-.2-.3-.4-.4-.7-.4,0,0-.1,0-.2,0-2.6-.3-4.6-2.8-4.4-5.7l.2-2c0-.1,0-.3,0-.4l-.8-2.6,2.7,.8c.2,0,.5,0,.7,0,.2-.1,.4-.3,.5-.6s0-.5,0-.7c-.1-.2-.3-.4-.6-.5l-4.4-1.3c-.3,0-.7,0-.9,.2-.2,.3-.3,.6-.2,.9l1.3,4.1v1.8c-.2,.3-.2,.7-.2,1h-1.1c-.1-.9-.2-1.5-.2-1.6,0-.5-.5-.8-.9-.8s-.9,.4-.9,.9,0,0,0,.1c0,.2,.1,1,.4,2.7,.2,1.7,.6,4.2,1,6.7,.5,3.1,.9,6.2,1.1,7.9h-3.4l-3.4-14.7c0-.4-.5-.7-.9-.7H20.5c-.5,0-.9,.4-.9,.9-.2,2.7-1.6,4.6-4.1,5.6,0,0-.1,0-.2,0-1.7,.6-3.3,.6-3.3,.6-.3,0-.5,0-.7,.3-.2,.2-.3,.4-.3,.7v7.3h-3.1c0-2.1,0-3.4-.1-5.1,0-.7,0-1.5,0-2.4-.1-3.3-.2-6.7-.2-10.2-.3-6.4,1.7-12.4,5.3-16.2,2.6-2.7,5.9-4.1,9.6-4.1s.1,0,.2,0l22,.3c1,0,2,.6,2.6,1.5l10.2,14.2s0,0,0,0c0,0,0,0,0,0,0,0,0,0,0,0,0,0,0,0,0,0ZM17.6,39.4v-6.5c.9,0,1.9,0,2.8-.2v6.7h-2.8Zm7.8-13.1c-.8,2.1-2,3.5-3.7,4.1-1,.4-2,.6-3.1,.7,1.4-1.2,2.3-2.8,2.6-4.8h4.1Zm32.3-8.4h0Zm-.2-.2h0Z"/>
        <path class="uuid-b33b0ec5-f255-41d7-b6f4-edee0bdc3307" d="M59.5,25.4c.7,0,1.2-.5,1.2-1.2s-.5-1.2-1.2-1.2-1.2,.5-1.2,1.2,.5,1.2,1.2,1.2Z"/>
        <path class="uuid-b33b0ec5-f255-41d7-b6f4-edee0bdc3307" d="M68.9,45.5h0c-.3-.6-.8-1.5-2.1-1.8-.2,0-.5,0-.8,0-1.9,0-4.7,1.5-8.7,4.5v.2h0c-2.5,1-7.8,2.9-11.8,3.4-2.5,.3-5.4,.5-7.9,.5-1.8,0-3.3,0-4.4-.1h-1.2c-.3-.2-.6-.4-.6-.8,0-.3,.2-.6,.6-.7,1.4-.2,3.3-.3,5.1-.3,2.2,0,4.2-.2,5.2-.4,2.2-.6,4-3,4.2-4.7,0-.9-.3-1.7-1-2.1-1.1-.6-2.5-.8-4-.8-1.5,0-3.2,.3-5,.9-1.6,.5-3.5,.6-5.5,.6h-.2c-3.2,.1-6.9,.2-10.2,2.6-3.5,2.5-8.7,4.6-18.7-.9-.2-.1-.5-.2-.8,0-.3,0-.5,.3-.6,.5-.2,.5,0,1,.4,1.2,11.2,5.9,16.6,4,20.9,.9,2.8-2,6-2.1,9.1-2.2h.2c2,0,4.1-.1,6-.7,1.7-.5,3.2-.8,4.5-.8,1,0,1.9,.1,2.6,.4h.3v.4c-.3,.8-1.3,2.2-2.7,2.5-.5,.1-1.5,.2-2.9,.2-1.8,0-4.2,.2-7,.6-1,.1-1.9,.8-2.3,1.7-.4,.8-.3,1.7,.1,2.4,.5,.8,1.3,1.4,2.3,1.5h1c1.1,.2,2.7,.3,4.7,.2,2.6,0,5.6-.3,8.1-.6,4.4-.5,10.1-2.5,12.6-3.8h.2c4.5-3.5,6.5-4.2,7.5-4.2,.1,0,.2,0,.3,0,.3,0,.5,.3,.7,.7h0c0,.2,.1,.3,.2,.4v.4c-.4,.2-.9,.5-1.2,.7h-.2c-3.2,2.7-6.1,4.2-8.4,5.5-1.1,.6-2.1,1.2-3,1.7l-1,.6c-1.7,1.1-4.6,2.8-6.8,4h0c-1.4,.8-2.7,1.6-3.5,2.1-.7,.4-1.7,.6-3.2,.7-.7,0-1.5,0-2.4,0-.6,0-1.2,0-1.8,0h-1c-1.3,0-21.4-2.5-33.2-8.9-.3-.1-.6-.2-.9,0-.3,.1-.5,.3-.6,.6-.2,.5,0,1.1,.5,1.4,13.8,6.9,32.6,9.1,34.2,9.1h1c.6,0,1.2,0,1.7,0h0c.6,0,1.2,0,1.8,0s.4,0,.6,0c1.3,0,3-.2,4.3-1,.7-.4,1.8-1.1,3.2-1.9h.2c2.3-1.4,5.1-3.1,6.9-4.2l1-.6c.9-.6,1.9-1.1,3-1.7,2.3-1.3,5.2-2.8,8.5-5.5,.4-.2,1-.6,1.8-1.1,.5-.3,1.2-1.2,0-3.1Z"/>
      </g>
    </g>
  </g>
</svg>