<?xml version="1.0" encoding="UTF-8"?>
<svg xmlns="http://www.w3.org/2000/svg" viewBox="0 0 67.7 77">
  <defs>
    <style>
      .uuid-42718016-48cf-42de-b999-8b15cc5b81f0 {
        fill: #fef2d7;
      }

      .uuid-cde83b77-ee8d-4899-9671-00c35233242f {
        opacity: .4;
      }
    </style>
  </defs>
  <g id="uuid-78ce3f77-d57e-434c-9b19-2443ed3f9edd" data-name="Calque 1"/>
  <g id="uuid-87c903f6-2f33-425c-92d9-dc21b92d8864" data-name="Calque 2">
    <g id="uuid-bcd0101d-1af3-4b17-b506-db141e0767ba" data-name="Layer 1">
      <g class="uuid-cde83b77-ee8d-4899-9671-00c35233242f">
        <g>
          <path class="uuid-42718016-48cf-42de-b999-8b15cc5b81f0" d="M60.9,68.5c-5.6-2.2-10.3,0-15.2,2.3-4.5,2.1-9.2,4.4-15.3,3.7-4-.5-6.8-2-9.5-3.5-3.4-1.9-6.6-3.6-11.5-2.8-.3,0-.6,.2-.8,.5-.2,.3-.2,.6-.2,.9,.1,.6,.7,1,1.3,.9,4.1-.7,6.8,.8,10,2.5,2.7,1.5,5.9,3.2,10.4,3.8,.9,0,1.7,.2,2.6,.2,5.6,0,10-2.1,14-4,4.6-2.2,8.6-4.1,13.4-2.3,.6,.2,1.2,0,1.5-.6,.1-.3,.1-.6,0-.9-.1-.3-.4-.5-.7-.7Z"/>
          <path class="uuid-42718016-48cf-42de-b999-8b15cc5b81f0" d="M67.4,67.8h0c-.9-1-1.8-1.9-2.8-2.7,0,0,.1,0,.2,0,.6,0,1.2-.5,1.2-1.2v-1.4c0-.6-.5-1.2-1.2-1.2s-1.2,.5-1.2,1.2v1.4c0,.2,0,.4,.2,.6-.7-.5-1.4-.9-2.2-1.3-5.9-2.7-10.7-.5-15.7,2,.4-.2,.7-.6,.7-1v-1.4c0-.6-.5-1.2-1.2-1.2s-1.2,.5-1.2,1.2v1.4c0,.6,.5,1.2,1.2,1.2s.3,0,.4,0c0,0-.2,0-.2,.1-4.5,2.2-9.2,4.5-15.2,3.7-1.7-.2-3.2-.7-4.5-1.2,0,0,.1,0,.2,0h1.1c.6,0,1.2-.5,1.2-1.2s-.5-1.2-1.2-1.2h-1.1c-.6,0-1.2,.5-1.2,1.2s.2,.7,.5,.9c-1.6-.7-3-1.5-4.4-2.3-3.5-2.1-6.9-4-12-2.7-3,.8-5.8,2.5-8.3,5-.2,.2-.3,.5-.3,.8,0,.3,.1,.6,.4,.8,.5,.4,1.2,.4,1.6,0,2.2-2.2,4.7-3.7,7.2-4.4,4.2-1.1,6.9,.5,10.3,2.4,2.7,1.6,5.8,3.4,10.2,4,.9,.1,1.8,.2,2.8,.2,5.4,0,9.9-2.2,13.8-4.1,4.8-2.4,9-4.5,14-2.1,1.9,.9,3.6,2.2,5.1,4,.4,.5,1.1,.5,1.6,.1,.2-.2,.4-.5,.4-.8,0-.3,0-.6-.3-.9Z"/>
          <path class="uuid-42718016-48cf-42de-b999-8b15cc5b81f0" d="M2,65.2h1.1c.6,0,1.2-.5,1.2-1.2s-.5-1.2-1.2-1.2h-1.1c-.6,0-1.2,.5-1.2,1.2s.5,1.2,1.2,1.2Z"/>
          <path class="uuid-42718016-48cf-42de-b999-8b15cc5b81f0" d="M17.9,61.1c-.6,0-1.2,.5-1.2,1.2s.5,1.2,1.2,1.2h1.1c.6,0,1.2-.5,1.2-1.2s-.5-1.2-1.2-1.2h-1.1Z"/>
          <path class="uuid-42718016-48cf-42de-b999-8b15cc5b81f0" d="M39.8,59.4v1.4c0,.6,.5,1.2,1.2,1.2s1.2-.5,1.2-1.2v-1.4c0-.6-.5-1.2-1.2-1.2s-1.2,.5-1.2,1.2Z"/>
          <path class="uuid-42718016-48cf-42de-b999-8b15cc5b81f0" d="M58.3,59.2v1.4c0,.6,.5,1.2,1.2,1.2s1.2-.5,1.2-1.2v-1.4c0-.6-.5-1.2-1.2-1.2s-1.2,.5-1.2,1.2Z"/>
          <path class="uuid-42718016-48cf-42de-b999-8b15cc5b81f0" d="M49.5,59.2c-.3-.1-.6-.2-.9,0-.3,.1-.5,.3-.7,.6s-.2,.6,0,.9l.5,1.4c.2,.5,.6,.8,1.1,.8s.3,0,.4,0c.6-.2,.9-.9,.7-1.5l-.5-1.4c-.1-.3-.3-.5-.6-.7Z"/>
          <path class="uuid-42718016-48cf-42de-b999-8b15cc5b81f0" d="M23.4,61.1v1.4c0,.6,.5,1.2,1.2,1.2s1.2-.5,1.2-1.2v-1.4c0-.6-.5-1.2-1.2-1.2s-1.2,.5-1.2,1.2Z"/>
          <path class="uuid-42718016-48cf-42de-b999-8b15cc5b81f0" d="M2.3,61.8c.6,0,1.2-.5,1.2-1.2v-1.4c0-.6-.5-1.2-1.2-1.2s-1.2,.5-1.2,1.2v1.4c0,.6,.5,1.2,1.2,1.2Z"/>
          <path class="uuid-42718016-48cf-42de-b999-8b15cc5b81f0" d="M7.2,58.4c-.3,.2-.4,.4-.5,.7,0,.3,0,.6,.2,.9l.7,1.1c.2,.3,.4,.4,.7,.5,0,0,.2,0,.2,0,.2,0,.4,0,.6-.2,.3-.2,.4-.4,.5-.7,0-.3,0-.6-.2-.9l-.7-1.1c-.4-.5-1.1-.7-1.6-.3Z"/>
          <path class="uuid-42718016-48cf-42de-b999-8b15cc5b81f0" d="M54,58.3c-.3,0-.6,0-.9,.2-.3,.2-.4,.4-.5,.7,0,.3,0,.6,.2,.9l.7,1.1c.2,.3,.4,.4,.7,.5,0,0,.2,0,.2,0,.2,0,.4,0,.6-.2,.5-.4,.7-1.1,.3-1.6l-.7-1.1c-.2-.3-.4-.4-.7-.5Z"/>
          <path class="uuid-42718016-48cf-42de-b999-8b15cc5b81f0" d="M37.2,65.3l-.8,1c-.4,.5-.3,1.2,.2,1.6,.2,.1,.4,.2,.7,.2s.1,0,.2,0c.3,0,.6-.2,.8-.5l.8-1c.4-.5,.3-1.2-.2-1.6-.2-.2-.6-.3-.9-.2-.3,0-.6,.2-.8,.5Z"/>
          <path class="uuid-42718016-48cf-42de-b999-8b15cc5b81f0" d="M33.3,62.3l-.8,1c-.2,.2-.3,.6-.2,.9s.2,.6,.5,.8c.2,.2,.4,.2,.7,.2,.4,0,.7-.2,.9-.5l.8-1c.2-.2,.3-.6,.2-.9,0-.3-.2-.6-.5-.8-.5-.4-1.2-.3-1.6,.2Z"/>
          <path class="uuid-42718016-48cf-42de-b999-8b15cc5b81f0" d="M13.6,58.2l-.8,1c-.2,.2-.3,.6-.2,.9s.2,.6,.5,.8c.2,.2,.4,.2,.7,.2,.4,0,.7-.2,.9-.5l.8-1c.2-.2,.3-.6,.2-.9,0-.3-.2-.6-.5-.8-.5-.4-1.2-.3-1.6,.2Z"/>
          <path class="uuid-42718016-48cf-42de-b999-8b15cc5b81f0" d="M32.2,26.7c.6,.2,1.3-.2,1.4-.8,.7-3.2,.6-6.3-.3-9.1C30.4,6.8,18.3,0,3.4,0h-1.1V1.1c-.1,8.5,1.5,16.4,4.6,22.4,3,5.9,7.2,9.7,11.9,10.5,2.8,.5,5.8,0,9-1.7,.9,1.5,1.9,3.4,2.7,5.9,1.2,3.9,1.4,6.4,1.3,8.4H5.1c-2.8,0-5.1,2.3-5.1,5.1H0c0,2.8,2.3,5.1,5.1,5.1H61.6c2.8,0,5.1-2.3,5.1-5.1h0c0-2.8-2.3-5.1-5.1-5.1h-27.7c0-1.6,0-3.9-.8-7l6.2-5.1c1.3,1.2,2.7,1.9,4.2,2.1,2.2,.2,4.4-.8,6.4-2.8,1.9-2,3.4-4.9,4.1-8.1l.2-.9-.8-.4c-5-2.5-10.9-1.6-13.6,2-1.5,2-1.7,4.4-1.5,6.1l-5.8,4.8c-1-3-2.2-5.2-3.3-7-3.5-5.8-8.1-11.7-13.5-17.7l-.3-.3-1.7,1.6,.3,.3c5,5.5,9.3,11,12.6,16.4-2.6,1.3-5.1,1.8-7.4,1.4C10.9,30.3,4.7,17.7,4.5,2.3c6.4,.2,12.3,1.7,17.1,4.3,4.9,2.7,8.2,6.4,9.5,10.7,.7,2.4,.8,5.1,.2,7.9s.2,1.2,.8,1.3h0Zm18.9,27.9l9.8-5.6h.6c1.5,0,2.8,1.3,2.8,2.8h0c0,1.5-1.3,2.8-2.8,2.8h-10.5Zm-13.9,0l9.8-5.6h9.3l-9.8,5.6h-9.3Zm-22.1-5.6l-9.8,5.6h-.3c-1.5,0-2.8-1.3-2.8-2.8h0c0-1.5,1.3-2.8,2.8-2.8H15.2Zm13,0l-9.8,5.6H10l9.8-5.6h8.5Zm-5.3,5.6l9.8-5.6h9.7l-9.8,5.6h-9.7Zm18.5-26.8c1.9-2.6,6-3.3,9.9-1.7-1.4,5.5-5,8.5-7.8,8.2-.6,0-1.8-.4-3.2-1.9-.1-1.1-.1-3.1,1.1-4.7Z"/>
        </g>
      </g>
    </g>
  </g>
</svg>