<?xml version="1.0" encoding="UTF-8"?>
<svg xmlns="http://www.w3.org/2000/svg" viewBox="0 0 63.1 59.4">
  <defs>
    <style>
      .uuid-eccb8f91-0550-4322-9f54-bada9838b86c {
        fill: #fef2d7;
      }

      .uuid-7ca67b4d-41a8-4d3c-aa89-86dba9eadf0f {
        opacity: .4;
      }
    </style>
  </defs>
  <g id="uuid-b09e4ef9-8cfa-4031-ab43-ae2172493ca6" data-name="Calque 1"/>
  <g id="uuid-7fd36d8a-cd44-4dd0-82d8-9ce1a8205818" data-name="Calque 2">
    <g id="uuid-7a7c9106-3951-4f34-a9c8-6012a7e59ae1" data-name="Layer 1">
      <g class="uuid-7ca67b4d-41a8-4d3c-aa89-86dba9eadf0f">
        <g>
          <rect class="uuid-eccb8f91-0550-4322-9f54-bada9838b86c" x="30.7" y="21.6" width="2.1" height="6" transform="translate(-.2 .2) rotate(-.4)"/>
          <path class="uuid-eccb8f91-0550-4322-9f54-bada9838b86c" d="M31.7,23.2c-1.6,0-3.1-.6-4.2-1.7-1.1-1.1-1.8-2.6-1.8-4.2v-1.5c0-.6,.4-1,1-1h0c.6,0,1,.5,1,1v1.5c0,1,.4,2,1.2,2.8,.7,.7,1.7,1.1,2.8,1.1,2.2,0,3.9-1.8,3.9-3.9v-1.5c0-.6,.4-1,1-1h0c.6,0,1,.5,1,1v1.5c0,3.3-2.6,6-5.9,6h0Z"/>
          <path class="uuid-eccb8f91-0550-4322-9f54-bada9838b86c" d="M11.2,16.9c-.3,0-.5-.1-.7-.3-.2-.2-.3-.5-.3-.7v-4.1c0-.6,.4-1,1-1l40.9-.3h0c.3,0,.5,.1,.7,.3,.2,.2,.3,.5,.3,.7v4.1c0,.6-.4,1-1,1h-15.5c-.6,0-1-.4-1-.9,0-.6,.5-1,1-1h14.5v-2.1l-38.8,.2v2h14.5c.6,0,1,.4,1,.9,0,.6-.5,1-1,1H11.2Z"/>
          <path class="uuid-eccb8f91-0550-4322-9f54-bada9838b86c" d="M8.8,18.4c-.9,0-1.7-.3-2.4-1-.6-.6-1-1.5-1-2.4v-6.4c0-1.9,1.5-3.4,3.3-3.4h0c1.9,0,3.4,1.5,3.4,3.4v6.4c0,.9-.3,1.8-.9,2.4-.6,.6-1.5,1-2.4,1h0Zm0-11.1h0c-.7,0-1.3,.6-1.3,1.3v6.4c0,.4,.2,.7,.4,.9,.2,.2,.6,.4,.9,.4h0c.4,0,.7-.1,.9-.4,.2-.2,.4-.6,.4-.9v-6.4c0-.7-.6-1.3-1.4-1.3Z"/>
          <path class="uuid-eccb8f91-0550-4322-9f54-bada9838b86c" d="M8.7,6.9c-.6,0-1-.5-1-1V1.3c0-.6,.4-1,1-1h0c.6,0,1,.5,1,1V5.9c0,.6-.4,1-1,1h0Z"/>
          <path class="uuid-eccb8f91-0550-4322-9f54-bada9838b86c" d="M1.3,4.5c-.6,0-1-.5-1-1,0-.6,.5-1,1-1h14.9c.6,0,1,.4,1,.9,0,.6-.5,1-1,1H1.3Z"/>
          <path class="uuid-eccb8f91-0550-4322-9f54-bada9838b86c" d="M54.5,18.1c-1.9,0-3.4-1.5-3.4-3.4v-6.4c0-.9,.3-1.8,.9-2.4,.6-.6,1.5-1,2.4-1h0c1.9,0,3.4,1.5,3.4,3.4v6.4c0,1.9-1.5,3.4-3.3,3.4h0Zm0-11.1h0c-.4,0-.7,.1-.9,.4-.2,.2-.4,.6-.4,.9v6.4c0,.7,.6,1.3,1.4,1.3h0c.7,0,1.3-.6,1.3-1.3v-6.4c0-.7-.6-1.3-1.4-1.3Z"/>
          <path class="uuid-eccb8f91-0550-4322-9f54-bada9838b86c" d="M54.4,6.6c-.6,0-1-.5-1-1V1c0-.6,.4-1,1-1h0c.6,0,1,.5,1,1V5.6c0,.6-.4,1-1,1h0Z"/>
          <path class="uuid-eccb8f91-0550-4322-9f54-bada9838b86c" d="M47,4.3c-.6,0-1-.5-1-1,0-.6,.5-1,1-1h14.9c.6,0,1,.4,1,.9,0,.6-.5,1-1,1h-14.9Z"/>
          <path class="uuid-eccb8f91-0550-4322-9f54-bada9838b86c" d="M44.2,34.7H19.2c-2.1,0-3.8-1.7-3.8-3.8v-4.3H48v4.3c0,2.1-1.7,3.8-3.8,3.8Zm-26.7-6.1v2.3c0,1,.8,1.7,1.7,1.7h25c1,0,1.7-.8,1.7-1.7v-2.3H17.5Z"/>
          <path class="uuid-eccb8f91-0550-4322-9f54-bada9838b86c" d="M41.7,12.7H21.6v-2.9c0-1.8,1.5-3.3,3.3-3.3h13.5c1.8,0,3.3,1.5,3.3,3.3v2.9Zm-18-2.1h16v-.8c0-.7-.5-1.2-1.2-1.2h-13.5c-.7,0-1.2,.5-1.2,1.2v.8Z"/>
          <g>
            <path class="uuid-eccb8f91-0550-4322-9f54-bada9838b86c" d="M13.3,40.7c-.1,0-.3,0-.4,0-.1,0-.2-.1-.3-.2,0,0-.2-.2-.2-.3,0-.1,0-.3,0-.4s0-.3,0-.4c0-.1,.1-.2,.2-.3,0,0,.2-.2,.3-.2,.4-.2,.8,0,1.1,.2,0,0,.2,.2,.2,.3,0,.1,0,.3,0,.4s0,.3,0,.4c0,.1-.1,.2-.2,.3,0,0-.2,.2-.3,.2-.1,0-.3,0-.4,0Z"/>
            <path class="uuid-eccb8f91-0550-4322-9f54-bada9838b86c" d="M29.9,48.7s0,0-.1,0c-.6,0-1-.5-1-1s.6-1.1,1.2-1c.6,0,1,.6,.9,1.2,0,.5-.5,.9-1,.9Zm3.6,0c-.5,0-.9-.4-1-.9,0-.6,.4-1.1,1-1.2,.6,0,1.2,.4,1.2,1s-.5,1-1,1c0,0,0,0-.1,0Zm-7.4-.5s0,0-.1,0c0,0-.1,0-.2,0-.5-.2-.8-.8-.7-1.3,.2-.5,.7-.8,1.2-.7,.5,.1,.9,.6,.8,1.1,0,.5-.5,.9-1,.9Zm11.2-.1c-.4,0-.8-.3-1-.7-.2-.5,.1-1.1,.7-1.3,0,0,.1,0,.2,0,.6,0,1.1,.3,1.2,.9,0,.5-.3,1-.8,1.1,0,0-.2,0-.3,0Zm-14.8-1c0,0-.2,0-.3,0,0,0-.2,0-.2,0-.5-.3-.7-.9-.5-1.4,.2-.5,.8-.7,1.3-.5,.5,.2,.8,.7,.6,1.2-.1,.5-.5,.8-1,.8Zm18.4-.2c-.4,0-.7-.2-.9-.6-.3-.5,0-1.1,.5-1.4,0,0,.1,0,.2,0,.6-.1,1.1,.2,1.3,.8,.1,.5-.1,1-.6,1.2-.1,0-.3,0-.4,0Zm-21.7-1.4c-.2,0-.3,0-.5-.1,0,0,0,0-.1,0-.5-.3-.6-1-.3-1.4,.3-.5,.9-.6,1.4-.3,.5,.3,.6,.9,.4,1.3-.2,.4-.5,.6-.9,.6Zm25-.2c-.3,0-.6-.2-.8-.5-.3-.5-.1-1.1,.3-1.5,0,0,0,0,.1,0,.5-.3,1.1,0,1.4,.5,.3,.5,0,1.1-.5,1.4-.2,.1-.4,.2-.5,.2Zm-28.1-1.9c-.2,0-.5,0-.7-.2-.4-.3-.5-.9-.2-1.4,.3-.5,1-.6,1.4-.3,0,0,.2,.1,.2,.2,.4,.4,.3,1.1-.2,1.5-.2,.2-.4,.2-.6,.2Zm31.2-.4c-.3,0-.7-.2-.9-.5-.3-.4-.2-1,.2-1.4,.4-.3,.9-.3,1.3,0,.4,.4,.5,1,.2,1.5,0,0-.2,.2-.2,.2-.2,.1-.4,.2-.6,.2Z"/>
            <path class="uuid-eccb8f91-0550-4322-9f54-bada9838b86c" d="M50.1,40.3c-.3,0-.5-.1-.7-.3-.2-.2-.3-.4-.3-.7s.1-.5,.3-.7c0,0,.2-.2,.3-.2,.4-.2,.8,0,1.1,.2,.2,.2,.3,.5,.3,.7s-.1,.5-.3,.7c-.2,.2-.4,.3-.7,.3Z"/>
          </g>
          <g>
            <path class="uuid-eccb8f91-0550-4322-9f54-bada9838b86c" d="M18.2,39.8c-.1,0-.3,0-.4,0-.1,0-.2-.1-.3-.2-.2-.2-.3-.5-.3-.7s0-.3,0-.4c0-.1,.1-.2,.2-.3,.4-.4,1.1-.4,1.5,0,0,0,.2,.2,.2,.3,0,.1,0,.3,0,.4,0,.3-.1,.5-.3,.7-.2,.2-.4,.3-.7,.3Z"/>
            <path class="uuid-eccb8f91-0550-4322-9f54-bada9838b86c" d="M31.8,45.7c-.6,0-1-.5-1-1s.5-1,1-1h0c.6,0,1,.5,1,1s-.5,1-1,1Zm-3.8-.4c0,0-.2,0-.3,0-.5-.1-.9-.7-.8-1.2,.1-.5,.6-.9,1.2-.8,0,0,0,0,0,0,.6,.1,.9,.7,.8,1.3-.1,.5-.5,.8-1,.8Zm7.5,0c-.4,0-.8-.3-1-.7-.2-.5,.1-1.1,.7-1.3,0,0,.1,0,.2,0,.6,0,1.1,.3,1.2,.9,0,.5-.3,1-.8,1.1,0,0-.2,0-.3,0Zm-11.1-1.1c-.1,0-.2,0-.4,0-.5-.3-.8-.9-.5-1.4,.2-.5,.8-.7,1.3-.5,.5,.2,.7,.8,.6,1.3-.2,.4-.5,.7-1,.7Zm14.7-.1c-.4,0-.7-.2-.9-.6-.3-.5,0-1.1,.5-1.4,0,0,0,0,.1,0,.5-.2,1.1,0,1.3,.6,.2,.5,0,1.1-.6,1.3-.1,0-.3,.1-.4,.1Zm-18-1.7c-.2,0-.4,0-.6-.2-.5-.3-.6-1-.3-1.4,.3-.5,1-.6,1.4-.3h0c.5,.3,.6,1,.3,1.4-.2,.3-.5,.5-.9,.5Zm21.3-.2c-.3,0-.7-.2-.9-.5-.3-.5-.2-1.1,.3-1.4,.4-.3,1.1-.3,1.4,.2,.4,.4,.3,1.1-.1,1.5,0,0,0,0,0,0-.2,.1-.4,.2-.6,.2Z"/>
            <path class="uuid-eccb8f91-0550-4322-9f54-bada9838b86c" d="M45.2,39.5c-.3,0-.5-.1-.7-.3,0,0-.2-.2-.2-.3,0-.1,0-.3,0-.4s0-.3,0-.4c0-.1,.1-.2,.2-.3,0,0,.2-.2,.3-.2,.4-.2,.8,0,1.1,.2,0,0,.2,.2,.2,.3,0,.1,0,.3,0,.4s0,.3,0,.4c0,.1-.1,.2-.2,.3-.2,.2-.5,.3-.7,.3Z"/>
          </g>
          <g>
            <path class="uuid-eccb8f91-0550-4322-9f54-bada9838b86c" d="M23.3,38.7c-.3,0-.5,0-.7-.3,0,0-.2-.2-.2-.3,0-.1,0-.3,0-.4s0-.3,0-.4c0-.1,.1-.2,.2-.3,.4-.4,1.1-.4,1.5,0,0,0,.2,.2,.2,.3,0,.1,0,.3,0,.4s0,.3,0,.4c0,.1-.1,.2-.2,.3-.2,.2-.4,.3-.7,.3Z"/>
            <path class="uuid-eccb8f91-0550-4322-9f54-bada9838b86c" d="M29.9,42.2s0,0-.1,0l.3-2c.6,0,1,.6,.9,1.2,0,.5-.5,.9-1,.9Zm4,0l-.5-2c.6-.1,1.1,.2,1.3,.8,.1,.6-.2,1.1-.8,1.3Zm-7.6-1.2c-.2,0-.4,0-.6-.2-.5-.3-.7-.8-.4-1.4,.3-.5,.9-.7,1.4-.4,0,0,0,0,.1,0,.5,.3,.6,1,.3,1.4-.2,.3-.5,.5-.9,.5Zm10.8,0c-.3,0-.6-.2-.8-.5-.3-.5-.1-1.1,.3-1.5,0,0,0,0,.1,0,.5-.3,1.1,0,1.4,.5,.3,.5,0,1.1-.5,1.4-.2,.1-.4,.2-.5,.2Z"/>
            <path class="uuid-eccb8f91-0550-4322-9f54-bada9838b86c" d="M40.2,38.5c-.3,0-.5,0-.7-.3-.1,0-.2-.2-.2-.3,0-.1,0-.3,0-.4s0-.3,0-.4c0-.1,.1-.2,.2-.3s.2-.2,.3-.2c.4-.2,.8,0,1.1,.2,.2,.2,.3,.5,.3,.7s0,.3,0,.4c0,.1-.1,.2-.2,.3-.2,.2-.4,.3-.7,.3Z"/>
          </g>
          <path class="uuid-eccb8f91-0550-4322-9f54-bada9838b86c" d="M62.1,59.4H1c-.6,0-1-.5-1-1s.5-1,1-1H62.1c.6,0,1,.5,1,1s-.5,1-1,1Z"/>
          <path class="uuid-eccb8f91-0550-4322-9f54-bada9838b86c" d="M7.2,59.4s0,0-.1,0c-.3,0-.6-.2-.8-.5l-2.4-4c-.3-.5-.1-1.1,.3-1.4,.5-.3,1.1-.1,1.4,.3l1.8,2.9,3.6-3.6c.4-.4,1.1-.4,1.5,0,.4,.4,.4,1.1,0,1.5l-4.5,4.5c-.2,.2-.5,.3-.7,.3Z"/>
          <path class="uuid-eccb8f91-0550-4322-9f54-bada9838b86c" d="M19.2,59.4s0,0-.1,0c-.3,0-.6-.2-.8-.5l-2.4-4c-.3-.5-.1-1.1,.3-1.4,.5-.3,1.1-.1,1.4,.3l1.8,2.9,3.6-3.6c.4-.4,1.1-.4,1.5,0,.4,.4,.4,1.1,0,1.5l-4.5,4.5c-.2,.2-.5,.3-.7,.3Z"/>
          <path class="uuid-eccb8f91-0550-4322-9f54-bada9838b86c" d="M31.2,59.4s0,0-.1,0c-.3,0-.6-.2-.8-.5l-2.4-4c-.3-.5-.1-1.1,.3-1.4,.5-.3,1.1-.1,1.4,.3l1.8,2.9,3.6-3.6c.4-.4,1.1-.4,1.5,0,.4,.4,.4,1.1,0,1.5l-4.5,4.5c-.2,.2-.5,.3-.7,.3Z"/>
          <path class="uuid-eccb8f91-0550-4322-9f54-bada9838b86c" d="M43.1,59.4s0,0-.1,0c-.3,0-.6-.2-.8-.5l-2.4-4c-.3-.5-.1-1.1,.3-1.4,.5-.3,1.1-.1,1.4,.3l1.8,2.9,3.6-3.6c.4-.4,1.1-.4,1.5,0,.4,.4,.4,1.1,0,1.5l-4.5,4.5c-.2,.2-.5,.3-.7,.3Z"/>
          <path class="uuid-eccb8f91-0550-4322-9f54-bada9838b86c" d="M55.1,59.4s0,0-.1,0c-.3,0-.6-.2-.8-.5l-2.4-4c-.3-.5-.1-1.1,.3-1.4,.5-.3,1.1-.1,1.4,.3l1.8,2.9,3.6-3.6c.4-.4,1.1-.4,1.5,0,.4,.4,.4,1.1,0,1.5l-4.5,4.5c-.2,.2-.5,.3-.7,.3Z"/>
        </g>
        <path class="uuid-eccb8f91-0550-4322-9f54-bada9838b86c" d="M36.9,34.7h-10.6c-.6,0-1-.5-1-1v-6.1c0-.6,.5-1,1-1h10.6c.6,0,1,.5,1,1v6.1c0,.6-.5,1-1,1Zm-9.6-2.1h8.5v-4h-8.5v4Z"/>
      </g>
    </g>
  </g>
</svg>