<?xml version="1.0" encoding="UTF-8"?>
<svg xmlns="http://www.w3.org/2000/svg" viewBox="0 0 73.8 75">
  <defs>
    <style>
      .uuid-cfa590ce-9031-42d7-844a-333aa40f9b5d {
        fill: #fef2d7;
      }

      .uuid-65e102c6-5da0-42cc-8de8-0a47104de22e {
        opacity: .4;
      }
    </style>
  </defs>
  <g id="uuid-0b45cd1d-043f-46e0-bb31-7c52e83c0ac8" data-name="Calque 1"/>
  <g id="uuid-9ea36c48-ed13-46ef-a6ce-b284b65322a6" data-name="Calque 2">
    <g id="uuid-f63f26aa-3a21-4e32-be8f-853099fc6ca9" data-name="Layer 1">
      <g class="uuid-65e102c6-5da0-42cc-8de8-0a47104de22e">
        <g>
          <path class="uuid-cfa590ce-9031-42d7-844a-333aa40f9b5d" d="M36,23.6c.3,0,.8,0,1.6,0,.8,0,1.3,0,1.6,0,3.1-.7,5.2-2.4,6.5-5.1,1-2.2,1.2-4.4,.4-6.6-.3-.8-.7-1.7-1.4-2.9-1.1-1.9-2.9-4.4-5.3-7.5C39,.9,38.2,0,37.5,0c-.7,0-1.4,.9-1.9,1.5-2.4,3.1-4.1,5.6-5.2,7.5-.7,1.1-1.1,2.1-1.4,2.9-.7,2.3-.6,4.5,.4,6.6,1.3,2.7,3.5,4.4,6.5,5.1Zm6.4-13.7c.4,.7,.8,1.4,1.1,2.1,1.9,4.3-1.3,9.3-6,9.3-4.7,0-8-4.9-6.1-9.2,.3-.7,.7-1.4,1.1-2.1,1.5-2.4,3-4.6,4.7-6.8,0,0,0,0,.1,0s0,0,.1,0c1.7,2.2,3.3,4.4,4.8,6.7Z"/>
          <path class="uuid-cfa590ce-9031-42d7-844a-333aa40f9b5d" d="M53.3,12.9c.2,0,.5-.2,1-.6,2.4-1.9,5-2.8,8-2.8s5.7,.9,8,2.8c.5,.4,.8,.6,1,.6,.8,.1,1.5-.7,1.4-1.5,0-.5-.8-1.1-1.2-1.4-2.7-2-5.8-3-9.2-3s-6.5,1-9.2,3c-.4,.3-1.2,.9-1.2,1.4-.1,.8,.6,1.6,1.4,1.5Z"/>
          <path class="uuid-cfa590ce-9031-42d7-844a-333aa40f9b5d" d="M68.8,15.6c-.9-1.3-3-2.3-4.4-2.7-.5-.1-1.1-.2-2-.2-.9,0-1.6,0-2,.2-1.5,.4-3.6,1.4-4.4,2.7-.6,1,.6,2.4,1.7,1.6,1.5-1.2,2.8-2,4.8-2,2,0,3.3,.8,4.8,2,1,.8,2.3-.6,1.7-1.6Z"/>
          <path class="uuid-cfa590ce-9031-42d7-844a-333aa40f9b5d" d="M62.3,18.5c-.9,0-2.4,.6-2.8,1.6-.3,.7,.3,1.8,1.2,1.7,0,0,.1,0,.2,0,.4-.1,.9-.6,1.4-.6,.5,0,1.1,.4,1.5,.6,0,0,.1,0,.2,0,.9,.1,1.5-1,1.2-1.7-.4-1-1.9-1.5-2.9-1.5Z"/>
          <path class="uuid-cfa590ce-9031-42d7-844a-333aa40f9b5d" d="M.5,56c.5,.4,1.2,.1,2,0,1.4-.3,2.7-.2,3.9,.4,.7,.3,1.7,.9,2.5,1.2,1.1,.4,2.3,.6,3.5,.6,1.8,0,3.3-.7,4.8-1.6,2-1.1,4.2-1.3,6.4-.2,.6,.3,1.2,.6,1.8,.9,.1,0,.2,.2,.2,.3,0,1.1,.2,2.1-.5,3-1.1,1.5-2.5,2.5-4.1,3.2-1.3,.6-2.8,.7-4.2,1.1-2.6,.7-5,2.1-6.4,4.3-.5,.7-.9,1.8,0,2.3,.5,.3,1.1,.1,1.4-.3,.5-.8,1.2-1.5,1.9-2.1,1.5-1.3,3.3-1.9,5.2-2.3,0,0,.2,0,.1,.2-.7,1.4-1.1,3.4-1.1,5.9,0,.6,.5,1.1,1.1,1.2h0c.6,0,1.2-.4,1.2-1.1,.1-2.5,.4-4.7,2.2-6.5,.9-.9,1.9-1.8,2.9-2.5,0,0,.2,0,.2,0,0,.2,0,.4,0,.5,0,.8,0,5.6,0,5.7,0,.5,.3,.8,.7,1,1.2,.3,1.6-.4,1.7-1.5,0-.2,0-8.2,0-5.9s.1-.2,.2-.1c2.4,1.6,4.4,3.4,5.1,6.1,.3,1.2,.3,2.4,.3,4.3,0,.6,.5,1.1,1.1,1.1h0c.6,0,1.1-.5,1.2-1.1,.2-2.5-.1-4.8-1.1-7,0,0,0,0,0,0,1.3,.6,2.8,.9,3.7,1.2,1.5,.6,2.8,1.5,4,2.8,.5,.6,1.4,.6,1.9-.1,.4-.6,0-1.5-.5-2-1.6-1.6-3.6-2.7-5.8-3.3,0,0-1-.2-2.8-.6-1.5-.3-3-1.1-4.5-2.2-1.5-1.2-3.1-3.2-2.8-5.2,0,0,0-.1,.1-.2,1.1-.5,1.8-.7,1.9-.8,1.7-.7,3.5-1,5.2-.5,1.1,.3,2.3,1.2,3.4,1.6,2,.6,3.9,.7,5.7,0,1.2-.4,2.5-1.3,3.7-1.6,.9-.2,1.9-.3,2.9-.2,.2,0,.3,0,.4,.2,1.4,2,3.4,2.8,5.9,2.7,.2,0,.3,.1,.3,.3,0,1.4,0,2.8,0,4,.2,2.2,1.2,3.8,3.1,4.6,.2,0,.3,.2,.3,.4,0,2.3,0,.3,0,2.6,0,.5,0,1.3,.6,1.5,1.1,.4,1.9-.3,1.9-1.4,0-2.1,0-.2,0-2.8,0,0,0-.1,0-.1,2.3-.9,3.5-2.7,3.5-5.3,0-.8,0-2,0-3.5,0,0,0-.1,.1-.1,.5,0,.9,0,1.1,0,3.2-.2,5.4-3,5.4-6.1,0-4.6,0-8.7,0-12.5,0-3.4-2.6-6-6-5.9-.3,0-1.5,0-3.7,0-.1,0-.2,0-.2-.2,0-3.8,0-6.4,0-8,0-1.9-2.4-2-2.5-.1,0,1.2,0,3.9,0,8.2,0,0,0,.1-.1,.1-2.8,0-4.3,0-4.5,0-3.3-.1-6.1,2.3-6.1,5.7,0,1,0,5.4,0,13.3,0,0,0,.2-.2,.2-1.7,.2-3.3,.4-4.7,1.1-1.3,.6-2,1-2,1-1,.3-2.1,.4-3.2,.2-1.3-.2-3-1.3-4.1-1.7-2.7-1-5.4-.3-8.1,.9,0,0-.2,0-.2-.1v-11.3c0,0,0-.1,.1-.2,.5,0,1.2-.2,2.1-.3,2.2-.3,4.2-1,6.2-2,3.7-2,5.7-5.3,6.6-9.5,.2-1.2,.4-2.2,.4-3.1,0-.9-.5-1.3-1.4-1.3-3,0-5.9,.3-8.5,1.6-2.9,1.5-5.1,4.2-6.3,7.2,0,0-.2,0-.2,0-.3-2.3-1-4.5-2-6.5-2.6-5.1-7.8-7.6-13.2-8.1-.9,0-1.9-.2-3-.3-1.6-.1-1.8,.4-1.7,1.9,.5,6.5,3,12.1,8.9,15.3,2.9,1.6,5.9,2.6,9.1,2.9,.2,0,.3,.2,.4,.4,.1,1.6,.2,3.2,.2,5,0,2.8,0,5.5,0,7.9s-.1,.2-.2,.1c-.5-.3-1.1-.5-1.7-.7-2.1-.8-4.5-.7-6.5,.1-1,.4-2.1,1.1-3,1.5-.1,0-.2,0-.3,.1-1.1,.3-2.3,.2-3.5,0-1-.3-2.2-1-3.1-1.4-1.9-.7-3.8-.8-5.7-.3-1,.3-2.2,1.3-1,2.3Zm15.7-20.6c-1-.6-2-1.5-3-2.7-2.2-2.5-3.3-5.9-3.6-9.3,0,0,0,0,0,0,2.7,.2,5.6,.7,7.9,1.8,4.3,2.1,6.3,5.7,7.1,10.4,.2,.9,.3,1.8,.3,2.8,0,0,0,.1-.1,.1-3.1-.4-6-1.4-8.7-3.1Zm12.4,5c.3-1.7,.7-3.3,1.4-4.8,2.1-4.3,5.9-6.3,10.7-6.3,.2,0,.3,.1,.3,.3-.5,4.3-2.5,7.7-6.6,9.5-1.8,.8-3.7,1.2-5.6,1.3,0,0,0,0,0,0Zm36,22.3c0,1.5-1,2.7-2.2,2.7h0c-1.2,0-2.2-1.2-2.2-2.7v-4s0,0,0,0h4.4s0,0,0,0v4Zm-8.2-26.2h11.4c1.9,0,3.5,1.5,3.5,3.4v12.8c0,1.9-1.5,3.5-3.4,3.5h-11.4c-1.9,0-3.5-1.5-3.5-3.4v-12.8c0-1.9,1.5-3.5,3.4-3.5Z"/>
          <path class="uuid-cfa590ce-9031-42d7-844a-333aa40f9b5d" d="M62.3,48.3c2.1,0,3.8-.9,5.3-2.7,.7-.8,1.1-2.1-.3-2.5-.4-.1-.8,0-1.1,.3-.5,.6-.7,1-1.3,1.5-.8,.7-1.7,1-2.7,1-1,0-1.9-.3-2.7-1-.6-.5-.8-.9-1.3-1.5-.3-.3-.6-.4-1.1-.3-1.4,.4-.9,1.7-.3,2.5,1.5,1.8,3.2,2.7,5.3,2.7Z"/>
        </g>
      </g>
    </g>
  </g>
</svg>