<?xml version="1.0" encoding="UTF-8"?>
<svg xmlns="http://www.w3.org/2000/svg" viewBox="0 0 67.4 64.6">
  <defs>
    <style>
      .uuid-97805173-c1bc-4dbd-a543-f10764b7ee55 {
        fill: #fef2d7;
      }
    </style>
  </defs>
  <g id="uuid-0c9604d9-0854-4d1b-ad26-cc9b90370f4a" data-name="Calque 1"/>
  <g id="uuid-f3f95de7-448b-4627-824a-ae44e5386e56" data-name="Calque 2">
    <g id="uuid-922a0938-d20a-486a-bca6-f63e68170793" data-name="Layer 1">
      <g>
        <path class="uuid-97805173-c1bc-4dbd-a543-f10764b7ee55" d="M25,40.4c-.9,0-1.8-.3-2.5-1l-7.4-6.8c-.9-.4-4.3-2-5.5-3.2-1.4-1.3-3.9-5.9-4.5-7L.4,18.4c-.5-.4-.5-1.2-.1-1.6,.4-.5,1.2-.5,1.6-.1l4.8,4.2c.1,0,.2,.2,.3,.3,1.1,2.1,3.2,5.7,4.2,6.6,.8,.8,3.5,2.1,5,2.8,.1,0,.2,.1,.3,.2l7.5,6.9c.5,.5,1.3,.5,1.9,0,.5-.4,.6-1.2,.3-1.8l-4.3-7.3c0-.1-.1-.2-.1-.3-.3-1.5-.8-2.9-1.3-4.2-.3-.7-.2-1.5,.2-2.2,.4-.6,1.1-1,1.9-1h5.2c.4,0,.7,.2,.9,.5l4.1,5.5c.1,.2,.2,.4,.2,.6l.9,8.8c0,.5,.5,.9,1,.9,.5,0,1-.5,1-1v-10.3l-3.7-8.3c-.4-.8-1.2-1.4-2.1-1.6l-17.1-2.1c-.2,0-.4-.1-.6-.3L.4,3.3c-.5-.4-.5-1.2-.1-1.6,.4-.5,1.2-.5,1.6-.1L13.6,11.7l16.8,2.1c1.7,.2,3.2,1.3,3.9,2.9l3.8,8.5c0,.1,.1,.3,.1,.5v10.6c0,1.8-1.5,3.3-3.3,3.3-1.7,0-3.2-1.3-3.3-3l-.9-8.5-3.5-4.8h-4.6c.5,1.3,1,2.8,1.4,4.3l4.2,7.2c.9,1.5,.6,3.5-.8,4.7-.7,.6-1.6,.9-2.4,.9Z"/>
        <path class="uuid-97805173-c1bc-4dbd-a543-f10764b7ee55" d="M30.1,47.7c-2.1,0-3.5-1.4-3.5-3.5s1.1-5.8,3.5-5.8,3.5,4.2,3.5,5.8-1.4,3.5-3.5,3.5Zm0-6.9c-.5,.4-1.2,2.1-1.2,3.4s.1,1.2,1.2,1.2,1.2-.6,1.2-1.2c0-1.3-.7-3-1.2-3.4Z"/>
        <path class="uuid-97805173-c1bc-4dbd-a543-f10764b7ee55" d="M43.2,53h0c-1.1-2-4.9-1.2-6.6-.3-1.2,.7-1.6,1.6-1.7,2.2-.2,.8,0,1.7,.5,2.5,.7,1.2,1.7,1.8,2.9,1.8s1.2-.2,1.9-.5c1.7-1,4.2-3.8,3.1-5.8Zm-4.3,3.8c-.5,.3-1.1,.5-1.6-.4-.2-.3-.3-.6-.2-.9,0-.3,.3-.5,.6-.7,.8-.5,1.9-.7,2.7-.7s.5,0,.7,0c0,.6-1.2,2-2.2,2.6Z"/>
        <path class="uuid-97805173-c1bc-4dbd-a543-f10764b7ee55" d="M4.6,61.1c-1.9,0-3.5-1.6-3.5-3.5s1.6-3.5,3.5-3.5,3.5,1.6,3.5,3.5-1.6,3.5-3.5,3.5Zm0-4.6c-.6,0-1.2,.5-1.2,1.2s.5,1.2,1.2,1.2,1.2-.5,1.2-1.2-.5-1.2-1.2-1.2Z"/>
        <path class="uuid-97805173-c1bc-4dbd-a543-f10764b7ee55" d="M19.7,57c0,1-.8,1.7-1.7,1.7s-1.7-.8-1.7-1.7,.8-1.7,1.7-1.7,1.7,.8,1.7,1.7Z"/>
        <path class="uuid-97805173-c1bc-4dbd-a543-f10764b7ee55" d="M13.9,62.8c0,1-.8,1.7-1.7,1.7s-1.7-.8-1.7-1.7,.8-1.7,1.7-1.7,1.7,.8,1.7,1.7Z"/>
        <path class="uuid-97805173-c1bc-4dbd-a543-f10764b7ee55" d="M62.6,64.6c-1.9,0-3.5-1.6-3.5-3.5s1.6-3.5,3.5-3.5,3.5,1.6,3.5,3.5-1.6,3.5-3.5,3.5Zm0-4.6c-.6,0-1.2,.5-1.2,1.2s.5,1.2,1.2,1.2,1.2-.5,1.2-1.2-.5-1.2-1.2-1.2Z"/>
        <path class="uuid-97805173-c1bc-4dbd-a543-f10764b7ee55" d="M64.9,53.5c0,1-.8,1.7-1.7,1.7s-1.7-.8-1.7-1.7,.8-1.7,1.7-1.7,1.7,.8,1.7,1.7Z"/>
        <path class="uuid-97805173-c1bc-4dbd-a543-f10764b7ee55" d="M53.3,61.7c0,1-.8,1.7-1.7,1.7s-1.7-.8-1.7-1.7,.8-1.7,1.7-1.7,1.7,.8,1.7,1.7Z"/>
        <path class="uuid-97805173-c1bc-4dbd-a543-f10764b7ee55" d="M66.6,48.4c-2.4-1.2-4.7-1.6-6.7-1.3-.9,.1-1.6,.4-2.2,.6-.3,.1-.6,.2-.9,.3v-8.9c.3,0,.7,0,1.2,0,1.2,0,2.8-.2,4.3-.9,4.1-1.9,4.9-6.5,4.9-6.7,0-.6-.3-1.2-.8-1.3-.2,0-4.5-1.2-8,.6-.6,.3-1.1,.7-1.6,1.2v-4.5h0c.8,0,5-.1,7.7-2.5,3-2.6,2.9-6.9,2.9-7,0-.6-.5-1.1-1.1-1.1-.2,0-4.9-.1-7.9,2.4-.7,.6-1.2,1.3-1.7,2.1v-4.4c1.1-1,4.1-4.3,4.1-8.3S56.5,.4,56.3,.3c-.4-.4-1-.4-1.4,0-.2,.2-4.5,3.9-4.5,8.6s3.1,7.3,4.1,8.3v4.4c-.4-.8-1-1.5-1.7-2.1-3-2.6-7.7-2.5-7.9-2.4-.6,0-1.1,.5-1.1,1.1,0,.2-.1,4.4,2.9,7,2.7,2.3,6.9,2.5,7.7,2.5h0v4.6c-.4-.5-.9-.9-1.6-1.2-3.5-1.8-7.9-.7-8-.6-.6,.2-.9,.7-.8,1.3,0,.2,.8,4.8,4.9,6.7,1.6,.7,3.1,.9,4.3,.9s.8,0,1.2,0v9.2c-.5,0-1-.1-1.6-.2-1.5-.2-2.9-.4-3.8,.4-3.3,2.8-2.2,5.8-1.7,7.3-.1,0-.2,0-.4,0-.8,.1-1.7,.3-2.4,.6-1.3,.7-1.4,1.9-1.4,2.7,0,.7-.1,1-.3,1.2,0,0,0,0,0,0-.5-.2-1.2-.4-2.5-.2-1.4,.3-2.1,1-2.5,1.5-.4,.4-.5,.5-.7,.5h0c-.2,0-.3-.1-.7-.7-.5-.7-1.3-1.7-2.8-1.7h0c-1.2,0-2,.5-2.6,.8-.4,.2-.6,.3-.9,.3s-.2,0-.2,0c0,0-.2-.2-.4-.4-.2-.3-.5-.6-1-1-.9-.9-1.5-1.1-2.1-1.2-.3,0-.4,0-.8-.3-.4-.3-.6-.8-1.1-2.4-.2-.7-.5-1.4-.8-2.4-.6-1.6-3-4-5.3-3.9-1.2,0-2.1,.4-2.8,.8-.7,.3-1.4,.7-2.7,.7-1.1,0-1.6-.2-2.4-.5-.8-.3-1.7-.7-3.1-.8h-.2c-1.5-.1-4.1-.4-6.7,1.2-.5,.3-.7,1-.4,1.6,.3,.5,1,.7,1.6,.4,2-1.2,3.9-1,5.3-.9h.2c1.1,.1,1.7,.4,2.4,.7,.9,.4,1.8,.8,3.4,.7,1.7,0,2.7-.5,3.6-.9,.6-.3,1.1-.5,1.9-.6,1.2,0,2.7,1.5,3,2.3,.3,.9,.6,1.7,.8,2.3,.6,1.8,.9,2.8,2,3.6,.7,.5,1.2,.6,1.6,.7,.3,0,.5,.1,1,.6,.4,.4,.6,.7,.8,.9,.6,.6,1,1.2,2.3,1.2s1.5-.4,2-.7c.5-.3,.8-.5,1.5-.5h0c.3,0,.5,.2,.9,.8,.5,.6,1.2,1.6,2.5,1.6h0c1.3,0,1.9-.7,2.4-1.2,.4-.4,.6-.7,1.3-.8,.6-.1,.9,0,1.3,0,.4,.1,1.1,.4,1.9-.1,1.4-.9,1.5-2.2,1.5-3.1,0-.7,0-.8,.2-.8,.4-.2,1.1-.3,1.7-.4,.6,0,1.1-.2,1.6-.4,.4-.1,.7-.4,.8-.7,.3-.6,0-1.2-.2-1.9-.5-1.3-1.2-3,.9-4.8,.3-.2,1.4,0,2,0,.6,0,1.2,.2,1.9,.2v1.8l-2,2c-.5,.5-.5,1.2,0,1.6,.5,.5,1.2,.5,1.6,0l1.5-1.5,2.7,2.7c.2,.2,.5,.3,.8,.3s.6-.1,.8-.3c.5-.5,.5-1.2,0-1.6l-3.1-3.1v-2c.7-.2,1.2-.4,1.7-.5,.6-.2,1.1-.4,1.8-.5,1.1-.2,2.9,0,5.3,1.1,.6,.3,1.3,0,1.5-.5,.3-.6,0-1.3-.5-1.5Zm-7.2-15.4c1.8-.9,3.9-.8,5.2-.7-.4,1.2-1.4,3-3.3,3.8-1.7,.8-3.4,.8-4.4,.7,.3-1.2,.9-3.1,2.4-3.8Zm.5-11.8h0c1.5-1.3,3.8-1.7,5.2-1.9-.2,1.1-.6,2.9-2.1,4.1-1.5,1.3-3.8,1.7-5.2,1.9,.2-1.1,.6-2.9,2.1-4.1Zm-11.7,2.3c-1.4-1.2-1.9-3-2.1-4.1,1.4,.1,3.7,.5,5.2,1.9,1.4,1.2,1.9,3,2.1,4.1-1.4-.1-3.7-.5-5.2-1.9Zm1.8,12.7c-1.9-.9-2.8-2.7-3.3-3.8,1.3-.2,3.4-.2,5.2,.7,1.5,.8,2.1,2.6,2.4,3.8-1,.1-2.7,.1-4.4-.7Zm2.7-27.3c0-2.7,2-5.1,3-6.2,1,1.1,3,3.5,3,6.2s-2,5.1-3,6.2c-1-1.1-3-3.5-3-6.2Z"/>
      </g>
    </g>
  </g>
</svg>