<?xml version="1.0" encoding="UTF-8"?>
<svg xmlns="http://www.w3.org/2000/svg" viewBox="0 0 78.1 65.1">
  <defs>
    <style>
      .uuid-1a8ccca6-d6c9-4484-8ea7-5ed2698bb444 {
        fill: #fef2d7;
      }

      .uuid-101767a5-f1d7-4cdc-9662-44053b267579 {
        opacity: .4;
      }
    </style>
  </defs>
  <g id="uuid-db9902ba-2fab-4b6c-afc4-b5b65f25f73b" data-name="Calque 1"/>
  <g id="uuid-4695284e-9eeb-4764-b6bc-ca7cabd081e6" data-name="Calque 2">
    <g id="uuid-55dc9f64-3f30-4c08-99c3-4e510a4462b3" data-name="Layer 1">
      <g class="uuid-101767a5-f1d7-4cdc-9662-44053b267579">
        <g>
          <path class="uuid-1a8ccca6-d6c9-4484-8ea7-5ed2698bb444" d="M77,62.9h-11.6v-15.1h0c.8,0,5-.1,7.7-2.5,3-2.6,2.9-6.9,2.9-7,0-.6-.5-1.1-1.1-1.1-.2,0-4.9-.1-7.9,2.4-.7,.6-1.2,1.3-1.7,2.1v-4.4c1.1-1,4.1-4.3,4.1-8.3s-4.3-8.5-4.5-8.6c-.4-.4-1-.4-1.4,0-.2,.2-4.5,3.9-4.5,8.6s3.1,7.3,4.1,8.3v4.4c-.4-.8-1-1.5-1.7-2.1-3-2.6-7.7-2.5-7.9-2.4-.6,0-1.1,.5-1.1,1.1,0,.2-.1,4.4,2.9,7,2.7,2.3,6.9,2.5,7.7,2.5h0v15.1h-4.6c.3-.8,.5-1.7,.5-2.5,0-1.7-.7-3.4-1.9-4.6s-2.8-1.9-4.6-1.9-3.4,.7-4.6,1.9c-1.2,1.2-1.9,2.8-1.9,4.6s.2,1.7,.5,2.5h-6.7v-9.3h0c.8,0,5-.1,7.7-2.5,3-2.6,2.9-6.9,2.9-7,0-.6-.5-1.1-1.1-1.1,0,0-4.9-.2-7.9,2.4-.7,.6-1.2,1.3-1.7,2.1v-4.4c1.1-1,4.1-4.3,4.1-8.3s-4.3-8.5-4.5-8.6c-.4-.4-1-.4-1.4,0-.2,.2-4.5,3.9-4.5,8.6s3.1,7.3,4.1,8.3v4.4c-.4-.8-1-1.5-1.7-2.1-3-2.6-7.7-2.5-7.9-2.4-.6,0-1.1,.5-1.1,1.1,0,.2-.1,4.4,2.9,7,2.7,2.3,6.9,2.5,7.7,2.5h0v9.3h-4.4c-.4-2-2.2-3.5-4.3-3.5s-3.8,1.4-4.3,3.5H13.8v-3.5h0c.8,0,5-.1,7.7-2.5,3-2.6,2.9-6.9,2.9-7,0-.6-.5-1.1-1.1-1.1,0,0-4.9-.1-7.9,2.4-.7,.6-1.2,1.3-1.7,2.1v-4.4c1.1-1,4.1-4.3,4.1-8.3s-4.3-8.5-4.5-8.6c-.4-.4-1-.4-1.4,0-.2,.2-4.5,3.9-4.5,8.6s3.1,7.3,4.1,8.3v4.4c-.4-.8-1-1.5-1.7-2.1-3-2.6-7.7-2.5-7.9-2.4-.6,0-1.1,.5-1.1,1.1,0,.2-.1,4.4,2.9,7,2.7,2.3,6.9,2.5,7.7,2.5h0v3.5H1.1c-.6,0-1.1,.5-1.1,1.1s.5,1.1,1.1,1.1H77c.6,0,1.1-.5,1.1-1.1s-.5-1.1-1.1-1.1Zm-9.8-33.9c0,2.7-2,5.1-3,6.2-1-1.1-3-3.5-3-6.2s2-5.1,3-6.2c1,1.1,3,3.5,3,6.2Zm1.3,12.3h0c1.5-1.3,3.8-1.7,5.2-1.9-.2,1.1-.6,2.9-2.1,4.1-1.5,1.3-3.8,1.7-5.2,1.9,.2-1.1,.6-2.9,2.1-4.1Zm-8.5,0c1.4,1.2,1.9,3,2.1,4.1-1.4-.1-3.7-.5-5.2-1.9-1.4-1.2-1.9-3-2.1-4.1,1.4,.1,3.7,.5,5.2,1.9Zm-3,19c0,.9-.3,1.8-.8,2.5h-7.1c-.5-.8-.8-1.6-.8-2.5s.5-2.3,1.3-3.1c.8-.8,1.9-1.3,3.1-1.3s2.3,.5,3.1,1.3,1.3,1.9,1.3,3.1Zm-15.2-25.5c0,2.7-2,5.1-3,6.2-1-1.1-3-3.5-3-6.2s2-5.1,3-6.2c1,1.1,3,3.5,3,6.2Zm1.3,12.3h0c1.5-1.3,3.8-1.7,5.2-1.9-.2,1.1-.6,2.9-2.1,4.1-1.5,1.3-3.8,1.7-5.2,1.9,.2-1.1,.6-2.9,2.1-4.1Zm-8.5,0c1.4,1.2,1.9,3,2.1,4.1-1.4-.1-3.7-.5-5.2-1.9-1.4-1.2-1.9-3-2.1-4.1,1.4,.1,3.7,.5,5.2,1.9Zm-3.4,15.7h-4.2c.4-.8,1.2-1.4,2.1-1.4s1.7,.6,2.1,1.4Zm-15.4-22.2c0,2.7-2,5.1-3,6.2-1-1.1-3-3.5-3-6.2s2-5.1,3-6.2c1,1.1,3,3.5,3,6.2Zm1.3,12.3h0c1.5-1.3,3.8-1.7,5.2-1.9-.2,1.1-.6,2.9-2.1,4.1-1.5,1.3-3.8,1.7-5.2,1.9,.2-1.1,.6-2.9,2.1-4.1Zm-8.5,0c1.4,1.2,1.9,3,2.1,4.1-1.4-.1-3.7-.5-5.2-1.9h0c-1.4-1.2-1.9-3-2.1-4.1,1.4,.1,3.7,.5,5.2,1.9Z"/>
          <path class="uuid-1a8ccca6-d6c9-4484-8ea7-5ed2698bb444" d="M17.7,32.7c0,3.7,3,6.8,6.8,6.8s6.8-3,6.8-6.8-3-6.8-6.8-6.8-6.8,3-6.8,6.8Zm2.1,0c0-2.6,2.1-4.7,4.7-4.7s4.7,2.1,4.7,4.7-2.1,4.7-4.7,4.7-4.7-2.1-4.7-4.7Z"/>
          <path class="uuid-1a8ccca6-d6c9-4484-8ea7-5ed2698bb444" d="M63.3,13.5c3.7,0,6.8-3,6.8-6.8s-3-6.8-6.8-6.8-6.8,3-6.8,6.8,3,6.8,6.8,6.8Zm-4.7-6.8c0-2.6,2.1-4.7,4.7-4.7s4.7,2.1,4.7,4.7-2.1,4.7-4.7,4.7-4.7-2.1-4.7-4.7Z"/>
          <path class="uuid-1a8ccca6-d6c9-4484-8ea7-5ed2698bb444" d="M11.9,21.7c4.9,0,9-4,9-9S16.8,3.7,11.9,3.7,2.9,7.8,2.9,12.7s4,9,9,9ZM5,12.7c0-3.8,3.1-6.9,6.9-6.9s6.9,3.1,6.9,6.9-3.1,6.9-6.9,6.9-6.9-3.1-6.9-6.9Z"/>
          <path class="uuid-1a8ccca6-d6c9-4484-8ea7-5ed2698bb444" d="M4.7,36.1c2.2,0,4.1-1.8,4.1-4.1s-1.8-4.1-4.1-4.1-4.1,1.8-4.1,4.1,1.8,4.1,4.1,4.1Zm-2-4.1c0-1.1,.9-2,2-2s2,.9,2,2-.9,2-2,2-2-.9-2-2Z"/>
          <path class="uuid-1a8ccca6-d6c9-4484-8ea7-5ed2698bb444" d="M50.6,34.5c2.2,0,4.1-1.8,4.1-4.1s-1.8-4.1-4.1-4.1-4.1,1.8-4.1,4.1,1.8,4.1,4.1,4.1Zm0-6c1.1,0,2,.9,2,2s-.9,2-2,2-2-.9-2-2,.9-2,2-2Z"/>
          <path class="uuid-1a8ccca6-d6c9-4484-8ea7-5ed2698bb444" d="M36.5,21.4c3.4,0,6.1-2.7,6.1-6.1s-2.7-6.1-6.1-6.1-6.1,2.7-6.1,6.1,2.7,6.1,6.1,6.1Zm-4-6.1c0-2.2,1.8-4,4-4s4,1.8,4,4-1.8,4-4,4-4-1.8-4-4Z"/>
        </g>
      </g>
    </g>
  </g>
</svg>