<?xml version="1.0" encoding="UTF-8"?>
<svg xmlns="http://www.w3.org/2000/svg" viewBox="0 0 78.8 73.3">
  <defs>
    <style>
      .uuid-c0c9b777-3596-444d-b08b-1e11bff45420 {
        fill: #fef2d7;
      }

      .uuid-641df782-e36a-484f-82b1-5fd4383df1f8 {
        opacity: .4;
      }
    </style>
  </defs>
  <g id="uuid-218eefb7-7749-4f2a-800b-051c3e5692d6" data-name="Calque 1"/>
  <g id="uuid-af1d8e6b-fa6a-4243-8c17-c03b063107c3" data-name="Calque 2">
    <g id="uuid-b5aa9a93-a36e-4766-9c55-5f9552fe64eb" data-name="Layer 1">
      <g class="uuid-641df782-e36a-484f-82b1-5fd4383df1f8">
        <g>
          <path class="uuid-c0c9b777-3596-444d-b08b-1e11bff45420" d="M48.6,7.2H27.9c-2.1,0-3.8,1.7-3.8,3.9v2.4c0,.6,.5,1.1,1.1,1.1s1.1-.5,1.1-1.1v-2.4c0-1,.7-1.7,1.6-1.7h20.7c.6,0,1.1-.5,1.1-1.1s-.5-1.1-1.1-1.1Z"/>
          <path class="uuid-c0c9b777-3596-444d-b08b-1e11bff45420" d="M2.1,18.1c.6,.1,1.1-.3,1.2-.8,0-.2,1-5.1,2.2-7.8,1.7-3.6,4-5.4,8-4.9-.2,.2-.5,.4-.7,.7-4.5,4.7-7,12.1-6.7,19.9,0,3.9,.1,7.8,.2,11.5,0,1,0,1.9,0,2.7,0,2.2,.1,3.9,.1,6.8s.5,1.1,1.1,1.1h5.6c.3,0,.6,0,.7-.3,.2-.2,.3-.5,.3-.8v-8.4c.8,0,2-.2,3.3-.7h0v8.6c0,.6,.5,1.1,1.1,1.1h5.3c.6,0,1.1-.5,1.1-1.1v-9.2c0,0,.1,0,.2,0,3.3-1.3,4.9-4.3,5.6-6.6h6.3l1.4,16c0,.6,.5,1,1.1,1h5.3c.6,0,1-.4,1.1-1l1.2-13.3,3.3,14c.1,.5,.5,.8,1.1,.8h5.9c.2-.1,.4-.2,.6-.3,.5-.4,.5-.9,.4-1.6,0-.4,0-.9-.2-1.6,0-.6-.1-.8-.2-1.2-.1-.4-.3-.9-.4-2.2-.5-3.7-1-8-1.5-11.2h1.3c.9,2.9,3.4,5.1,6.3,5.5l2.9,4.5c1,1.6,2.8,2.6,4.7,2.5,.9,0,1.7-.3,2.4-.8,1.6-1.2,2.4-2.8,2.2-4.4h0s0,0,0-.1l-3.4-14c-.5-2.3-2.5-3.9-4.7-4h-1.6L55.1,2.9c-1-1.6-2.8-2.6-4.7-2.6L25.5,0c-3.4,0-6.6,.8-9.3,2.6,0,0,0,0-.1,0,0,0-3.8-.4-5.9,.2-2,.5-4.7,2-6.5,5.8-1.3,2.9-2.3,7.8-2.4,8.3-.1,.6,.3,1.1,.8,1.2Zm43.3,11.7l-1.3,14.9h-3.3l-1.3-14.9h5.9Zm19.8-9.3s0,0,0,0c0,0,0,0,0,0,0,0,0,0,0,0s0,0,.2,0h2.1c1.3,.2,2.4,1.1,2.8,2.5l3.4,13.9c0,.7-.4,1.6-1.4,2.3-.3,.2-.7,.4-1.2,.4-1.1,0-2.2-.5-2.8-1.5l-3.2-4.9c-.2-.3-.5-.5-.8-.5,0,0-.1,0-.2,0-3-.3-5.2-3.2-5-6.4l.2-2.2c0-.1,0-.3,0-.4l-1-2.9,3,.9c.3,0,.6,0,.8,0,.2-.1,.4-.4,.5-.6s0-.6,0-.8c-.1-.2-.4-.4-.6-.5l-5-1.5c-.4-.1-.8,0-1.1,.3-.3,.3-.4,.7-.2,1.1l1.5,4.6-.2,2c0,.4,0,.7,0,1.1h-1.2c-.1-1-.2-1.7-.2-1.8,0-.5-.5-.9-1.1-.9s-1.1,.5-1.1,1.1,0,0,0,.1c0,.2,.1,1.1,.4,3,.3,1.9,.7,4.8,1.1,7.6,.5,3.5,1.1,7.1,1.3,8.9h-3.9l-3.9-16.7c-.1-.5-.5-.8-1-.8H23.2c-.6,0-1,.4-1.1,1-.2,3.1-1.8,5.2-4.7,6.3,0,0-.2,0-.2,0-1.9,.7-3.7,.7-3.8,.7-.3,0-.6,0-.8,.3-.2,.2-.3,.5-.3,.8v8.3h-3.5c0-2.4,0-3.9-.1-5.8,0-.8,0-1.7,0-2.7-.1-3.7-.2-7.6-.2-11.5-.3-7.2,1.9-14.1,6.1-18.3,2.9-3,6.7-4.6,10.9-4.6s.1,0,.2,0l24.9,.3c1.2,0,2.3,.6,2.9,1.7l11.5,16.1s0,0,0,0c0,0,0,0,0,0,0,0,0,0,0,0,0,0,0,0,0,0ZM20,44.7v-7.3c1.1,0,2.1,0,3.2-.2v7.6h-3.2Zm8.8-14.9c-.9,2.3-2.3,3.9-4.1,4.7-1.1,.4-2.3,.7-3.5,.8,1.6-1.4,2.6-3.2,3-5.4h4.7Zm36.6-9.5h0Zm-.3-.2h0Z"/>
          <path class="uuid-c0c9b777-3596-444d-b08b-1e11bff45420" d="M67.4,28.8c.8,0,1.4-.6,1.4-1.4s-.6-1.4-1.4-1.4-1.4,.6-1.4,1.4,.6,1.4,1.4,1.4Z"/>
          <path class="uuid-c0c9b777-3596-444d-b08b-1e11bff45420" d="M78.1,51.6h0c-.3-.6-.9-1.7-2.4-2-.3,0-.6,0-.9,0-2.2,0-5.3,1.7-9.8,5.1l.2,.2h0l-.2-.2c-2.8,1.3-8.8,3.5-13.4,4-2.8,.3-6.1,.5-9,.6-2.1,0-3.8,0-5-.1h-1.4c-.4-.2-.7-.5-.7-.9,0-.4,.3-.7,.6-.8,1.6-.2,3.7-.3,5.8-.4,2.5,0,4.8-.2,5.9-.5,2.5-.6,4.5-3.4,4.7-5.4,.1-1.1-.3-1.9-1.1-2.3-1.3-.7-2.8-1-4.6-.9-1.7,0-3.6,.4-5.7,1-1.9,.6-4,.6-6.2,.7h-.3c-3.7,.1-7.9,.3-11.6,3-3.9,2.8-9.9,5.3-21.2-1-.3-.2-.6-.2-.9,0-.3,.1-.5,.3-.6,.6-.2,.5,0,1.1,.5,1.4,12.7,6.7,18.9,4.5,23.7,1.1,3.2-2.3,6.8-2.4,10.3-2.5h.2c2.3,0,4.7-.2,6.8-.8,1.9-.6,3.6-.9,5.1-.9,1.1,0,2.1,.1,3,.5h.3v.4c-.3,.9-1.5,2.5-3,2.9-.6,.2-1.7,.2-3.3,.3-2,0-4.7,.2-8,.7-1.2,.2-2.2,.9-2.6,1.9-.4,.9-.3,1.9,.2,2.8,.5,.9,1.5,1.5,2.6,1.6h1.2c1.3,.3,3.1,.3,5.3,.2,3,0,6.3-.3,9.2-.6,5-.6,11.4-2.9,14.3-4.3h.2c5-3.9,7.4-4.8,8.5-4.8,.1,0,.2,0,.3,0,.4,0,.5,.3,.8,.8h0c0,.2,.1,.3,.2,.4v.5c-.5,.3-1,.6-1.4,.8h-.2c-3.7,3-6.9,4.8-9.5,6.2-1.2,.7-2.4,1.3-3.4,2l-1.1,.7c-1.9,1.3-5.3,3.2-7.7,4.5h0c-1.6,1-3.1,1.8-3.9,2.3-.8,.5-1.9,.7-3.7,.7-.8,0-1.7,0-2.7,0-.7,0-1.3,0-2,0h-1.2c-1.5,0-24.3-2.8-37.6-10-.3-.2-.7-.2-1,0-.3,.1-.6,.4-.7,.7-.2,.6,0,1.3,.6,1.6,15.7,7.8,37,10.3,38.7,10.3h1.2c.7,0,1.3,0,2,0h0c.7,0,1.4,0,2,0s.5,0,.7,0c1.5,0,3.4-.2,4.9-1.1,.7-.5,2.1-1.2,3.7-2.1l.3-.2c2.6-1.5,5.8-3.3,7.8-4.6l1.1-.7c1-.6,2.1-1.2,3.4-1.9,2.6-1.4,5.9-3.2,9.7-6.2,.5-.3,1.1-.7,2-1.3,.6-.4,1.3-1.4,0-3.5Z"/>
        </g>
      </g>
    </g>
  </g>
</svg>