<?xml version="1.0" encoding="UTF-8"?>
<svg xmlns="http://www.w3.org/2000/svg" viewBox="0 0 68.9 57.4">
  <defs>
    <style>
      .uuid-3bc6315b-dadb-495b-91a9-b85e73fbb4a4 {
        fill: #fef2d7;
      }
    </style>
  </defs>
  <g id="uuid-53d62147-51eb-47bb-9532-7f51b2f7401b" data-name="Calque 1"/>
  <g id="uuid-e0713e2d-7921-4e59-9e0e-b4b7091522f3" data-name="Calque 2">
    <g id="uuid-f3210858-a560-4cc6-8e97-d05e15c14fb3" data-name="Layer 1">
      <g>
        <path class="uuid-3bc6315b-dadb-495b-91a9-b85e73fbb4a4" d="M67.9,55.5h-10.3v-13.4h0c.7,0,4.4-.1,6.8-2.2,2.7-2.3,2.6-6.1,2.6-6.2,0-.5-.4-.9-1-.9-.2,0-4.3-.1-7,2.2-.6,.5-1.1,1.1-1.5,1.9v-3.9c.9-.9,3.6-3.8,3.6-7.3s-3.8-7.5-4-7.6c-.4-.3-.9-.3-1.3,0-.2,.1-4,3.4-4,7.6s2.7,6.4,3.6,7.3v3.9c-.4-.7-.9-1.3-1.5-1.9-2.6-2.3-6.8-2.2-7-2.2-.5,0-.9,.4-1,.9,0,.2,0,3.9,2.6,6.2,2.4,2.1,6.1,2.2,6.8,2.2h0v13.4h-4.1c.3-.7,.5-1.5,.5-2.2,0-1.5-.6-3-1.7-4s-2.5-1.7-4-1.7-3,.6-4,1.7c-1.1,1.1-1.7,2.5-1.7,4s.2,1.5,.5,2.2h-5.9v-8.2h0c.7,0,4.4-.1,6.8-2.2,2.7-2.3,2.6-6.1,2.6-6.2,0-.5-.4-.9-1-.9,0,0-4.3-.1-7,2.2-.6,.5-1.1,1.1-1.5,1.9v-3.9c.9-.9,3.6-3.8,3.6-7.3s-3.8-7.5-4-7.6c-.4-.3-.9-.3-1.3,0-.2,.1-4,3.4-4,7.6s2.7,6.4,3.6,7.3v3.9c-.4-.7-.9-1.3-1.5-1.9-2.6-2.3-6.8-2.2-7-2.2-.5,0-.9,.4-1,.9,0,.2-.1,3.9,2.6,6.2,2.4,2.1,6.1,2.2,6.8,2.2h0v8.2h-3.9c-.4-1.8-1.9-3.1-3.8-3.1s-3.4,1.3-3.8,3.1H12.2v-3.1h0c.7,0,4.4-.1,6.8-2.2,2.7-2.3,2.6-6.1,2.6-6.2,0-.5-.4-.9-1-.9,0,0-4.3-.1-7,2.2-.6,.5-1.1,1.1-1.5,1.9v-3.9c.9-.9,3.6-3.8,3.6-7.3s-3.8-7.5-4-7.6c-.4-.3-.9-.3-1.3,0-.2,.1-4,3.4-4,7.6s2.7,6.4,3.6,7.3v3.9c-.4-.7-.9-1.3-1.5-1.9-2.6-2.3-6.8-2.2-7-2.2-.5,0-.9,.4-1,.9,0,.2-.1,3.9,2.6,6.2,2.4,2.1,6.1,2.2,6.8,2.2h0v3.1H1c-.5,0-1,.4-1,1s.4,1,1,1H67.9c.5,0,1-.4,1-1s-.4-1-1-1Zm-8.7-29.9c0,2.4-1.7,4.5-2.6,5.5-.9-1-2.6-3.1-2.6-5.5s1.7-4.5,2.6-5.5c.9,1,2.6,3.1,2.6,5.5Zm1.1,10.8h0c1.3-1.2,3.4-1.5,4.6-1.6-.1,1-.6,2.6-1.8,3.7-1.3,1.2-3.4,1.5-4.6,1.6,.1-1,.6-2.6,1.8-3.7Zm-7.5,0c1.2,1.1,1.7,2.7,1.8,3.7-1.2-.1-3.3-.5-4.6-1.6-1.2-1.1-1.7-2.7-1.8-3.7,1.2,.1,3.3,.5,4.6,1.6Zm-2.7,16.8c0,.8-.3,1.6-.7,2.2h-6.2c-.5-.7-.7-1.4-.7-2.2s.4-2,1.1-2.7c.7-.7,1.7-1.1,2.7-1.1s2,.4,2.7,1.1,1.1,1.7,1.1,2.7Zm-13.4-22.5c0,2.4-1.7,4.5-2.6,5.5-.9-1-2.6-3.1-2.6-5.5s1.7-4.5,2.6-5.5c.9,1,2.6,3.1,2.6,5.5Zm1.1,10.8h0c1.3-1.2,3.4-1.5,4.6-1.6-.1,1-.6,2.6-1.8,3.7-1.3,1.2-3.4,1.5-4.6,1.6,.1-1,.6-2.6,1.8-3.7Zm-7.5,0c1.2,1.1,1.7,2.7,1.8,3.7-1.2-.1-3.3-.5-4.6-1.6-1.2-1.1-1.7-2.7-1.8-3.7,1.2,.1,3.3,.5,4.6,1.6Zm-3,13.9h-3.7c.3-.7,1-1.2,1.8-1.2s1.5,.5,1.8,1.2Zm-13.6-19.6c0,2.4-1.7,4.5-2.6,5.5-.9-1-2.6-3.1-2.6-5.5s1.7-4.5,2.6-5.5c.9,1,2.6,3.1,2.6,5.5Zm1.1,10.8h0c1.3-1.2,3.4-1.5,4.6-1.6-.1,1-.6,2.6-1.8,3.7-1.3,1.2-3.4,1.5-4.6,1.6,.1-1,.6-2.6,1.8-3.7Zm-7.5,0c1.2,1.1,1.7,2.7,1.8,3.7-1.2-.1-3.3-.5-4.6-1.6h0c-1.2-1.1-1.7-2.7-1.8-3.7,1.2,.1,3.3,.5,4.6,1.6Z"/>
        <path class="uuid-3bc6315b-dadb-495b-91a9-b85e73fbb4a4" d="M15.6,28.8c0,3.3,2.7,6,6,6s6-2.7,6-6-2.7-6-6-6-6,2.7-6,6Zm1.8,0c0-2.3,1.9-4.1,4.1-4.1s4.1,1.9,4.1,4.1-1.9,4.1-4.1,4.1-4.1-1.9-4.1-4.1Z"/>
        <path class="uuid-3bc6315b-dadb-495b-91a9-b85e73fbb4a4" d="M55.8,11.9c3.3,0,6-2.7,6-6s-2.7-6-6-6-6,2.7-6,6,2.7,6,6,6Zm-4.1-6c0-2.3,1.9-4.1,4.1-4.1s4.1,1.9,4.1,4.1-1.9,4.1-4.1,4.1-4.1-1.9-4.1-4.1Z"/>
        <path class="uuid-3bc6315b-dadb-495b-91a9-b85e73fbb4a4" d="M10.5,19.1c4.4,0,7.9-3.5,7.9-7.9s-3.5-7.9-7.9-7.9S2.6,6.8,2.6,11.2s3.5,7.9,7.9,7.9Zm-6.1-7.9c0-3.3,2.7-6.1,6.1-6.1s6.1,2.7,6.1,6.1-2.7,6.1-6.1,6.1-6.1-2.7-6.1-6.1Z"/>
        <path class="uuid-3bc6315b-dadb-495b-91a9-b85e73fbb4a4" d="M4.2,31.9c2,0,3.6-1.6,3.6-3.6s-1.6-3.6-3.6-3.6-3.6,1.6-3.6,3.6,1.6,3.6,3.6,3.6Zm-1.7-3.6c0-1,.8-1.7,1.7-1.7s1.7,.8,1.7,1.7-.8,1.7-1.7,1.7-1.7-.8-1.7-1.7Z"/>
        <path class="uuid-3bc6315b-dadb-495b-91a9-b85e73fbb4a4" d="M44.6,30.5c2,0,3.6-1.6,3.6-3.6s-1.6-3.6-3.6-3.6-3.6,1.6-3.6,3.6,1.6,3.6,3.6,3.6Zm0-5.3c1,0,1.7,.8,1.7,1.7s-.8,1.7-1.7,1.7-1.7-.8-1.7-1.7,.8-1.7,1.7-1.7Z"/>
        <path class="uuid-3bc6315b-dadb-495b-91a9-b85e73fbb4a4" d="M32.2,18.9c3,0,5.4-2.4,5.4-5.4s-2.4-5.4-5.4-5.4-5.4,2.4-5.4,5.4,2.4,5.4,5.4,5.4Zm-3.5-5.4c0-2,1.6-3.5,3.5-3.5s3.5,1.6,3.5,3.5-1.6,3.5-3.5,3.5-3.5-1.6-3.5-3.5Z"/>
      </g>
    </g>
  </g>
</svg>