<?xml version="1.0" encoding="UTF-8"?>
<svg xmlns="http://www.w3.org/2000/svg" viewBox="0 0 59.5 56.9">
  <defs>
    <style>
      .uuid-de400c0a-d417-4179-9dce-80c85b26eda8 {
        fill: #fef2d7;
      }

      .uuid-239c9a7e-b540-4ff2-9a42-6699a28838da {
        opacity: .4;
      }
    </style>
  </defs>
  <g id="uuid-b05a96fa-460a-428c-b052-f7f7a421f19d" data-name="Calque 1"/>
  <g id="uuid-00627d40-953f-4667-8d6d-eb84590ee44e" data-name="Calque 2">
    <g id="uuid-03ac4934-e7cb-4733-b840-5f03ae7e2ad0" data-name="Layer 1">
      <g class="uuid-239c9a7e-b540-4ff2-9a42-6699a28838da">
        <g>
          <path class="uuid-de400c0a-d417-4179-9dce-80c85b26eda8" d="M22,35.7c-.8,0-1.6-.3-2.2-.9l-6.5-6c-.8-.4-3.8-1.7-4.9-2.8-1.2-1.2-3.4-5.2-4-6.2L.4,16.2c-.4-.4-.5-1,0-1.4,.4-.4,1-.5,1.4,0l4.3,3.7c0,0,.2,.2,.2,.3,1,1.8,2.9,5,3.7,5.8,.7,.7,3.1,1.9,4.4,2.5,.1,0,.2,.1,.3,.2l6.6,6.1c.5,.4,1.2,.4,1.7,0,.5-.4,.6-1,.3-1.6l-3.8-6.5c0,0,0-.2-.1-.3-.3-1.3-.7-2.5-1.1-3.7-.3-.6-.2-1.3,.2-1.9,.4-.6,1-.9,1.7-.9h4.6c.3,0,.6,.2,.8,.4l3.6,4.9c.1,.1,.2,.3,.2,.5l.8,7.8c0,.5,.4,.8,.9,.8,.5,0,.9-.4,.9-.9v-9.1l-3.3-7.3c-.3-.7-1-1.3-1.9-1.4l-15.1-1.9c-.2,0-.4-.1-.5-.2L.4,3C0,2.6-.1,1.9,.2,1.5c.4-.4,1-.5,1.4-.1L12,10.3l14.8,1.8c1.5,.2,2.8,1.2,3.5,2.6l3.4,7.5c0,.1,0,.3,0,.4v9.3c0,1.6-1.3,2.9-2.9,2.9-1.5,0-2.8-1.1-2.9-2.6l-.8-7.5-3.1-4.2h-4.1c.5,1.2,.9,2.5,1.2,3.8l3.7,6.3c.8,1.4,.5,3.1-.7,4.1-.6,.5-1.4,.8-2.2,.8Z"/>
          <path class="uuid-de400c0a-d417-4179-9dce-80c85b26eda8" d="M26.6,42.1c-1.8,0-3.1-1.2-3.1-3.1s.9-5.1,3.1-5.1,3.1,3.7,3.1,5.1-1.2,3.1-3.1,3.1Zm0-6.1c-.4,.4-1,1.9-1,3s.1,1,1,1,1-.5,1-1c0-1.1-.6-2.6-1-3Z"/>
          <path class="uuid-de400c0a-d417-4179-9dce-80c85b26eda8" d="M38.1,46.8h0c-1-1.7-4.4-1.1-5.8-.2-1,.6-1.4,1.4-1.5,2-.2,.7,0,1.5,.4,2.2,.6,1,1.5,1.6,2.5,1.6s1.1-.2,1.6-.5c1.5-.9,3.7-3.4,2.7-5.1Zm-3.8,3.3c-.4,.2-.9,.4-1.4-.4-.2-.3-.2-.6-.2-.8,0-.2,.2-.4,.6-.6,.7-.4,1.7-.6,2.4-.6s.5,0,.6,0c0,.5-1,1.7-2,2.3Z"/>
          <path class="uuid-de400c0a-d417-4179-9dce-80c85b26eda8" d="M4.1,53.9c-1.7,0-3.1-1.4-3.1-3.1s1.4-3.1,3.1-3.1,3.1,1.4,3.1,3.1-1.4,3.1-3.1,3.1Zm0-4.1c-.6,0-1,.5-1,1s.5,1,1,1,1-.5,1-1-.5-1-1-1Z"/>
          <path class="uuid-de400c0a-d417-4179-9dce-80c85b26eda8" d="M17.4,50.3c0,.8-.7,1.5-1.5,1.5s-1.5-.7-1.5-1.5,.7-1.5,1.5-1.5,1.5,.7,1.5,1.5Z"/>
          <path class="uuid-de400c0a-d417-4179-9dce-80c85b26eda8" d="M12.3,55.4c0,.8-.7,1.5-1.5,1.5s-1.5-.7-1.5-1.5,.7-1.5,1.5-1.5,1.5,.7,1.5,1.5Z"/>
          <path class="uuid-de400c0a-d417-4179-9dce-80c85b26eda8" d="M55.2,56.9c-1.7,0-3.1-1.4-3.1-3.1s1.4-3.1,3.1-3.1,3.1,1.4,3.1,3.1-1.4,3.1-3.1,3.1Zm0-4.1c-.6,0-1,.5-1,1s.5,1,1,1,1-.5,1-1-.5-1-1-1Z"/>
          <path class="uuid-de400c0a-d417-4179-9dce-80c85b26eda8" d="M57.3,47.2c0,.8-.7,1.5-1.5,1.5s-1.5-.7-1.5-1.5,.7-1.5,1.5-1.5,1.5,.7,1.5,1.5Z"/>
          <path class="uuid-de400c0a-d417-4179-9dce-80c85b26eda8" d="M47,54.4c0,.8-.7,1.5-1.5,1.5s-1.5-.7-1.5-1.5,.7-1.5,1.5-1.5,1.5,.7,1.5,1.5Z"/>
          <path class="uuid-de400c0a-d417-4179-9dce-80c85b26eda8" d="M58.7,42.7c-2.1-1-4.1-1.4-5.9-1.2-.8,.1-1.4,.3-1.9,.5-.2,0-.5,.2-.8,.3v-7.8c.3,0,.7,0,1,0,1.1,0,2.4-.2,3.8-.8,3.6-1.6,4.3-5.7,4.3-5.9,0-.5-.2-1-.7-1.2-.2,0-4-1-7.1,.6-.5,.3-1,.6-1.4,1.1v-4h0c.7,0,4.4-.1,6.8-2.2,2.7-2.3,2.6-6.1,2.6-6.2,0-.5-.4-.9-1-.9-.2,0-4.3-.1-7,2.2-.6,.5-1.1,1.1-1.5,1.9v-3.9c.9-.9,3.6-3.8,3.6-7.3S49.8,.4,49.7,.2c-.4-.3-.9-.3-1.3,0-.2,.1-4,3.4-4,7.6s2.7,6.4,3.6,7.3v3.9c-.4-.7-.9-1.3-1.5-1.9-2.6-2.3-6.8-2.2-7-2.2-.5,0-.9,.4-1,.9,0,.2,0,3.9,2.6,6.2,2.4,2.1,6.1,2.2,6.8,2.2h0v4c-.4-.4-.8-.8-1.4-1.1-3.1-1.6-6.9-.6-7.1-.6-.5,.1-.8,.6-.7,1.2,0,.2,.7,4.2,4.3,5.9,1.4,.6,2.7,.8,3.8,.8s.7,0,1,0v8.1c-.4,0-.9,0-1.4-.2-1.3-.2-2.5-.4-3.4,.4-2.9,2.4-2,5.1-1.5,6.4-.1,0-.2,0-.3,0-.7,.1-1.5,.3-2.1,.6-1.1,.6-1.2,1.7-1.3,2.4,0,.6,0,.9-.3,1.1,0,0,0,0,0,0-.4-.1-1.1-.4-2.2-.1-1.2,.2-1.8,.9-2.2,1.3-.3,.4-.4,.4-.6,.4h0c-.1,0-.3-.1-.6-.6-.4-.6-1.1-1.5-2.4-1.5h0c-1.1,0-1.8,.4-2.3,.7-.4,.2-.5,.3-.8,.3s-.2,0-.2,0c0,0-.2-.2-.3-.3-.2-.2-.5-.5-.9-.9-.8-.8-1.3-1-1.9-1.1-.2,0-.4,0-.7-.3-.4-.3-.5-.7-1-2.1-.2-.6-.4-1.3-.7-2.1-.5-1.4-2.6-3.5-4.7-3.4-1.1,0-1.8,.4-2.5,.7-.7,.3-1.3,.6-2.4,.6-.9,0-1.4-.2-2.2-.5-.7-.3-1.5-.6-2.8-.7h-.2c-1.3-.1-3.6-.3-5.9,1.1-.5,.3-.6,.9-.4,1.4,.3,.5,.9,.6,1.4,.4,1.8-1,3.4-.9,4.7-.8h.2c.9,0,1.5,.3,2.2,.6,.8,.3,1.6,.7,3,.6,1.5,0,2.4-.5,3.1-.8,.6-.3,1-.5,1.7-.5,1.1,0,2.4,1.3,2.7,2.1,.3,.8,.5,1.5,.7,2,.5,1.5,.8,2.5,1.8,3.1,.6,.4,1.1,.5,1.4,.6,.3,0,.4,.1,.9,.6,.3,.3,.6,.6,.7,.8,.5,.6,.9,1,2,1s1.3-.3,1.8-.6c.4-.2,.7-.4,1.3-.4h0c.3,0,.4,.1,.8,.7,.4,.6,1.1,1.4,2.2,1.4h0c1.1,0,1.7-.6,2.1-1,.3-.3,.6-.6,1.2-.7,.5-.1,.8,0,1.1,0,.4,.1,1,.3,1.7-.1,1.2-.8,1.3-1.9,1.3-2.7,0-.6,0-.7,.2-.7,.3-.2,.9-.3,1.5-.4,.5,0,1-.2,1.4-.3,.3-.1,.6-.3,.7-.6,.3-.6,0-1.1-.2-1.7-.5-1.2-1.1-2.7,.8-4.2,.2-.1,1.2,0,1.8,0,.5,0,1.1,.2,1.7,.2v1.6l-1.7,1.7c-.4,.4-.4,1,0,1.4,.4,.4,1,.4,1.4,0l1.3-1.3,2.3,2.3c.2,.2,.5,.3,.7,.3s.5,0,.7-.3c.4-.4,.4-1,0-1.4l-2.8-2.8v-1.8c.6-.2,1.1-.3,1.5-.5,.5-.2,.9-.3,1.5-.4,.9-.1,2.5,0,4.7,1,.5,.2,1.1,0,1.4-.5,.2-.5,0-1.1-.5-1.4Zm-6.3-13.6c1.6-.8,3.5-.7,4.6-.6-.4,1-1.2,2.6-2.9,3.4-1.5,.7-3,.7-3.9,.6,.2-1,.8-2.7,2.1-3.4Zm.4-10.4h0c1.3-1.2,3.4-1.5,4.6-1.6-.1,1-.6,2.6-1.8,3.7-1.3,1.2-3.4,1.5-4.6,1.6,.1-1,.6-2.6,1.8-3.7Zm-10.3,2c-1.2-1.1-1.7-2.7-1.8-3.7,1.2,.1,3.3,.5,4.6,1.6,1.2,1.1,1.7,2.7,1.8,3.7-1.2-.1-3.3-.5-4.6-1.6Zm1.6,11.2c-1.7-.8-2.5-2.3-2.9-3.4,1.1-.1,3-.2,4.6,.6,1.3,.7,1.9,2.3,2.1,3.4-.9,0-2.4,.1-3.9-.6Zm2.3-24.1c0-2.4,1.7-4.5,2.6-5.5,.9,1,2.6,3.1,2.6,5.5s-1.7,4.5-2.6,5.5c-.9-1-2.6-3.1-2.6-5.5Z"/>
        </g>
      </g>
    </g>
  </g>
</svg>