<?xml version="1.0" encoding="UTF-8"?>
<svg xmlns="http://www.w3.org/2000/svg" viewBox="0 0 64.2 68.7">
  <defs>
    <style>
      .uuid-116ea02d-0e92-4855-a06b-6bc3aed84dfa {
        fill: #fef2d7;
      }
    </style>
  </defs>
  <g id="uuid-7fe99945-77e4-48a0-acca-ff45ea279e3c" data-name="Calque 1"/>
  <g id="uuid-30abdce8-e4ca-4b0f-bf83-c0e89d804460" data-name="Calque 2">
    <g id="uuid-0ab18c21-66a4-4b3d-bd6d-9baa19a3b3ed" data-name="Layer 1">
      <g>
        <path class="uuid-116ea02d-0e92-4855-a06b-6bc3aed84dfa" d="M3,47.6c0,0,.2,0,.2,0,.6-.7,.6-1.2,.3-2.2-2.2-6.7-1.9-14.2,.7-20.6C8.5,14.2,18.3,6.9,29.8,6.1c1.2,0,2.2-.1,3.2-.1,0,0,0,0,0,.1-.9,.9-1.5,1.5-1.8,1.8-.4,.4-.9,.9-.8,1.5,.1,.5,.5,.8,1.1,.8,.3,0,.5-.1,.6-.2,.8-.9,2-2.1,3.5-3.5,.5-.5,1-1.3,.5-1.9-1.1-1.3-2.4-2.7-3.9-4.2-.4-.4-1-.4-1.4,0h0c-.4,.4-.4,1,0,1.3l2,2.1c0,0,0,.1,0,.1-2.6,0-5.1,.3-7.5,.8C14.5,7,5.7,14.7,2,24.8c-2.5,6.8-2.6,14.1-.4,21.1,.3,.9,.7,1.2,1.4,1.7Z"/>
        <path class="uuid-116ea02d-0e92-4855-a06b-6bc3aed84dfa" d="M41.7,5.4c-.5-.2-1.1,.1-1.3,.6h0c-.2,.5,0,1.1,.6,1.3,5.1,1.6,9.4,4.2,12.8,7.8,4.6,4.7,7.3,10.4,8.1,17,.2,1.9,.3,4.4,.1,6.3-.4,4.8-1.8,9.2-4.4,13.3,0,0-.1,0-.1,0l-.8-2.9c-.1-.5-.7-.8-1.2-.7h0c-.5,.1-.9,.7-.7,1.2,.6,2.4,1.1,4.2,1.4,5.4,.2,.9,1.1,.8,1.8,.7,2.9-.4,4.5-.7,4.8-.7,.5,0,.9-.6,.8-1.1h0c0-.6-.5-1-1.1-.9l-3.2,.5c0,0,0,0,0-.1,2.6-3.9,4.2-8.3,4.7-13.1,1.1-9.4-1.6-18.2-7.7-25.2-3.7-4.2-8.5-7.3-14.5-9.3Z"/>
        <path class="uuid-116ea02d-0e92-4855-a06b-6bc3aed84dfa" d="M32.9,28.9c2.7,0,5.5-.4,7.8-2.1,2.5-1.9,4-4.5,4.4-7.5,0-.5,.2-1.1,0-1.6-.4-.7-1.1-.6-1.8-.6-1.8,0-3.4,.3-4.9,.8-3.2,1.1-5.2,3.5-6.6,6.6,0,0-.1,0-.2,0-.5-1.3-1.3-2.6-2.3-3.7-1.8-2-4.7-3.1-7.3-3.3-.7,0-1.4,0-2.3-.1-.9,0-1.7,.2-1.7,1.2,0,2.6,1,4.9,2.7,6.9,2.1,2.4,5.2,3.3,8.3,3.4,1,0,1.5,0,1.5,0,0,0,.1,0,.1,.1v7.5c0,0,0,.2-.2,.2-3,.3-5.2,1.6-7.1,3.8,0,.1-.2,.2-.4,.2-2.5-.2-4.7,.6-6.5,2.2-2.1,1.8-3.1,4.2-3.2,7.2,0,.5,.4,1,.9,1.1h0c.5,0,1-.3,1.1-.8,.1-.7,0-1.4,.2-2.1,.6-2.5,2.1-4.1,4.4-5,1.3-.5,2.6-.6,3.7-.3,.3,0,.6,0,.8-.3,2.2-3.3,5.8-4.5,9.5-3.6,2.2,.5,3.8,1.8,5.3,3.6,0,0,0,0,.1,.1,.2,.1,.5,.2,.7,.1,3.5-.8,7,1.6,7.9,5,.2,.9,.2,1.6,.3,2.4,0,.5,.5,.9,1.1,.8h0c.5,0,.9-.5,.9-1.1-.1-3.1-1.3-5.6-3.5-7.4-1.8-1.5-3.9-2.1-6.3-1.9-.1,0-.3,0-.4-.1-2.1-2.3-4.1-3.6-7.2-3.9-.1,0-.2,0-.2-.2v-7.4c0,0,0-.2,.2-.2Zm10.2-9.7c-.5,2.3-1.6,4.4-3.4,5.8-1.8,1.4-4.2,2-6.5,1.8,0,0,0,0,0,0,.6-2.1,1.7-4.3,3.5-5.7,1.8-1.4,4.1-1.9,6.4-2,0,0,0,0,0,0Zm-22.8,.2c1.6,0,3.2,.3,4.6,.8,2.9,1,4.5,3.7,5.5,6.6,0,0,0,0,0,0-1.2,0-2.7,0-3.9-.4-3.5-.9-5.6-3.2-6.3-6.9,0,0,0-.2,.2-.2Z"/>
        <path class="uuid-116ea02d-0e92-4855-a06b-6bc3aed84dfa" d="M32.9,44.8c0-.6-.4-1.2-.9-1.2-.6,0-1,.4-1.1,1.1,0,.6,.4,1.2,.9,1.2,.6,0,1-.4,1.1-1.1Z"/>
        <path class="uuid-116ea02d-0e92-4855-a06b-6bc3aed84dfa" d="M21.1,49.7c0-.6-.5-1.1-1-1.1-.6,0-1,.5-1,1.2,0,.6,.5,1.1,1,1.1,.6,0,1-.5,1-1.2Z"/>
        <rect class="uuid-116ea02d-0e92-4855-a06b-6bc3aed84dfa" x="25.2" y="48.7" width="2.2" height="2" rx=".9" ry=".9" transform="translate(-24.3 74.2) rotate(-88)"/>
        <path class="uuid-116ea02d-0e92-4855-a06b-6bc3aed84dfa" d="M39.8,49.7c0-.6-.4-1.2-1-1.2-.6,0-1,.5-1,1.1,0,.6,.4,1.2,1,1.2,.6,0,1-.5,1-1.1Z"/>
        <path class="uuid-116ea02d-0e92-4855-a06b-6bc3aed84dfa" d="M8.1,54l2.4,.7c.5,.1,1.1-.2,1.2-.7h0c.1-.6-.2-1.1-.7-1.3-2.7-.8-4.3-1.3-4.8-1.4-.9-.3-1.6-.4-1.9,.6-.6,2.2-1.1,4-1.4,5.3-.1,.5,.2,1.1,.7,1.2h0c.5,.2,1.1-.1,1.2-.7l.9-3.3c0,0,.1,0,.1,0,3.6,5.9,9.3,10.3,15.9,12.5,5.4,1.9,10.9,2.3,16.4,1.2,6.2-1.2,11.6-3.9,16-8.3,.5-.5,.5-1.5-.3-1.8-.4-.1-.7,0-1,.2-5.4,5.1-12.4,8.2-19.8,8.3-1.5,0-2.5,0-3.1,0-2.7-.2-5.3-.8-7.9-1.7-5.9-2.1-10.6-5.7-14.1-10.9,0,0,.1,0,.2,0Z"/>
      </g>
    </g>
  </g>
</svg>