<?xml version="1.0" encoding="UTF-8"?>
<svg xmlns="http://www.w3.org/2000/svg" viewBox="0 0 59.7 67.9">
  <defs>
    <style>
      .uuid-9198475d-0489-470c-8389-7ec52658ba94 {
        fill: #fef2d7;
      }
    </style>
  </defs>
  <g id="uuid-97310746-f561-4333-8875-024745454758" data-name="Calque 1"/>
  <g id="uuid-cd8f2680-197a-4f2f-8ec0-6841f75a47b0" data-name="Calque 2">
    <g id="uuid-f8e8d984-efac-4a6b-b90b-58083a69cca2" data-name="Layer 1">
      <g>
        <path class="uuid-9198475d-0489-470c-8389-7ec52658ba94" d="M53.7,60.4c-5-2-9.1,0-13.4,2.1-4,1.9-8.1,3.8-13.5,3.2-3.6-.4-6-1.8-8.4-3.1-3-1.6-5.8-3.2-10.1-2.5-.3,0-.5,.2-.7,.4-.2,.2-.2,.5-.2,.8,.1,.5,.6,.9,1.2,.8,3.6-.6,6,.7,8.8,2.2,2.4,1.3,5.2,2.8,9.1,3.3,.8,0,1.5,.1,2.3,.1,4.9,0,8.9-1.9,12.3-3.5,4.1-1.9,7.6-3.6,11.8-2,.5,.2,1.1,0,1.3-.5,.1-.3,.1-.6,0-.8-.1-.3-.3-.5-.6-.6Z"/>
        <path class="uuid-9198475d-0489-470c-8389-7ec52658ba94" d="M59.5,59.8h0c-.8-.9-1.6-1.7-2.5-2.4,0,0,0,0,.2,0,.6,0,1-.5,1-1v-1.3c0-.6-.5-1-1-1s-1,.5-1,1v1.3c0,.2,0,.3,.1,.5-.6-.4-1.3-.8-1.9-1.1-5.2-2.4-9.4-.4-13.9,1.8,.3-.2,.6-.5,.6-.9v-1.3c0-.6-.5-1-1-1s-1,.5-1,1v1.3c0,.6,.5,1,1,1s.3,0,.4,0h-.2c-4,2.1-8.1,4.1-13.4,3.4-1.5-.2-2.8-.6-4-1.1,0,0,.1,0,.2,0h1c.6,0,1-.5,1-1s-.5-1-1-1h-1c-.6,0-1,.5-1,1s.2,.6,.5,.8c-1.4-.6-2.6-1.3-3.9-2-3.1-1.8-6.1-3.5-10.6-2.3-2.6,.7-5.1,2.2-7.3,4.4-.2,.2-.3,.4-.3,.7,0,.3,.1,.5,.3,.7,.4,.4,1,.4,1.4,0,2-2,4.1-3.3,6.4-3.9,3.7-1,6.1,.4,9.1,2.1,2.4,1.4,5.1,3,9,3.5,.8,.1,1.6,.2,2.4,.2,4.8,0,8.7-1.9,12.2-3.6,4.3-2.1,8-3.9,12.4-1.9,1.6,.8,3.1,1.9,4.5,3.5,.4,.4,1,.5,1.4,.1,.2-.2,.3-.4,.4-.7,0-.3,0-.6-.2-.8Z"/>
        <path class="uuid-9198475d-0489-470c-8389-7ec52658ba94" d="M1.8,57.5h1c.6,0,1-.5,1-1s-.5-1-1-1h-1c-.6,0-1,.5-1,1s.5,1,1,1Z"/>
        <path class="uuid-9198475d-0489-470c-8389-7ec52658ba94" d="M15.8,53.9c-.6,0-1,.5-1,1s.5,1,1,1h1c.6,0,1-.5,1-1s-.5-1-1-1h-1Z"/>
        <path class="uuid-9198475d-0489-470c-8389-7ec52658ba94" d="M35.1,52.4v1.3c0,.6,.5,1,1,1s1-.5,1-1v-1.3c0-.6-.5-1-1-1s-1,.5-1,1Z"/>
        <path class="uuid-9198475d-0489-470c-8389-7ec52658ba94" d="M51.4,52.2v1.3c0,.6,.5,1,1,1s1-.5,1-1v-1.3c0-.6-.5-1-1-1s-1,.5-1,1Z"/>
        <path class="uuid-9198475d-0489-470c-8389-7ec52658ba94" d="M43.6,52.2c-.2-.1-.5-.1-.8,0-.3,0-.5,.3-.6,.5s-.1,.5,0,.8l.4,1.2c.1,.4,.5,.7,1,.7s.2,0,.3,0c.5-.2,.8-.8,.6-1.3l-.4-1.2c0-.3-.3-.5-.5-.6Z"/>
        <path class="uuid-9198475d-0489-470c-8389-7ec52658ba94" d="M20.6,53.9v1.3c0,.6,.5,1,1,1s1-.5,1-1v-1.3c0-.6-.5-1-1-1s-1,.5-1,1Z"/>
        <path class="uuid-9198475d-0489-470c-8389-7ec52658ba94" d="M2,54.5c.6,0,1-.5,1-1v-1.3c0-.6-.5-1-1-1s-1,.5-1,1v1.3c0,.6,.5,1,1,1Z"/>
        <path class="uuid-9198475d-0489-470c-8389-7ec52658ba94" d="M6.4,51.5c-.2,.2-.4,.4-.4,.6,0,.3,0,.5,.2,.8l.6,1c.2,.2,.4,.4,.6,.4,0,0,.1,0,.2,0,.2,0,.4,0,.6-.2,.2-.2,.4-.4,.4-.6,0-.3,0-.5-.2-.8l-.6-1c-.3-.5-.9-.6-1.4-.3Z"/>
        <path class="uuid-9198475d-0489-470c-8389-7ec52658ba94" d="M47.6,51.4c-.3,0-.5,0-.8,.2-.2,.2-.4,.4-.4,.6,0,.3,0,.5,.2,.8l.6,1c.2,.2,.4,.4,.6,.4,0,0,.1,0,.2,0,.2,0,.4,0,.6-.2,.5-.3,.6-.9,.3-1.4l-.6-1c-.2-.2-.4-.4-.6-.4Z"/>
        <path class="uuid-9198475d-0489-470c-8389-7ec52658ba94" d="M32.8,57.6l-.7,.9c-.3,.5-.2,1.1,.2,1.4,.2,.1,.4,.2,.6,.2s.1,0,.2,0c.3,0,.5-.2,.7-.4l.7-.9c.3-.5,.2-1.1-.2-1.4-.2-.2-.5-.2-.8-.2-.3,0-.5,.2-.7,.4Z"/>
        <path class="uuid-9198475d-0489-470c-8389-7ec52658ba94" d="M29.4,55l-.7,.9c-.2,.2-.2,.5-.2,.8s.2,.5,.4,.7c.2,.1,.4,.2,.6,.2,.3,0,.6-.1,.8-.4l.7-.9c.2-.2,.2-.5,.2-.8,0-.3-.2-.5-.4-.7-.5-.3-1.1-.2-1.4,.2Z"/>
        <path class="uuid-9198475d-0489-470c-8389-7ec52658ba94" d="M12,51.3l-.7,.9c-.2,.2-.2,.5-.2,.8s.2,.5,.4,.7c.2,.1,.4,.2,.6,.2,.3,0,.6-.1,.8-.4l.7-.9c.2-.2,.2-.5,.2-.8,0-.3-.2-.5-.4-.7-.5-.3-1.1-.2-1.4,.2Z"/>
        <path class="uuid-9198475d-0489-470c-8389-7ec52658ba94" d="M28.4,23.5c.5,.1,1.1-.2,1.2-.7,.6-2.8,.5-5.5-.2-8C26.8,6,16.2,0,3,0H2V1c0,7.5,1.3,14.5,4,19.8,2.7,5.2,6.4,8.5,10.5,9.3,2.5,.4,5.1,0,7.9-1.5,.8,1.3,1.7,3,2.4,5.2,1.1,3.4,1.2,5.7,1.1,7.4H4.5c-2.5,0-4.5,2-4.5,4.5H0c0,2.5,2,4.5,4.5,4.5H54.3c2.5,0,4.5-2,4.5-4.5h0c0-2.5-2-4.5-4.5-4.5H29.9c0-1.5,0-3.4-.7-6.2l5.4-4.5c1.1,1.1,2.4,1.7,3.7,1.8,1.9,.2,3.9-.7,5.6-2.5,1.7-1.8,3-4.3,3.6-7.2l.2-.8-.7-.4c-4.4-2.2-9.6-1.4-12,1.8-1.3,1.8-1.5,3.9-1.4,5.3l-5.1,4.2c-.9-2.6-2-4.6-2.9-6.2-3.1-5.1-7.1-10.4-11.9-15.7l-.2-.2-1.5,1.4,.2,.2c4.4,4.9,8.2,9.7,11.1,14.4-2.3,1.2-4.5,1.6-6.5,1.2C9.6,26.8,4.1,15.6,4,2.1c5.7,.2,10.9,1.5,15.1,3.8,4.3,2.4,7.2,5.7,8.4,9.5,.6,2.2,.7,4.5,.2,7s.2,1,.7,1.2h0Zm16.7,24.6l8.7-4.9h.6c1.4,0,2.5,1.1,2.5,2.5h0c0,1.4-1.1,2.5-2.5,2.5h-9.2Zm-12.2,0l8.7-4.9h8.2l-8.7,4.9h-8.2Zm-19.5-4.9l-8.7,4.9h-.3c-1.4,0-2.5-1.1-2.5-2.5h0c0-1.4,1.1-2.5,2.5-2.5H13.4Zm11.5,0l-8.7,4.9h-7.5l8.7-4.9h7.5Zm-4.6,4.9l8.7-4.9h8.6l-8.7,4.9h-8.6Zm16.3-23.6c1.7-2.3,5.3-2.9,8.7-1.5-1.3,4.8-4.4,7.5-6.8,7.3-.5,0-1.6-.3-2.8-1.6-.1-1,0-2.7,1-4.1Z"/>
      </g>
    </g>
  </g>
</svg>